<svg width="26" height="15" viewBox="0 0 26 15" fill="none" xmlns="http://www.w3.org/2000/svg">
<path fill-rule="evenodd" clip-rule="evenodd" d="M7.89301 0.152832C4.18355 0.152832 0.880859 2.8212 0.880859 6.45525C0.880859 10.0889 4.18378 12.7577 7.89301 12.7577C8.4943 12.7577 9.08002 12.6896 9.64009 12.5607C9.69354 12.576 9.76296 12.5975 9.84968 12.6268C10.1123 12.7153 10.4341 12.8397 10.7948 12.979L10.9112 13.024C11.2969 13.1729 11.7261 13.337 12.0882 13.4501C12.267 13.5058 12.4695 13.5621 12.6644 13.594C12.762 13.61 12.8898 13.6255 13.0304 13.6229C13.1532 13.6207 13.397 13.604 13.6565 13.4725C14.0437 13.2762 14.2979 12.8881 14.3241 12.4532C14.3502 12.0185 14.1444 11.6024 13.7833 11.3606C13.5729 11.2198 13.432 10.9667 13.3579 10.6188C13.3449 10.5578 13.3351 10.4983 13.3276 10.4418C14.299 9.37229 14.9054 7.98763 14.9054 6.45529C14.9054 2.82169 11.6022 0.152832 7.89301 0.152832ZM9.66513 11.3166C9.68176 11.3182 9.6984 11.3202 9.71459 11.3231C9.72501 11.3244 9.73566 11.3259 9.74608 11.3277C9.76671 11.3315 9.78977 11.3359 9.8155 11.3417C9.93261 11.3679 10.0768 11.4111 10.2382 11.4657C10.5283 11.5637 10.8739 11.6972 11.2232 11.8321L11.349 11.8806C11.7418 12.0321 12.1328 12.1812 12.4502 12.2803C12.6086 12.3298 12.7487 12.3668 12.8614 12.3852C12.9175 12.3945 12.967 12.399 13.0082 12.3983C13.049 12.3974 13.0825 12.3914 13.1069 12.3792C12.5283 11.9918 12.2743 11.3856 12.1657 10.8751C12.1129 10.6271 12.0942 10.4022 12.0891 10.2368C12.084 10.0682 12.1481 9.90518 12.2666 9.78563C13.1508 8.89404 13.6863 7.73008 13.6863 6.45546C13.6863 3.65332 11.0953 1.37775 7.89371 1.37775C4.69214 1.37775 2.10116 3.65332 2.10116 6.45546C2.10116 9.25759 4.69214 11.5332 7.89371 11.5332C8.39962 11.5332 8.89023 11.4764 9.35797 11.3695C9.4509 11.3269 9.55623 11.3069 9.66513 11.3166ZM24.6615 9.28237C24.6615 7.3297 22.9348 5.66319 20.6981 5.66319C18.4613 5.66319 16.7346 7.32976 16.7346 9.28237C16.7346 10.1658 17.0815 10.9806 17.6693 11.6159C17.846 11.807 18.0048 12.0925 17.9955 12.4427C17.9911 12.6055 17.9736 12.8685 17.9052 13.1693C18.1592 13.0657 18.4198 12.9603 18.6427 12.8809C18.7782 12.8326 18.9164 12.788 19.0412 12.7585C19.1038 12.7439 19.175 12.7301 19.2486 12.7235C19.3136 12.7177 19.4256 12.713 19.5489 12.747C19.9118 12.8472 20.2973 12.9013 20.698 12.9013C22.9348 12.9013 24.6615 11.235 24.6615 9.28237ZM20.6978 4.43865C23.5123 4.43865 25.8809 6.56097 25.8809 9.28237C25.8809 12.0035 23.5123 14.1261 20.6978 14.1261C20.2199 14.1261 19.7561 14.0655 19.3152 13.9518C19.2553 13.9662 19.1674 13.9932 19.0503 14.0349C18.8343 14.1119 18.5726 14.2186 18.2902 14.3337L18.1989 14.3709C17.8926 14.4958 17.5641 14.6282 17.2904 14.7183C17.1549 14.7629 17.0116 14.8043 16.8794 14.8272C16.8135 14.8385 16.733 14.8485 16.6481 14.8469C16.5718 14.8454 16.4356 14.8343 16.2952 14.7591C16.1083 14.6591 15.9865 14.469 15.9734 14.2567C15.9603 14.0445 16.0579 13.8406 16.2309 13.7182C16.6423 13.4274 16.7581 12.8465 16.7747 12.4485C15.9945 11.6048 15.5148 10.4982 15.5148 9.28216C15.5148 6.56099 17.8833 4.43865 20.6978 4.43865Z" fill="#EAE7F4"/>
</svg>
