<svg width="25" height="15" viewBox="0 0 25 15" fill="none" xmlns="http://www.w3.org/2000/svg">
<path fill-rule="evenodd" clip-rule="evenodd" d="M7.01215 0.152832C3.3027 0.152832 0 2.8212 0 6.45525C0 10.0889 3.30292 12.7577 7.01215 12.7577C7.61344 12.7577 8.19917 12.6896 8.75923 12.5607C8.81268 12.576 8.8821 12.5975 8.96882 12.6268C9.23142 12.7153 9.55324 12.8397 9.9139 12.979L10.0303 13.024C10.416 13.1729 10.8452 13.337 11.2074 13.4501C11.3861 13.5058 11.5886 13.5621 11.7836 13.594C11.8811 13.61 12.0089 13.6255 12.1495 13.6229C12.2724 13.6207 12.5161 13.604 12.7756 13.4725C13.1629 13.2762 13.417 12.8881 13.4432 12.4532C13.4694 12.0185 13.2636 11.6024 12.9025 11.3606C12.692 11.2198 12.5512 10.9667 12.4771 10.6188C12.464 10.5578 12.4542 10.4983 12.4467 10.4418C13.4181 9.37229 14.0245 7.98763 14.0245 6.45529C14.0245 2.82169 10.7214 0.152832 7.01215 0.152832ZM8.78427 11.3166C8.8009 11.3182 8.81754 11.3202 8.83373 11.3231C8.84415 11.3244 8.8548 11.3259 8.86522 11.3277C8.88585 11.3315 8.90891 11.3359 8.93464 11.3417C9.05175 11.3679 9.19592 11.4111 9.35738 11.4657C9.64748 11.5637 9.99301 11.6972 10.3424 11.8321L10.4681 11.8806C10.8609 12.0321 11.252 12.1812 11.5693 12.2803C11.7277 12.3298 11.8679 12.3668 11.9805 12.3852C12.0367 12.3945 12.0861 12.399 12.1274 12.3983C12.1682 12.3974 12.2017 12.3914 12.2261 12.3792C11.6474 11.9918 11.3935 11.3856 11.2848 10.8751C11.232 10.6271 11.2134 10.4022 11.2083 10.2368C11.2032 10.0682 11.2673 9.90518 11.3857 9.78563C12.27 8.89404 12.8054 7.73008 12.8054 6.45546C12.8054 3.65332 10.2144 1.37775 7.01285 1.37775C3.81128 1.37775 1.2203 3.65332 1.2203 6.45546C1.2203 9.25759 3.81128 11.5332 7.01285 11.5332C7.51876 11.5332 8.00937 11.4764 8.47711 11.3695C8.57004 11.3269 8.67537 11.3069 8.78427 11.3166ZM23.7806 9.28237C23.7806 7.3297 22.054 5.66319 19.8172 5.66319C17.5804 5.66319 15.8538 7.32976 15.8538 9.28237C15.8538 10.1658 16.2007 10.9806 16.7884 11.6159C16.9652 11.807 17.124 12.0925 17.1147 12.4427C17.1102 12.6055 17.0927 12.8685 17.0244 13.1693C17.2783 13.0657 17.5389 12.9603 17.7618 12.8809C17.8973 12.8326 18.0355 12.788 18.1604 12.7585C18.2229 12.7439 18.2941 12.7301 18.3678 12.7235C18.4327 12.7177 18.5447 12.713 18.6681 12.747C19.0309 12.8472 19.4164 12.9013 19.8172 12.9013C22.0539 12.9013 23.7806 11.235 23.7806 9.28237ZM19.817 4.43865C22.6315 4.43865 25 6.56097 25 9.28237C25 12.0035 22.6315 14.1261 19.817 14.1261C19.339 14.1261 18.8752 14.0655 18.4343 13.9518C18.3744 13.9662 18.2866 13.9932 18.1695 14.0349C17.9534 14.1119 17.6917 14.2186 17.4094 14.3337L17.318 14.3709C17.0117 14.4958 16.6832 14.6282 16.4095 14.7183C16.274 14.7629 16.1308 14.8043 15.9986 14.8272C15.9327 14.8385 15.8522 14.8485 15.7672 14.8469C15.6909 14.8454 15.5548 14.8343 15.4144 14.7591C15.2274 14.6591 15.1056 14.469 15.0925 14.2567C15.0795 14.0445 15.1771 13.8406 15.3501 13.7182C15.7615 13.4274 15.8773 12.8465 15.8939 12.4485C15.1136 11.6048 14.6339 10.4982 14.6339 9.28216C14.6339 6.56099 17.0025 4.43865 19.817 4.43865Z" fill="#EAE7F4"/>
</svg>
