<svg width="16" height="16" viewBox="0 0 16 16" fill="none" xmlns="http://www.w3.org/2000/svg">
<path d="M7.99992 0C3.5863 0 0 3.59512 0 8.01883C0 12.1587 3.13688 15.5727 7.15923 15.994C7.83744 16.0649 8.39997 15.4953 8.39997 14.8349V11.6274C8.39997 11.4012 8.57421 11.2264 8.79988 11.2264H14C14.7776 11.2264 15.5575 10.7248 15.7579 9.92798C15.9143 9.30587 15.9957 8.66634 16 8.02196V8.02035V8.01887C16 3.59482 12.4134 3.97231e-05 8.00008 3.97231e-05L7.99992 0ZM5.59991 3.20753C6.25789 3.20753 6.79992 3.75084 6.79992 4.41038C6.79992 5.06991 6.25789 5.61322 5.59991 5.61322C4.94193 5.61322 4.39991 5.06991 4.39991 4.41038C4.39991 3.75084 4.94193 3.20753 5.59991 3.20753ZM10.3999 3.20753C11.0579 3.20753 11.5999 3.75084 11.5999 4.41038C11.5999 5.06991 11.0579 5.61322 10.3999 5.61322C9.74195 5.61322 9.19993 5.06991 9.19993 4.41038C9.19993 3.75084 9.74195 3.20753 10.3999 3.20753ZM3.60002 6.41507C4.258 6.41507 4.80002 6.95837 4.80002 7.61791C4.80002 8.27744 4.258 8.82075 3.60002 8.82075C2.94204 8.82075 2.40001 8.27744 2.40001 7.61791C2.40001 6.95837 2.94204 6.41507 3.60002 6.41507ZM12.4002 6.41507C13.058 6.41507 13.6 6.95837 13.6 7.61791C13.6 8.27744 13.058 8.82075 12.4 8.82075C11.7421 8.82075 11.2 8.27744 11.2 7.61791C11.2 6.95837 11.7421 6.41507 12.4 6.41507H12.4002Z" fill="#0DF6E3"/>
</svg>
