<svg width="9" height="12" viewBox="0 0 9 12" fill="none" xmlns="http://www.w3.org/2000/svg">
<path d="M8.47461 8.58984C8.47461 8.99414 8.41895 9.36035 8.30762 9.68848C8.19629 10.0166 8.04102 10.3066 7.8418 10.5586C7.64844 10.8105 7.41406 11.0273 7.13867 11.209C6.86914 11.3906 6.57031 11.54 6.24219 11.6572C5.91406 11.7744 5.5625 11.8623 5.1875 11.9209C4.81836 11.9736 4.40527 12 3.94824 12H0.924805C0.731445 12 0.567383 11.9443 0.432617 11.833C0.303711 11.7158 0.239258 11.5283 0.239258 11.2705V1.35645C0.239258 1.09863 0.303711 0.914063 0.432617 0.802734C0.567383 0.685547 0.731445 0.626953 0.924805 0.626953H3.78125C4.47852 0.626953 5.06738 0.685547 5.54785 0.802734C6.03418 0.919922 6.44141 1.09863 6.76953 1.33887C7.10352 1.57324 7.3584 1.87207 7.53418 2.23535C7.70996 2.59863 7.79785 3.02637 7.79785 3.51855C7.79785 3.79395 7.7627 4.05469 7.69238 4.30078C7.62207 4.54102 7.51953 4.76074 7.38477 4.95996C7.25 5.15918 7.08301 5.33496 6.88379 5.4873C6.69043 5.63965 6.46777 5.7627 6.21582 5.85645C6.53809 5.91504 6.83398 6.01758 7.10352 6.16406C7.37891 6.31055 7.61621 6.50098 7.81543 6.73535C8.02051 6.96387 8.18164 7.2334 8.29883 7.54395C8.41602 7.85449 8.47461 8.20312 8.47461 8.58984ZM5.48633 3.7998C5.48633 3.57129 5.45117 3.36621 5.38086 3.18457C5.31055 3.00293 5.20508 2.85352 5.06445 2.73633C4.92383 2.61328 4.74512 2.51953 4.52832 2.45508C4.31738 2.39063 4.0332 2.3584 3.67578 2.3584H2.50684V5.31152H3.79883C4.13281 5.31152 4.39941 5.27344 4.59863 5.19727C4.79785 5.11523 4.96191 5.00684 5.09082 4.87207C5.22559 4.73145 5.3252 4.57031 5.38965 4.38867C5.4541 4.20117 5.48633 4.00488 5.48633 3.7998ZM6.0752 8.66895C6.0752 8.40527 6.03125 8.1709 5.94336 7.96582C5.85547 7.75488 5.72656 7.5791 5.55664 7.43848C5.38672 7.29785 5.16992 7.18945 4.90625 7.11328C4.64258 7.03711 4.2998 6.99902 3.87793 6.99902H2.50684V10.2334H4.17676C4.49902 10.2334 4.76855 10.2012 4.98535 10.1367C5.20801 10.0664 5.39844 9.9668 5.55664 9.83789C5.7207 9.70312 5.84668 9.53906 5.93457 9.3457C6.02832 9.14648 6.0752 8.9209 6.0752 8.66895Z" fill="white"/>
</svg>
