<svg width="26" height="11" viewBox="0 0 26 11" fill="none" xmlns="http://www.w3.org/2000/svg">
<path fill-rule="evenodd" clip-rule="evenodd" d="M3.34854 6.23215L14.3383 6.23215C14.9867 6.23215 24.4406 6.49509 25.2939 6.26497C25.8059 6.16632 26.1813 5.60761 25.9083 5.01593C25.6012 4.29275 23.4167 4.52287 22.0857 4.52287C18.5361 4.52287 14.9867 4.39141 11.369 4.39141L3.14366 4.45724C3.82625 3.20819 6.89794 1.17035 5.49868 0.217243C4.64554 -0.407255 4.16762 0.480182 3.86053 0.80893C2.63188 2.15661 1.64199 3.33983 0.51581 4.75318C-0.849321 6.49528 0.652325 6.33078 3.17793 8.50011C3.65584 8.92734 5.53296 10.8009 5.77171 10.8996C6.4543 11.2283 7.13684 10.7023 7.0687 10.0121C7.00035 9.15747 3.5191 6.5609 3.34854 6.23235V6.23215Z" fill="#74707F"/>
</svg>
