<svg width="16" height="19" viewBox="0 0 16 19" fill="none" xmlns="http://www.w3.org/2000/svg">
<path d="M10.5551 16.0676C10.4725 17.425 9.36 18.5 7.99995 18.5C6.6399 18.5 5.5274 17.425 5.44483 16.0676H1.60313C0.717653 16.0676 0 15.3418 0 14.4459C0 13.5512 0.717196 12.8243 1.60068 12.8243C1.77612 12.8243 1.92009 12.6784 1.92009 12.4995V8.60784C1.92009 5.86481 3.70202 3.48351 6.23995 2.70803V2.28408C6.23995 1.29929 7.02903 0.5 8 0.5C8.97256 0.5 9.76005 1.29749 9.76005 2.28408V2.70803C12.298 3.48357 14.0799 5.86533 14.0799 8.60784V12.4995C14.0799 12.6802 14.2221 12.8243 14.3993 12.8243C15.2815 12.8243 16 13.5512 16 14.4459C16 15.3407 15.2817 16.0676 14.3969 16.0676H10.5551ZM9.91337 16.0676H6.08659C6.16784 17.0664 6.9935 17.8514 7.99995 17.8514C9.0064 17.8514 9.83206 17.0664 9.91331 16.0676H9.91337ZM6.63973 3.26833C4.2558 3.88999 2.56004 6.07698 2.56004 8.60804V12.4996C2.56004 13.0367 2.12969 13.4731 1.60068 13.4731C1.07055 13.4731 0.639997 13.9098 0.639997 14.4462C0.639997 14.9835 1.0708 15.4192 1.60313 15.4192H14.3968C14.9282 15.4192 15.3599 14.9824 15.3599 14.4462C15.3599 13.9098 14.9282 13.4731 14.3992 13.4731C13.8687 13.4731 13.4399 13.0388 13.4399 12.4996V8.60804C13.4399 6.07744 11.7439 3.88999 9.36018 3.26833L9.12 3.20566V2.28423C9.12 1.65597 8.61911 1.14881 7.99989 1.14881C7.38224 1.14881 6.87978 1.65783 6.87978 2.28423V3.20566L6.63973 3.26833Z" fill="#EAE7F4"/>
</svg>
