<svg width="223" height="262" viewBox="0 0 223 262" fill="none" xmlns="http://www.w3.org/2000/svg">
<path d="M25.1552 223.733H68.1095C69.925 237.953 78.5689 250.387 91.2532 257.022C103.94 263.659 119.063 263.659 131.747 257.022C144.434 250.387 153.078 237.953 154.893 223.733H197.847H197.846C204.362 223.735 210.625 221.201 215.314 216.667C220.004 212.135 222.753 205.954 222.984 199.431C223.217 192.906 220.91 186.547 216.554 181.691L197.252 160.118V120.314C197.217 103.605 192.324 87.2702 183.178 73.2984C174.029 59.3286 161.019 48.3269 145.737 41.6385V35.2124C145.839 26.4048 142.608 17.8838 136.695 11.3647C130.779 4.84773 122.622 0.815476 113.861 0.078893C104.397 -0.564872 95.0909 2.75278 88.1599 9.23992C81.2288 15.7271 77.2948 24.8032 77.2928 34.306V41.6663C62.0102 48.3627 49.0024 59.3706 39.854 73.3439C30.7077 87.3198 25.8153 103.659 25.7775 120.37V160.004L6.44774 181.577V181.579C2.0914 186.433 -0.214845 192.794 0.0157691 199.316C0.248372 205.841 2.99821 212.02 7.68558 216.554C12.3751 221.089 18.6375 223.62 25.1542 223.62L25.1552 223.733ZM111.517 244.938C105.387 244.928 99.4453 242.821 94.6751 238.964C89.9048 235.108 86.595 229.734 85.2921 223.733H137.743C136.44 229.734 133.13 235.108 128.36 238.964C123.589 242.821 117.648 244.928 111.518 244.938H111.517ZM19.0795 193.043L40.5559 169.063C41.9535 167.509 42.7282 165.493 42.7321 163.402V120.369C42.7656 106.129 47.1909 92.2478 55.4007 80.6223C63.6106 68.9967 75.2033 60.1971 88.5976 55.4258C90.2495 54.8392 91.6825 53.7531 92.6938 52.3194C93.7069 50.8838 94.249 49.1696 94.249 47.4121V34.3052C94.2549 29.7178 96.0763 25.3181 99.3129 22.0715C102.548 18.8249 106.935 16.9943 111.515 16.9786H112.729C117.206 17.415 121.351 19.53 124.335 22.9011C127.318 26.2741 128.917 30.6501 128.81 35.1546V47.357C128.808 49.1145 129.352 50.8287 130.363 52.2623C131.377 53.698 132.808 54.7822 134.461 55.3687C147.854 60.1378 159.447 68.9396 167.651 80.5652C175.857 92.1908 180.275 106.074 180.298 120.314V163.374C180.302 165.466 181.076 167.482 182.474 169.036L203.95 193.016C205.372 194.598 206.125 196.672 206.05 198.8C205.973 200.927 205.076 202.941 203.546 204.418C202.015 205.897 199.973 206.721 197.846 206.717H25.1573C23.0323 206.721 20.9882 205.897 19.4585 204.418C17.9289 202.941 17.03 200.927 16.9551 198.8C16.8802 196.671 17.6312 194.598 19.0545 193.016L19.0795 193.043Z" fill="black"/>
</svg>
