<svg width="17" height="15" viewBox="0 0 17 15" fill="none" xmlns="http://www.w3.org/2000/svg">
<path d="M15.55 0.790285C15.1839 0.801978 14.8363 0.96964 14.5809 1.25764C14.2629 1.60682 12.1581 3.98162 9.98499 6.43176C8.22052 8.42087 6.97739 9.8203 6.27746 10.6064L2.33492 7.31019H2.33508C2.04093 7.02919 1.6537 6.89445 1.26581 6.93816C0.877915 6.98188 0.523755 7.19991 0.287648 7.54064C0.051503 7.88136 -0.0453478 8.31438 0.0198753 8.73642C0.0850984 9.15846 0.306656 9.53209 0.63179 9.7683L5.56537 13.8948C5.83675 14.1213 6.17368 14.2323 6.51387 14.2071C6.85391 14.1819 7.17428 14.0223 7.41534 13.7577C7.73325 13.4087 9.83808 11.0416 12.0112 8.59141C14.1844 6.14141 16.4258 3.60841 16.5777 3.4417C16.8491 3.14936 17.0013 2.74928 17 2.33208C16.9988 1.91472 16.8441 1.51569 16.5711 1.22537C16.2981 0.935192 15.9297 0.778144 15.5498 0.790197L15.55 0.790285Z" fill="#0DF6E3"/>
</svg>
