<svg width="26" height="17" viewBox="0 0 26 17" fill="none" xmlns="http://www.w3.org/2000/svg">
<path d="M8.04199 12.4707C8.04199 12.6875 8.0332 12.8574 8.01562 12.9805C7.99805 13.1035 7.96875 13.1914 7.92773 13.2441C7.89258 13.2969 7.8457 13.3203 7.78711 13.3145C7.73438 13.3086 7.66406 13.2852 7.57617 13.2441L0.834961 9.88672C0.75293 9.83984 0.691406 9.74316 0.650391 9.59668C0.615234 9.44434 0.597656 9.21875 0.597656 8.91992C0.597656 8.76758 0.603516 8.63574 0.615234 8.52441C0.626953 8.40723 0.641602 8.31348 0.65918 8.24316C0.676758 8.16699 0.700195 8.1084 0.729492 8.06738C0.764648 8.02051 0.802734 7.98535 0.84375 7.96191L7.57617 4.62207C7.74609 4.54004 7.86621 4.55762 7.93652 4.6748C8.00684 4.78613 8.04199 5.01758 8.04199 5.36914C8.04199 5.60938 8.03613 5.7998 8.02441 5.94043C8.01855 6.08105 8.00391 6.19238 7.98047 6.27441C7.95703 6.35645 7.9248 6.41504 7.88379 6.4502C7.84277 6.48535 7.78711 6.52051 7.7168 6.55566L2.6543 8.92871L7.62012 11.2314C7.70801 11.2725 7.77832 11.3135 7.83105 11.3545C7.88965 11.3955 7.93359 11.46 7.96289 11.5479C7.99219 11.6299 8.0127 11.7441 8.02441 11.8906C8.03613 12.0312 8.04199 12.2246 8.04199 12.4707ZM11.1797 16.2764C11.1504 16.3525 11.1123 16.4141 11.0654 16.4609C11.0186 16.5078 10.9512 16.5459 10.8633 16.5752C10.7812 16.6045 10.6758 16.625 10.5469 16.6367C10.4238 16.6543 10.2656 16.6631 10.0723 16.6631C9.83203 16.6631 9.63574 16.6514 9.4834 16.6279C9.33105 16.6045 9.21387 16.5693 9.13184 16.5225C9.05566 16.4756 9.01172 16.4141 9 16.3379C8.98828 16.2676 9 16.1826 9.03516 16.083L14.291 1.32617C14.3145 1.25 14.3496 1.18848 14.3965 1.1416C14.4434 1.08887 14.5078 1.04785 14.5898 1.01855C14.6719 0.989258 14.7773 0.96875 14.9062 0.957031C15.041 0.939453 15.2021 0.930664 15.3896 0.930664C15.6357 0.930664 15.832 0.942383 15.9785 0.96582C16.1309 0.989258 16.2451 1.02441 16.3213 1.07129C16.3975 1.11816 16.4414 1.17969 16.4531 1.25586C16.4648 1.32617 16.4561 1.41113 16.4268 1.51074L11.1797 16.2764ZM25.0488 8.94629C25.0488 9.09863 25.043 9.23047 25.0312 9.3418C25.0195 9.45312 25.002 9.54688 24.9785 9.62305C24.9609 9.69922 24.9346 9.76074 24.8994 9.80762C24.8701 9.84863 24.835 9.87793 24.7939 9.89551L18.0527 13.2354C17.9707 13.2764 17.9004 13.2939 17.8418 13.2881C17.7832 13.2822 17.7334 13.25 17.6924 13.1914C17.6572 13.1328 17.6309 13.0479 17.6133 12.9365C17.6016 12.8193 17.5957 12.6729 17.5957 12.4971C17.5957 12.2568 17.5986 12.0664 17.6045 11.9258C17.6162 11.7852 17.6338 11.6738 17.6572 11.5918C17.6807 11.5098 17.7129 11.4512 17.7539 11.416C17.7949 11.375 17.8506 11.3398 17.9209 11.3105L22.9834 8.9375L18.0176 6.63477C17.9238 6.59375 17.8477 6.55273 17.7891 6.51172C17.7363 6.4707 17.6953 6.40918 17.666 6.32715C17.6367 6.23926 17.6162 6.125 17.6045 5.98438C17.5986 5.83789 17.5957 5.6416 17.5957 5.39551C17.5957 5.17871 17.6016 5.00879 17.6133 4.88574C17.6309 4.7627 17.6572 4.6748 17.6924 4.62207C17.7334 4.56934 17.7832 4.5459 17.8418 4.55176C17.9004 4.55762 17.9707 4.58105 18.0527 4.62207L24.8027 7.98828C24.8789 8.02344 24.9375 8.11719 24.9785 8.26953C25.0254 8.42188 25.0488 8.64746 25.0488 8.94629Z" fill="white"/>
</svg>
