<svg width="20" height="17" viewBox="0 0 20 17" fill="none" xmlns="http://www.w3.org/2000/svg">
<path fill-rule="evenodd" clip-rule="evenodd" d="M5.7272 8.87253C5.72706 8.70671 5.79274 8.54767 5.90996 8.43043C6.02718 8.31306 6.18622 8.24723 6.35191 8.24738C6.51787 8.24723 6.67706 8.31306 6.79442 8.43028C6.91179 8.5475 6.97776 8.70669 6.97776 8.87249C6.97776 9.03846 6.91194 9.1975 6.79471 9.31485C6.67734 9.43222 6.5183 9.49805 6.35235 9.49805C6.18653 9.49805 6.02749 9.43222 5.91014 9.31485C5.79292 9.19748 5.72709 9.03844 5.72709 8.87249L5.7272 8.87253ZM3.21474 8.87253C3.2146 8.70686 3.28028 8.54781 3.39735 8.43043C3.51457 8.31321 3.67347 8.24738 3.8393 8.24738C4.00513 8.24738 4.16416 8.31335 4.2814 8.43057C4.39877 8.54794 4.46459 8.70699 4.46459 8.87279C4.46459 9.03875 4.39862 9.19779 4.2814 9.315C4.16403 9.43222 4.00499 9.49805 3.83919 9.49805C3.67322 9.49805 3.51418 9.43207 3.39697 9.31485C3.27975 9.19748 3.21393 9.03829 3.21393 8.87249L3.21474 8.87253ZM8.23929 8.87253C8.23914 8.70671 8.30482 8.54766 8.42219 8.43031C8.53941 8.31309 8.6986 8.24727 8.8644 8.24741C9.0302 8.24756 9.18926 8.31339 9.3065 8.43076C9.42372 8.54813 9.48955 8.70717 9.48955 8.87297C9.4894 9.03878 9.42357 9.19783 9.3062 9.31507C9.18884 9.43244 9.02979 9.49826 8.86399 9.49811C8.69818 9.49811 8.53913 9.43214 8.42178 9.31477C8.30456 9.19755 8.23873 9.03836 8.23888 8.87256L8.23929 8.87253ZM1.24949 5.32556V12.4198H2.30197C2.46779 12.4196 2.62683 12.4855 2.74392 12.6028C2.86114 12.7201 2.92682 12.8791 2.92667 13.0449V14.4878L5.98132 12.5202C6.08176 12.454 6.19957 12.4191 6.31988 12.4198H11.1265L11.1264 5.32558L1.24949 5.32556ZM8.87188 1.99035V4.075L11.1723 4.07515C11.4918 4.07559 11.7983 4.20283 12.0242 4.42888C12.2501 4.65492 12.3772 4.96138 12.3775 5.28095V9.0848H13.6805H13.6803C13.8003 9.08451 13.9178 9.11852 14.0193 9.18258L17.0734 11.1528V9.70996C17.0731 9.54414 17.1389 9.3851 17.2561 9.26786C17.3734 9.15062 17.5324 9.08481 17.6982 9.08481H18.7507V1.99058L8.87188 1.99035ZM1.20425 13.6703H1.67711V15.6351C1.67667 15.8009 1.74235 15.9602 1.85971 16.0776C1.97694 16.195 2.13612 16.2608 2.30208 16.2603C2.42239 16.2605 2.54005 16.2254 2.64078 16.1598L6.50382 13.6709L11.1725 13.6707C11.4922 13.6703 11.7986 13.543 12.0246 13.317C12.2505 13.0909 12.3775 12.7843 12.3777 12.4647V10.3351H13.4966L17.36 12.824V12.8241C17.4607 12.8897 17.5783 12.9246 17.6984 12.9246C17.8641 12.925 18.0233 12.8595 18.1404 12.7423C18.2576 12.6251 18.3233 12.466 18.3227 12.3003V10.3351H18.7954C19.1148 10.3347 19.4211 10.2074 19.6469 9.98138C19.8728 9.75533 19.9997 9.44903 20 9.12961V1.94603C19.9997 1.62647 19.8728 1.32015 19.647 1.09411C19.4211 0.868057 19.1148 0.740822 18.7954 0.740234H8.82735C8.50779 0.740676 8.20135 0.86791 7.97542 1.09396C7.74952 1.32001 7.62244 1.62646 7.62214 1.94603V4.07544H1.20461C0.885199 4.07602 0.578882 4.20326 0.352988 4.42931C0.127235 4.65535 0.000294053 4.96166 0 5.28123V12.4648C0.000294544 12.7844 0.127235 13.0907 0.353135 13.3167C0.578889 13.5428 0.885184 13.67 1.20461 13.6705L1.20425 13.6703Z" fill="#74707F"/>
</svg>
