<svg width="847" height="843" viewBox="0 0 847 843" fill="none" xmlns="http://www.w3.org/2000/svg">
<path d="M352.752 334.913C354.815 331.551 355.389 325.025 351.825 320.864C348.255 316.665 341.473 308.861 335.135 315.243C328.78 321.629 323.809 329.185 325.648 335.101C327.479 340.999 325.836 343.471 331.141 348.239C336.439 352.983 340.904 353.865 337.794 356.699C334.685 359.56 332.195 365.093 332.395 369.973C332.57 374.88 333.393 383.607 340.282 389.812C347.135 396.032 348.826 395.673 351.189 394.292C353.547 392.908 352.63 397.581 357.926 402.331C363.229 407.103 363.041 405.676 363.253 411.707C363.443 417.772 363.05 419.787 364.556 422.634C366.077 425.469 373.3 432.232 371.348 436.224C369.41 440.248 366.736 444.355 369.37 449.738C372.015 455.118 379.003 457.178 380.611 460.74C382.224 464.316 379.814 464.753 382.301 469.849C384.74 474.995 388.758 474.62 390.87 478.044C392.967 481.463 394.516 479.08 394.987 481.214C395.444 483.344 395.139 482.671 395.421 485.74C395.706 488.799 397.667 489.185 398.331 490.752C398.997 492.31 397.067 493.172 397.696 495.32C398.33 497.5 397.063 498.504 397.817 500.066C398.597 501.616 400.929 502.802 401.442 503.719C401.994 504.629 402.313 505.217 401.42 506.53C400.533 507.871 399.405 510.49 399.856 511.737C400.319 512.994 400.739 512.705 401.419 516.044C402.08 519.36 402.503 520.446 401.999 522.538C401.481 524.668 403.022 525.855 401.649 527.807C400.289 529.769 400.697 529.576 399.357 531.346C398.031 533.136 397.922 534.094 397.922 534.094C397.922 534.094 395.538 532.743 394.576 528.547C393.636 524.374 393.268 523.056 391.599 521.217C389.919 519.379 384.427 514.367 383.75 510.6C383.068 506.815 383.899 504.402 381.235 499.978C378.554 495.528 374.608 495.2 374.414 490.873C374.181 486.585 376.424 486.958 374.75 482.88C373.066 478.799 372.319 476.809 369.989 475.546C367.661 474.273 365.962 474.293 361.874 474.838C357.754 475.355 356.899 475.267 356.6 477.688C356.294 480.127 355.769 481.002 355.074 479.974C354.395 478.946 350.477 474.017 348.947 469.167C347.419 464.338 346.973 463.454 345.257 460.97C343.513 458.502 342.089 454.925 341.711 453.258C341.321 451.597 336.949 446.363 336.764 443.664C336.57 440.961 335.348 434.159 332.812 429.052C330.284 423.906 327.797 422.085 327.488 419.62C327.17 417.183 324.821 414.677 323.99 411.217C323.163 407.775 322.482 404.965 320.731 401.258C318.969 397.506 319.356 399.626 319.229 395.784C319.118 391.941 317.964 389.15 317.071 387.896C316.151 386.658 316.739 385.527 317.184 385.965C317.63 386.414 319.404 385.969 319.922 387.397C320.431 388.837 322.462 389.849 324.401 389.891C326.349 389.91 331.283 388.755 329.681 383.03C328.053 377.286 324.391 377.361 322.645 378.072C320.912 378.804 319.518 381.299 318.907 382.584C318.309 383.895 317.16 385.611 316.417 384.843C315.686 384.07 315.438 384.9 314.904 383.488C314.414 382.039 314.259 381.461 313.658 380.031C313.047 378.581 311.285 375.824 310.507 372.121C309.721 368.41 308.273 364.568 307.805 361.466C307.364 358.357 307.058 354.473 304.932 348.64C302.807 342.79 302.44 337.832 300.911 333.443C299.384 329.065 296.784 323.842 295.858 318.52C294.961 313.173 290.319 306.143 290.6 304.302C290.863 302.497 290.162 297.04 288.411 287.984C286.638 278.946 283.711 273.562 282.899 267.269C282.111 260.979 281.378 253.918 281.273 252.116C281.194 250.313 280.505 247.526 282.766 240.97C285.048 234.394 289.673 225.88 279.833 217.724C269.977 209.571 262.257 210.887 258.265 216.761C254.26 222.642 252.624 226.839 252.44 235.403C252.243 244.005 254.796 248.133 259.097 249.785C263.392 251.424 268.318 256.589 272.45 259.088C276.572 261.584 276.292 262.073 276.389 265.187C276.488 268.329 277.815 276.482 278.818 279.452C279.835 282.394 279.103 283.396 279.086 287.037C279.079 290.691 282.172 297.04 283.115 300.9C284.047 304.72 285.137 312.214 285.457 315.579C285.763 318.908 287.168 321.698 288.896 326.465C290.622 331.248 291.239 334.392 290.632 337.02C290.02 339.662 289.539 342.124 288.076 342.819C286.596 343.502 284.965 346.826 283.943 348.403C282.922 349.965 281.593 352.634 280.707 353.959C279.835 355.316 279.78 355.564 278.642 357.295C277.492 359.015 276.8 360.309 277.727 360.941C278.669 361.589 279.571 361.06 280.205 358.327C280.822 355.597 282.907 351.389 283.462 350.43C284.007 349.468 285.769 346.352 287.114 344.93C288.457 343.512 288.062 343.264 289.933 343.278C291.792 343.308 292.002 344.481 293.171 345.769C294.334 347.076 295.553 349.905 295.154 351.05C294.742 352.232 293.799 353.915 294.554 354.498C295.328 355.103 296.16 356.76 297.252 359.305C298.352 361.831 298.469 362.998 299.697 366.251C300.907 369.528 300.91 369.969 301.908 373.072C302.876 376.229 304.108 379.922 305.258 381.675C306.426 383.402 306.453 384.135 304.322 384.146C302.191 384.173 300.613 383.68 299.494 386.124C298.385 388.567 298.56 389.477 296.999 389.718C295.45 389.953 294.551 391.374 292.005 388.909C289.488 386.439 285.799 386.169 285.939 385.033C286.064 383.909 286.398 381.746 285.64 381.518C284.899 381.27 283.428 381.522 282.275 380.665C281.093 379.818 280.36 379.578 277.652 378.434C274.942 377.28 273.73 374.463 271.675 375.381C269.635 376.304 270.543 374.902 268.085 378.299C265.629 381.723 266.314 384.099 263.499 386.733C260.656 389.387 259.96 391.549 259.824 394.011C259.708 396.433 260.391 397.389 262.284 400.433C264.17 403.469 266.584 408.293 268.814 409.186C271.039 410.061 272.006 410.157 273.799 410.515C275.59 410.862 278.043 411.461 281.475 414.345C284.905 417.233 285.095 418.085 287.761 418.522C290.427 418.96 291.107 418.212 292.962 416.003C294.821 413.781 297.562 404.825 297.804 403.62C298.038 402.424 297.858 398.463 299.673 398.216C301.496 397.961 303.67 399.102 304.994 398.746C306.298 398.388 307.18 397.57 308.667 397.617C310.185 397.638 310.738 398.004 310.979 399.476C311.203 400.937 311.721 402.831 312.78 404.647C313.87 406.436 315.311 406.645 314.791 408.842C314.271 411.055 317.067 412.214 317.048 413.637C317.037 415.079 317.615 416.098 318.181 417.778C318.737 419.491 319.074 421.767 320.293 424.597C321.51 427.432 324.279 431.886 324.855 433.842C325.442 435.823 325.15 435.58 325.922 439.736C326.7 443.89 327.972 446.01 329.109 447.03C330.217 448.06 332.021 449.287 332.532 452.148C333.011 455.012 335.661 457.388 336.639 458.295C337.618 459.197 337.778 461.532 338.458 463.969C339.122 466.438 340.005 467.406 341.229 469.666C342.476 471.977 344.949 475.102 346.357 478.773C347.786 482.425 347.991 480.878 348.461 486.108C348.924 491.362 349.755 493.05 350.442 497.256C351.114 501.472 351.304 501.439 349.993 504.911C348.685 508.378 348.304 507.575 347.139 509.505C345.963 511.374 346.354 512.087 345.057 514.155C343.769 516.194 342.109 517.815 341.194 518.89C340.279 519.954 342.555 520.999 342.887 522.959C343.202 524.882 343.399 527.638 341.848 530.057C340.312 532.476 340.057 531.963 338.97 532.689C337.877 533.435 337.658 534.558 335.848 535.258C334.059 535.985 334.45 537.012 333.533 537.421C332.618 537.819 331.575 537.146 330.849 539.015C330.124 540.9 329.499 540.996 330.541 543.581C331.569 546.161 333.591 546.656 335.033 546.609C336.451 546.538 338.116 545.431 339.223 546.341C340.332 547.278 341.908 547.718 341.002 548.738C340.077 549.735 336.915 552.059 335.551 554.166C334.176 556.248 334.139 558.263 333.756 560.801C333.365 563.337 333.462 567.625 334.338 569.785C335.215 571.987 337.858 574.774 340.274 576.905C342.698 579.029 344.663 579.898 345.808 580.129C346.941 580.351 349.52 580.497 351.439 581.59C353.353 582.682 354.863 581.055 356.061 579.77C357.263 578.471 358.171 576.273 359.745 576.115C361.314 575.944 361.695 574.023 363.759 572.506C365.839 571.036 365.835 568.688 367.858 568.597C369.886 568.518 372.515 566.658 372.02 564.924C371.539 563.164 371.494 559.25 370.761 558.151C370.019 557.049 368.901 555.522 369.205 554.051C369.5 552.588 368.75 550.398 370.429 550.271C372.108 550.129 374.478 550.122 376.213 553.305C377.945 556.497 379.37 555.956 379.154 560.046C378.927 564.137 380.279 565.127 381.733 565.524C383.211 565.93 384.621 565.28 385.935 563.527C387.218 561.753 387.062 559.603 388.737 561.214C390.431 562.863 393.443 566.769 395.469 569.193C397.479 571.587 399.521 575.662 402.072 578.307C404.629 580.933 409.214 583.532 410.347 587.988C411.481 592.49 413.215 596.275 416.613 599.435C420.021 602.583 423.168 603.413 425.201 608.114C427.242 612.766 426.952 614.844 427.947 617.067C428.931 619.28 434.535 625.006 439.192 627.804C443.837 630.618 446.401 632.67 448.267 633.991C450.139 635.278 451.873 637.292 452.172 639.377C452.48 641.438 452.005 645.626 454.478 646.331C456.941 647.049 457.504 645.977 460.643 648.633C463.8 651.254 463.474 651.664 465.332 654.884C467.18 658.101 466.173 657.278 467.862 660.592C469.591 663.898 470.817 666.646 473.584 667.066C476.35 667.486 476.825 666.258 477.555 664.286C478.304 662.305 475.836 660.501 474.173 657.475C472.538 654.411 471.422 652.879 469.859 651.758C468.313 650.617 466.529 648.837 465.07 646.651C463.592 644.475 460.014 641.619 460.069 640.124C460.14 638.582 462.419 634.301 462.581 630.428C462.75 626.547 459.574 622.254 456.048 623.319C452.513 624.413 455.006 627.991 454.412 629.182C453.824 630.344 451.75 630.643 451.457 629.755C451.169 628.884 446.99 623.063 442.502 618.056C438.072 613.032 427.076 600.307 423.752 595.024C420.409 589.751 415.126 581.104 410.994 576.262C406.864 571.428 403.135 568.796 401.693 565.794C400.272 562.795 393.449 555.407 392.558 553.938C391.674 552.446 392.465 546.571 393.653 545.959C394.841 545.377 394.289 544.572 395.796 545.915C397.293 547.27 405.451 553.981 406.273 557.003C407.105 559.996 408.393 561.215 410.762 564.876C413.116 568.552 416.081 574.458 417.345 576.466C418.606 578.498 422.697 584.765 425.891 587.76C429.093 590.763 431.285 593.445 432.229 592.317C433.164 591.197 428.098 584.391 427.151 582.091C426.175 579.749 421.564 571.278 420.259 570.168C418.919 569.083 413.763 561.663 413.233 559.55C412.706 557.439 411.329 554.794 410.714 553.731C410.097 552.647 408.75 551.087 409.663 550.662C410.576 550.252 412.326 549.757 413.52 550.372C414.709 550.96 417.845 550.036 420.232 546.945C422.623 543.875 423.877 541.63 423.257 534.063C422.616 526.453 419.89 525.932 418.713 524.725C417.512 523.573 414.19 523.032 412.74 523.208C411.27 523.397 410.726 523.139 410.812 522.111C410.902 521.058 411.247 519.334 410.977 517.763C410.689 516.169 410.021 511.745 410.232 510.645C410.464 509.5 410.104 508.337 410.145 505.171C410.186 501.974 409.411 500.41 409.178 499.186C408.963 497.954 408.856 494.265 406.352 493.287C403.799 492.302 401.864 491.915 401.632 490.221C401.352 488.515 397.183 482.713 397.399 481.567C397.631 480.422 395.488 478.124 395.302 477.247C395.126 476.369 395.84 472.143 395.696 469.867C395.552 467.574 392.039 463.211 390.563 461.135C389.056 459.085 389.651 457.411 389.437 454.193C389.253 450.934 386.885 444.324 389.84 444.427C392.772 444.538 395.383 447.554 397.004 447.743C398.625 447.931 401.91 448.112 402.876 449.141C403.857 450.174 409.4 449.724 410.712 450.213C412.03 450.714 417.092 449.105 419.261 446.566C421.423 444.03 422.423 441.403 420.81 436.34C419.207 431.292 410.894 421.823 401.715 421.435C392.573 421.045 393.758 423.999 391.944 425.431C390.118 426.837 387.009 428.241 386.417 430.613C385.832 432.981 387.023 434.78 385.589 436.008C384.149 437.267 383.63 437.51 381.552 436.046C379.476 434.563 378.605 432.389 378.144 431.128C377.684 429.831 373.672 421.956 374.316 420.546C374.963 419.127 375.687 418.431 374.697 416.823C373.718 415.198 370.918 414.997 370.569 413.157C370.219 411.306 367.475 404.843 367.6 401.9C367.694 398.973 365.952 392.22 366.156 390.583C366.35 388.975 367.645 386.644 368.471 384.213C369.316 381.747 371.681 376.421 371.235 373.871C370.801 371.284 369.041 367.616 369.032 365.224C369.013 362.891 367.387 359.244 367.716 358.137C368.058 357.005 370.065 353.382 371.115 351.092C372.176 348.816 372.565 343.226 371.219 342.233C369.862 341.241 368.415 339.667 367.409 340.522C366.408 341.409 365.296 343.442 364.109 342.834C362.933 342.256 363.258 342.301 361.558 343.165C359.859 344.008 359.87 344.488 359.062 346.234C358.25 347.963 356.723 349.683 354.547 348.756C352.355 347.861 350.674 345.53 351.515 344.86C352.359 344.185 354.457 341.983 353.32 341.172C352.171 340.352 350.991 339.784 351.028 338.371C351.016 336.932 352.128 335.952 352.752 334.913L352.752 334.913Z" fill="#6B3BE7" fill-opacity="0.75"/>
<path fill-rule="evenodd" clip-rule="evenodd" d="M460.958 401.616C461.328 399.759 460.102 396.319 458.079 397.448C456.05 398.595 452.869 401.781 453.498 404.364C454.168 406.918 457.418 407.816 459.202 406.62C460.611 405.697 460.762 403.783 460.865 402.484L460.865 402.483C460.892 402.142 460.916 401.843 460.958 401.616ZM473.706 414.89C473 413.04 466.199 410.187 464.494 412.296C463.777 413.169 462.998 413.582 462.225 413.991C461.157 414.557 460.101 415.117 459.234 416.879C458.196 418.981 458.944 420.147 459.805 421.489C460.188 422.087 460.594 422.72 460.875 423.487C461.784 425.973 463.942 429.339 466.493 428.694C469.046 428.06 476.853 422.919 473.706 414.89ZM478.386 460.885C478.43 460.975 478.472 461.063 478.514 461.147L478.514 461.146C479.596 463.351 479.6 465.626 479.604 468.813C479.605 469.134 479.605 469.464 479.607 469.805C479.65 473.482 478.023 477.354 476.556 480.846L476.505 480.967C475.042 484.517 471.271 488.001 466.637 490.021C462.028 492.044 459.428 489 456.046 484.74C452.683 480.487 452.866 475.532 454.834 469.528C456.629 464.038 456.702 463.96 459.292 461.21C459.544 460.942 459.82 460.649 460.124 460.323C460.806 459.588 461.381 458.907 461.906 458.285L461.906 458.284C464 455.801 465.311 454.248 469.59 453.88C474.739 453.411 477.165 458.383 478.386 460.885ZM484.481 483.332C484.221 482.359 484.091 481.513 483.985 480.817C483.727 479.128 483.604 478.323 482.075 478.737C479.894 479.343 477.979 479.996 477.446 482.696C477.343 483.208 477.231 483.678 477.127 484.113L477.125 484.121L477.125 484.121C476.677 485.991 476.377 487.246 477.549 488.605C479.014 490.295 482.85 489.029 483.606 487.747C484.367 486.514 484.779 484.415 484.481 483.332ZM488.052 489.285C488.358 488.213 486.128 487.336 486.084 488.258C486.029 489.151 487.63 490.736 488.052 489.285ZM491.388 501.459C491.332 499.637 489.716 497.046 488.763 498.5C487.847 499.999 486.977 501.759 487.825 502.678C488.678 503.61 491.443 503.149 491.388 501.459ZM487.585 507.132C487.925 505.438 485.78 505.879 485.681 506.342C485.585 506.843 487.277 508.738 487.585 507.132ZM488.921 526.832C489.381 525.274 488.707 524.127 486.966 523.772C485.251 523.431 482.636 526.228 482.954 527.313C483.236 528.412 484.376 531.707 486.63 529.978C488.534 528.53 488.6 528.229 488.779 527.415C488.816 527.247 488.858 527.058 488.921 526.832ZM488.207 536.923C492.813 538.246 500.321 544.15 502.313 547.165L502.313 547.164C503.672 549.174 503.822 551.138 503.949 552.791C503.961 552.951 503.973 553.108 503.986 553.261C503.996 553.378 504.006 553.492 504.017 553.605C504.175 555.421 503.313 559.741 502.721 562.699C502.131 565.652 503.056 567.478 508.749 572.335C514.468 577.164 519.289 587.075 519.66 592.921C519.851 595.809 519.406 598.417 519.017 600.694C518.619 603.018 518.281 604.997 518.738 606.577C519.613 609.509 518.666 614.191 518.265 616.175L518.265 616.176C518.238 616.312 518.213 616.435 518.191 616.545C517.837 618.296 518.587 621.644 520.365 623.034C521.646 624.016 521.755 624.179 522.252 624.93C522.441 625.216 522.687 625.588 523.076 626.122C524.489 628.051 522.817 634.514 520.611 636.631C518.975 638.209 517.867 636.733 516.667 635.134C516.246 634.573 515.813 633.996 515.342 633.531C513.488 631.79 513.91 629.061 514.798 627.191C515.178 626.385 515.545 626.118 515.797 625.935C516.131 625.692 516.26 625.598 515.946 624.589C515.775 624.039 515.558 623.653 515.328 623.241C514.817 622.329 514.235 621.289 513.908 618.053C513.613 615.153 513.44 615.098 512.266 614.725C511.538 614.494 510.425 614.141 508.66 612.912C504.754 610.182 502.64 614.155 501.406 616.472C501.185 616.889 500.991 617.252 500.821 617.513C500.401 618.162 500.279 618.934 500.156 619.713C499.959 620.959 499.758 622.226 498.331 623.046C496.01 624.385 494.122 620.918 494.52 617.028C494.798 614.22 495.085 613.425 495.595 612.01L495.595 612.009L495.596 612.008C495.79 611.469 496.017 610.84 496.288 609.975C497.163 607.26 495.025 605.876 490.028 602.642L490.027 602.641C489.208 602.111 488.312 601.531 487.34 600.887C480.439 596.338 480.149 590.647 482.069 584.873C483.961 579.115 484.016 577.578 481.519 574.009C480.671 572.802 479.636 571.614 478.533 570.346C476.403 567.9 474.017 565.16 472.225 561.422C469.501 555.772 468.527 549.686 468.953 545.025C469.318 540.619 472.581 539.195 477.565 537.021C477.714 536.956 477.865 536.89 478.018 536.823C478.146 536.767 478.275 536.711 478.405 536.654C482.508 534.871 483.376 535.202 485.513 536.016L485.513 536.017C486.219 536.286 487.063 536.607 488.207 536.923ZM541.688 616.583C538.592 614.675 536.12 610.464 534.307 607.376C533.229 605.54 532.385 604.102 531.781 603.782C530.172 602.943 527.866 605.68 527.256 611.424C526.754 616.16 528.168 619.207 529.56 622.205C529.857 622.843 530.152 623.48 530.428 624.129C532.001 627.806 536.222 631.656 539.019 630.096C541.819 628.495 546.497 624.636 546.731 621.668C546.913 619.222 544.257 617.894 542.596 617.064L542.596 617.063C542.232 616.881 541.916 616.723 541.688 616.583L541.688 616.583ZM575.972 645.394C578.577 646.622 583.711 651.823 584.687 657.046C584.82 657.746 586.137 658.479 587.521 659.251C587.981 659.508 588.449 659.769 588.884 660.034C590.62 661.08 593.41 665.909 593.41 669.456C593.409 671.598 591.636 672.347 589.642 673.189C588.321 673.747 586.903 674.346 585.84 675.418C583.176 678.083 577.324 675.335 572.394 671.505C568.314 668.35 568.237 665.863 568.121 662.145C568.097 661.366 568.071 660.533 568.007 659.628C567.908 658.356 567.756 656.989 567.604 655.619C567.132 651.364 566.657 647.083 567.764 645.555C569.227 643.508 573.369 644.146 575.972 645.394Z" fill="#6B3BE7" fill-opacity="0.75"/>
<path fill-rule="evenodd" clip-rule="evenodd" d="M336.937 268.65C338.794 267.411 342.092 269.761 344.302 272.753C345.836 274.844 345.298 277.574 344.254 278.436C343.297 279.208 340.545 277.217 338.724 275.899C338.491 275.73 338.273 275.573 338.076 275.433C336.388 274.19 335.104 269.88 336.937 268.65ZM424.212 338.643C427.095 336.914 435.27 339.146 438.088 340.92L438.088 340.92C444.08 344.649 445.035 355.026 432.347 353.671C419.659 352.317 421.327 340.382 424.212 338.643ZM432.807 365.338C430.488 359.038 428.978 355.526 423.061 357.396C417.135 359.244 409.423 366.728 410.538 372.724C410.668 373.424 410.789 374.16 410.911 374.909L410.911 374.91C411.839 380.589 412.892 387.03 419.341 384.406C426.629 381.463 429.948 379.817 431.557 375.249L431.697 374.851L431.799 374.561L431.803 374.549C433.231 370.5 433.968 368.412 432.807 365.338L432.807 365.338ZM393.872 345.824C402.424 344.751 405.252 351.83 405.389 355.509L405.389 355.508C405.53 359.476 402.769 362.856 396.283 366.431C389.787 370.007 383.408 365.96 384.813 358.853C385.045 357.685 385.215 356.58 385.374 355.543L385.375 355.541L385.375 355.54C386.189 350.245 386.729 346.737 393.872 345.824ZM608.898 674.65C607.615 672.749 605.46 671.348 603.78 670.255C602.777 669.603 601.944 669.061 601.566 668.588C600.581 667.328 598.938 667.53 598.144 667.914C597.365 668.286 595.689 670.431 597.866 671.054C600.083 671.67 600.709 671.978 602.033 673.482C603.079 674.7 603.504 675.551 604.382 677.305L604.387 677.315C604.59 677.721 604.818 678.176 605.083 678.695C605.869 680.237 607.732 681.163 609.631 682.107C611.121 682.848 612.634 683.6 613.666 684.669C616.029 687.086 617.244 688.201 619.286 688.609C619.711 688.691 620.131 688.803 620.52 688.907C622.002 689.302 623.028 689.575 622.149 687.596C621.042 685.03 618.847 681.771 616.588 680.617C615.166 679.883 614.124 679.013 613.308 678.333C612.833 677.937 612.434 677.604 612.083 677.401C611.123 676.877 609.323 675.249 608.898 674.65ZM634.032 697.671C634.365 698.385 634.68 699.061 635.11 699.35C636.208 700.121 636.123 702.229 634.772 702.826C633.404 703.46 632.252 702.136 631.307 700.565C630.39 698.956 628.848 695.988 628.848 695.988C628.848 695.988 630.624 695.088 632.148 695.404C633.058 695.581 633.563 696.663 634.032 697.671ZM662.895 736.667C661.562 733.43 660.633 732.834 659.335 732.229C658.027 731.622 655.882 733.493 656.87 735.661C657.373 736.738 658.01 737.126 658.647 737.514C659.282 737.901 659.918 738.288 660.421 739.361C661.403 741.548 664.278 742.273 664.544 740.909C664.755 739.844 663.821 738.269 663.261 737.325C663.09 737.035 662.953 736.805 662.895 736.667ZM520.762 519.238C520.762 519.238 525.415 508.57 529.342 510.83C530.613 511.556 535.67 515.64 537.174 519.905C538.462 523.571 537.618 525.164 536.181 527.873C535.926 528.354 535.652 528.87 535.368 529.439C533.508 533.181 527.65 532.914 524.429 531.618C521.193 530.322 520.762 519.238 520.762 519.238ZM535.099 510.746C533.986 508.499 538.251 500.896 539.963 503.332C541.698 505.75 540.904 509.559 540.015 511.612C539.131 513.651 537.284 516.302 536.612 515.031C536.249 514.394 536.066 513.711 535.87 512.982C535.682 512.28 535.482 511.535 535.099 510.746ZM635.292 578.061C636.307 576.487 644.043 568.545 648.614 575.372C648.793 575.641 649.007 575.946 649.244 576.283L649.248 576.288L649.248 576.289C651.18 579.04 654.616 583.934 652.745 588.617C650.639 593.886 643.386 591.011 638.457 588.994C633.542 586.955 634.276 579.635 635.292 578.061ZM671.389 580.592C671.485 577.644 667.001 575.809 665.895 577.749C664.827 579.64 665.157 581.489 667.484 582.311C669.812 583.133 671.322 582.707 671.389 580.592ZM582.805 518.303C585.33 516.307 592.356 516.546 590.416 522.995C589.373 526.361 584.062 528.129 582.262 526.365C580.497 524.607 580.286 520.285 582.805 518.303Z" fill="#6B3BE7" fill-opacity="0.75"/>
<path fill-rule="evenodd" clip-rule="evenodd" d="M431.57 704.404C436.153 706.39 440.95 711.772 442.466 714.035L442.467 714.035C443.304 715.255 444.476 723.658 443.448 728.8C442.437 733.922 438.757 736.39 436.504 737.009C434.245 737.641 423.43 734.791 417.482 728.997C411.509 723.2 414.098 719.095 414.098 719.095C414.098 719.095 417.239 712.237 420.375 710.711C422.329 709.787 422.272 708.578 422.181 706.642C422.126 705.47 422.058 704.032 422.416 702.228C423.066 698.965 424.971 700.265 427.576 702.042C428.777 702.861 430.126 703.782 431.57 704.404ZM473.382 695.698C473.101 692.823 470.145 688.319 469.023 688.095C467.914 687.881 465.318 689.24 464.057 690.303C462.773 691.401 460.858 695.27 461.592 696.936C462.044 697.936 462.908 698.625 463.843 699.372C464.454 699.861 465.097 700.375 465.675 701.016C467.133 702.65 468.673 703.837 469.518 703.126C469.548 703.1 469.581 703.072 469.617 703.041L469.628 703.031C470.62 702.172 473.737 699.473 473.382 695.698Z" fill="#6B3BE7" fill-opacity="0.75"/>
<path fill-rule="evenodd" clip-rule="evenodd" d="M316.077 70.4483C315.515 64.3845 312.227 59.3767 309.684 57.835C307.152 56.245 302.977 53.9924 299.228 56.8084C295.469 59.6257 291.405 73.0242 294.285 78.2093C295.622 80.6094 296.88 81.8585 297.853 82.8255C298.984 83.9488 299.731 84.6914 299.775 86.4156C299.8 87.5044 299.44 88.8869 299.047 90.395C298.282 93.328 297.394 96.7362 298.982 99.3835C301.381 103.442 306.086 108.279 309.853 107.24C313.606 106.212 318.043 99.9793 317.417 95.9317C317.112 93.9705 315.751 92.2243 314.435 90.5353C313.053 88.7611 311.72 87.0501 311.712 85.2194C311.714 83.7534 312.546 82.0351 313.486 80.0926C314.831 77.3107 316.4 74.0688 316.077 70.4489L316.077 70.4483ZM313.422 117.525C313.048 115.336 311.497 111.987 309.969 112.057C308.446 112.113 306.401 112.599 305.242 115.291C304.094 118.013 304.072 118.089 304.74 120.968C305.23 123.056 305.79 123.809 306.521 124.794C306.806 125.176 307.116 125.594 307.458 126.138C308.661 128.067 311.228 129.014 311.996 126.93C312.782 124.873 313.975 120.94 313.422 117.525ZM325.914 138.319C319.648 130.041 315.554 132.783 313.607 134.986L313.607 134.986C311.044 137.905 311.573 140.426 311.926 142.114C312.031 142.612 312.12 143.039 312.11 143.38C312.097 144.193 312.694 144.894 313.379 145.698C313.968 146.39 314.622 147.157 315.009 148.137C315.362 149.047 316.168 149.597 317.077 150.218C318.271 151.032 319.645 151.97 320.413 154.004C321.112 155.821 323.115 156.62 324.478 157.164C324.84 157.309 325.157 157.435 325.392 157.558C325.782 157.762 326.005 157.743 326.24 157.723C326.692 157.684 327.189 157.641 328.995 159.171C331.732 161.493 333.406 160.133 335.03 158.661C335.171 158.536 335.312 158.412 335.454 158.289L335.455 158.287L335.456 158.286C336.951 156.98 338.41 155.705 338.296 153.891C338.155 151.924 338.041 151.559 336.564 150.552C335.905 150.105 335.023 149.702 334.159 149.307L334.159 149.307L334.159 149.307C333.044 148.797 331.958 148.301 331.424 147.743C331.142 147.455 331.089 147.235 331 146.863C330.784 145.961 330.353 144.163 325.914 138.319ZM317.255 158.71C316.987 158.007 317.069 157.44 317.142 156.933C317.26 156.115 317.356 155.451 315.927 154.616C315.213 154.199 314.662 153.773 314.189 153.407L314.189 153.407C313.134 152.592 312.469 152.078 311.259 152.632C309.962 153.227 309.5 154.735 309.07 156.139C308.922 156.625 308.777 157.098 308.603 157.516C308.22 158.438 308.587 159.471 308.979 160.572C309.291 161.449 309.619 162.369 309.594 163.311C309.562 164.378 309.689 165.765 309.801 166.992L309.801 166.992C309.912 168.202 310.008 169.255 309.923 169.686C309.75 170.542 309.557 173.32 310.672 173.997C310.907 174.141 311.187 174.347 311.498 174.575C312.642 175.415 314.204 176.561 315.479 176.108C315.836 175.983 316.158 175.889 316.452 175.804C317.502 175.498 318.199 175.295 318.926 174.125C319.196 173.675 319.553 173.242 319.917 172.8C320.768 171.767 321.658 170.687 321.573 169.238C321.546 168.816 321.549 168.39 321.552 167.968C321.564 166.312 321.576 164.712 319.737 163.641C318.017 162.638 317.717 160.962 317.498 159.742C317.425 159.332 317.361 158.974 317.255 158.71L317.255 158.71ZM324.552 195.209C324.552 195.209 332.159 197.296 334.887 200.532L334.887 200.532C335.124 200.808 335.444 201.256 335.831 201.798C336.706 203.02 337.919 204.717 339.272 205.97C340.735 207.353 340.226 208.672 339.765 209.866C339.618 210.248 339.475 210.617 339.403 210.972C339.216 211.895 339.589 212.887 340.052 214.119C340.327 214.851 340.634 215.669 340.875 216.608C341.507 218.95 337.42 223.267 334.037 226.842C333.812 227.08 333.59 227.314 333.372 227.545C329.865 231.247 323.861 229.76 320.502 228.741C317.189 227.696 313.35 224.853 311.827 220.026C310.277 215.231 310.462 208.601 313.935 201.152C317.414 193.715 324.552 195.209 324.552 195.209Z" fill="#6B3BE7" fill-opacity="0.75"/>
<path fill-rule="evenodd" clip-rule="evenodd" d="M292.504 426.776C290.844 424.28 288.478 422.066 287.315 422.531C286.146 423.014 285.405 430.352 286.231 431.572C287.053 432.776 290.472 435.246 292.194 433.809C293.878 432.39 293.327 427.991 292.504 426.776ZM381.19 704.203C381.454 703.73 381.798 704.232 382.102 705.014C382.102 705.014 381.849 705.769 381.454 705.595C381.034 705.417 380.912 704.683 381.19 704.203ZM381.853 716.501C381.872 715.649 381.463 714.479 381.089 715.459C380.711 716.47 380.306 717.554 381.019 717.599C381.724 717.651 381.847 717.044 381.853 716.501ZM381.449 720.788C382.054 720.827 382.526 721.892 382.243 722.553C382.075 722.961 380.984 723.534 380.776 722.796C380.576 722.045 380.827 720.755 381.449 720.788ZM381.875 727.186C382.295 726.432 381.198 725.625 380.955 726.384C380.725 727.147 381.751 727.421 381.875 727.186ZM381.225 729.095C381.225 729.095 381.89 728.96 382.045 729.522L381.962 729.954C381.864 730.371 381.225 729.095 381.225 729.095ZM382.152 734.333C381.804 733.468 381.263 733.893 381.337 734.447C381.348 734.555 381.355 734.711 381.363 734.889L381.363 734.892L381.363 734.893C381.392 735.588 381.436 736.612 381.835 736.397C382.322 736.143 382.378 735.518 382.359 735.092C382.362 734.632 382.152 734.333 382.152 734.333ZM382.58 755.472C382.819 755.178 383.119 755.414 383.138 756.29L382.962 756.705C382.962 756.705 382.327 755.792 382.58 755.472ZM296.03 444.863C296.03 444.863 304.866 444.465 310.114 447.307L310.114 447.307C314.278 449.545 319.576 455.207 319.491 460.888C319.446 466.577 315.201 469.99 310.016 472.87C304.831 475.751 300.259 475.551 295.049 471.323C289.837 467.112 284.975 462.938 284.707 458.973C284.434 455.022 296.03 444.863 296.03 444.863ZM315.705 485.111L315.705 485.11C314.969 483.692 314.515 482.817 313.018 483.944C312.979 483.974 312.939 484.003 312.9 484.032C312.84 484.076 312.78 484.12 312.721 484.163L312.591 484.258L312.415 484.385C310.836 485.53 309.732 486.33 310.424 488.064C310.537 488.348 310.641 488.635 310.742 488.915C311.315 490.509 311.806 491.87 313.548 491.065C315.605 490.138 317.551 488.328 316.298 486.198C316.072 485.818 315.881 485.449 315.705 485.111ZM329.601 515.825C329.601 515.825 334.3 515.661 336.179 516.777C337.764 517.717 338.061 519.372 338.245 521.07C338.435 522.808 336.042 525.96 334.252 528.192C332.669 530.193 330.821 530.569 328.252 531.091C327.964 531.149 327.668 531.21 327.362 531.274C324.293 531.933 320.605 529.499 319.48 523.051C318.336 516.611 329.601 515.825 329.601 515.825ZM303.061 512.096L303.061 512.096C302.909 511.206 302.815 510.657 302.051 510.565C300.92 510.427 299.918 511.467 298.942 512.87L298.836 513.019C297.879 514.363 297.095 515.465 299.877 516.167C302.738 516.903 303.898 515.107 303.394 513.579L303.394 513.58C303.218 513.017 303.133 512.519 303.061 512.098L303.061 512.097L303.061 512.097L303.061 512.096ZM276.8 507.073C277.972 506.146 284.808 508.582 285.778 511.524L285.778 511.524C286.753 514.379 286.103 515.412 285.132 516.955L285.131 516.955C284.972 517.209 284.803 517.476 284.632 517.768C283.432 519.827 281.497 521.499 278.807 520.786C276.101 520.089 272.724 518.775 271.641 515.736C270.554 512.68 275.649 507.997 276.8 507.073ZM285.702 530.773C285.596 529.71 284 527.691 282.871 528C281.749 528.3 280.599 528.701 280.765 530.598C280.926 532.508 281.503 533.574 283.083 533.266C284.648 532.984 285.839 531.958 285.702 530.773ZM295.694 542.642C296.169 543.08 296.647 543.521 297.046 543.5L297.046 543.5C297.071 543.499 297.095 543.499 297.119 543.498C297.167 543.496 297.213 543.494 297.258 543.493L297.26 543.492C297.924 543.465 298.288 543.45 298.013 544.932C297.688 546.541 297.257 546.568 295.306 546.69L295.176 546.698C293.114 546.812 293.113 544.067 293.814 542.341C294.233 541.295 294.96 541.966 295.694 542.642ZM325.488 619.987L325.488 619.987C324.12 618.588 323.017 617.461 321.417 618.304C321.145 618.45 320.878 618.585 320.619 618.716L320.618 618.716C318.8 619.636 317.397 620.346 317.677 622.884C317.978 625.807 322.324 628.984 322.98 629.28C323.151 629.358 323.5 629.75 323.956 630.262C325.249 631.716 327.402 634.136 328.799 633.086C330.677 631.697 330.084 623.947 327.995 621.914C325.925 619.924 327.141 621.544 327.161 621.57L327.162 621.571C326.541 621.063 325.997 620.506 325.488 619.987ZM318.715 631.55C318.74 631.588 318.764 631.625 318.788 631.661L318.787 631.661C318.868 631.779 318.958 631.907 319.055 632.045C319.621 632.85 320.43 633.999 321.02 635.64C321.707 637.562 320.006 641.657 319.048 642.916C318.101 644.131 317.004 646.043 316.874 649.393C316.8 651.382 317.736 652.944 318.571 654.337C319.146 655.298 319.674 656.178 319.789 657.063C320.071 659.273 316.805 663.231 312.903 664.94C309.238 666.571 304.877 662.041 300.804 657.811C300.563 657.561 300.324 657.312 300.085 657.065C298.698 655.644 297.7 654.802 296.956 654.176C295.406 652.869 294.963 652.496 294.425 649.753C293.632 645.673 293.691 644.452 295.471 641.782C295.556 641.654 295.64 641.526 295.724 641.399C297.391 638.879 298.92 636.567 301.133 636.511C302.616 636.463 303.224 636.815 304.155 637.354C304.681 637.659 305.311 638.023 306.261 638.409C308.153 639.171 309.129 638.548 310.024 637.977C310.372 637.755 310.708 637.541 311.08 637.418C312.415 636.972 312.739 636.132 312.96 634.207C313.002 633.793 313.015 633.44 313.027 633.12C313.071 631.966 313.098 631.231 314.398 629.527C316.037 627.461 317.784 630.128 318.715 631.55Z" fill="#6B3BE7" fill-opacity="0.75"/>
<path fill-rule="evenodd" clip-rule="evenodd" d="M217.086 0.892513C216.594 1.91469 216.757 2.20244 217.209 3.0024ZM217.209 3.0024C217.265 3.10123 217.326 3.20787 217.39 3.32473ZM217.39 3.32473C217.976 4.37789 219.57 4.21056 219.657 3.76435ZM219.657 3.76435C219.746 3.29778 219.527 2.07914 219.166 1.46091ZM222.741 12.7155C221.218 11.5243 218.978 10.392 218.356 11.8463C217.76 13.2837 217.825 15.3497 219.578 16.0184C221.33 16.6715 222.546 16.912 222.872 15.255C222.95 14.8835 223.028 14.5822 223.093 14.3312C223.317 13.4702 223.388 13.2005 222.741 12.7155ZM224.972 27.7707C224.972 27.7707 227.547 28.5274 230.817 32.4024C231.464 33.1464 231.499 35.3592 231.463 38.6472C231.45 41.4126 230.712 42.1725 228.925 44.0143C228.596 44.3531 228.232 44.7287 227.83 45.1601C225.543 47.6091 223.514 46.9644 220.85 46.1181C220.475 45.9988 220.087 45.8756 219.684 45.7565C216.408 44.7866 215.933 40.1524 216.201 35.4783C216.507 30.8174 224.972 27.7707 224.972 27.7707ZM218.506 187.802C218.469 188.238 218.431 188.641 218.395 189.019L218.395 189.019C218.173 191.382 218.043 192.764 218.626 194.927C218.853 195.747 218.992 196.367 219.11 196.896C219.353 197.981 219.51 198.682 220.166 199.943C220.618 200.82 220.585 201.449 220.55 202.095C220.51 202.857 220.468 203.644 221.218 204.889C221.75 205.765 222.486 206.854 223.209 207.926C224.391 209.676 225.542 211.38 225.726 212.035C226.016 213.111 225.66 214.899 224.497 216.521C224.114 217.05 223.875 217.498 223.68 217.864C223.274 218.624 223.055 219.035 222.13 219.101C220.753 219.145 219.56 218.404 218.249 217.323C216.938 216.201 216.811 213.485 216.811 213.485C216.811 213.485 218.084 211.367 216.924 208.61C216.486 207.548 216.389 206.903 216.314 206.399C216.193 205.592 216.126 205.149 214.804 203.946C213.917 203.142 213.391 202.99 213.035 202.887C212.531 202.741 212.365 202.693 211.994 201.038C211.374 198.218 210.68 197.416 209.985 196.749C209.773 196.554 209.597 196.323 209.402 196.067L209.402 196.066L209.401 196.065C208.94 195.459 208.372 194.712 206.968 193.968C204.997 192.888 201.598 192.211 200.157 192.63C199.665 192.759 199.293 192.996 198.939 193.221C198.268 193.649 197.661 194.035 196.425 193.566C195.401 193.181 195.066 192.586 194.73 191.99C194.446 191.487 194.162 190.983 193.461 190.604C192.828 190.279 192.003 190.11 191.193 189.943C190.019 189.703 188.88 189.469 188.414 188.776C187.621 187.625 185.504 185.509 183.979 184.699C182.444 183.886 179.227 179.71 178.905 177.931C178.798 177.379 178.428 176.752 177.999 176.026C177.09 174.488 175.919 172.506 176.447 169.85C176.577 169.188 176.697 168.505 176.819 167.811L176.819 167.81L176.819 167.809L176.819 167.809C177.414 164.424 178.052 160.79 180.093 158.254C181.161 156.917 181.956 155.039 182.742 153.182C183.755 150.788 184.753 148.43 186.303 147.312C189.062 145.335 192.598 143.666 195.016 142.623C197.407 141.581 208.191 144.231 213.042 148.726C214.132 149.741 215.16 150.641 216.115 151.478C219.415 154.367 221.846 156.496 222.977 159.986C223.427 161.358 223.804 162.296 224.117 163.075C224.834 164.859 225.216 165.811 225.378 169.237C225.451 171.068 225.279 172.27 225.152 173.151C224.938 174.644 224.857 175.214 226.325 176.362C228.671 178.181 229.464 178.342 230.74 177.912C230.935 177.846 231.115 177.778 231.281 177.714C232.196 177.364 232.715 177.166 233.185 178.398C233.744 179.861 233.483 181.991 232.316 181.941C231.854 181.914 231.572 182.185 231.277 182.469C230.821 182.908 230.335 183.376 229.108 182.818C227.076 181.915 226.432 182.618 227.383 184.684C228.341 186.731 228.367 188.233 227.559 188.942C226.747 189.617 225.153 189.999 225.345 188.997C225.538 188.038 224.043 183.687 222.423 183.358C221.985 183.272 221.711 183.158 221.516 183.077C221.357 183.011 221.251 182.967 221.152 182.979C220.958 183.004 220.792 183.249 220.301 183.974C220.212 184.105 220.113 184.251 220.001 184.415C218.606 186.464 218.506 187.802 218.506 187.802L218.506 187.802ZM241.449 264.702C240.336 264.459 239.4 264.255 239.057 262.431C238.881 261.552 238.717 259.845 238.805 257.79C238.855 255.975 238.374 255.436 237.465 254.417C237.377 254.318 237.284 254.214 237.188 254.104C236.069 252.881 235.764 251.816 236.394 250.417C236.986 249.004 238.405 248.766 239.698 249.023C240.422 249.167 240.942 247.156 241.545 244.823C242.02 242.989 242.545 240.956 243.262 239.615C244.826 236.629 244.42 234.873 243.387 230.409L243.288 229.984C242.661 227.231 242.043 227.009 240.595 226.489C239.535 226.108 238.031 225.568 235.752 223.757C232.204 220.951 230.71 221.029 229.063 221.115C228.196 221.16 227.288 221.208 226.014 220.838C223.689 220.159 223.217 220.732 222.457 221.654C222.017 222.189 221.479 222.842 220.425 223.436C218.155 224.729 217.256 226.709 216.28 228.859C216.027 229.416 215.768 229.984 215.48 230.555C215.056 231.403 214.656 232.049 214.303 232.62C213.503 233.912 212.942 234.818 212.884 236.796C212.865 238.469 213.604 239.14 214.371 239.836C214.923 240.336 215.488 240.849 215.796 241.756C216.533 243.957 219.32 248.717 219.32 248.717C219.32 248.717 223.124 250.834 225.076 251.216C226.624 251.523 227.217 252.382 227.729 253.122C227.862 253.314 227.989 253.498 228.126 253.663C228.65 254.301 228.65 254.61 228.65 256.077L228.65 256.079C228.65 256.537 228.65 257.109 228.666 257.838C228.701 260.357 229.227 260.544 230.193 260.887C230.403 260.961 230.632 261.043 230.883 261.157C231.207 261.3 231.494 261.398 231.75 261.486C232.589 261.774 233.1 261.95 233.508 263.184C233.931 264.458 232.697 265.616 231.428 266.806L231.428 266.807C231.081 267.132 230.731 267.46 230.412 267.794C229.621 268.625 228.785 269.209 228.13 269.667C227.545 270.076 227.105 270.383 226.972 270.675C226.669 271.271 226.465 273.254 227.664 274.023C228.544 274.556 229.215 275.695 229.866 276.8C230.105 277.205 230.341 277.605 230.583 277.97C231.503 279.359 231.912 279.779 233.788 280.649C234.791 281.124 235.325 281.957 235.868 282.804C236.321 283.51 236.78 284.226 237.522 284.754C238.945 285.767 240.628 285.439 241.968 285.178C242.161 285.14 242.347 285.104 242.524 285.073C243.67 284.867 244.37 284.049 245.287 282.978C245.497 282.732 245.719 282.473 245.96 282.206C247.258 280.783 247.986 277.883 248.117 275.524C248.245 273.205 246.671 270.027 244.632 266.738C243.636 265.179 242.469 264.924 241.449 264.702ZM207.711 325.319C206.81 325.835 206.312 326.186 205.904 326.473C204.874 327.198 204.414 327.522 199.517 329.089C196.683 330 194.733 329.959 193.283 329.928C191.23 329.884 190.177 329.862 189.037 332.595C188.454 334.003 187.786 335.071 187.236 335.951C185.95 338.01 185.306 339.042 187.875 340.976C188.753 341.639 189.399 342.204 189.934 342.671C191.633 344.157 192.207 344.659 195.504 344.171C196.49 344.021 197.614 343.924 198.789 343.823L198.79 343.823L198.79 343.823L198.791 343.823L198.791 343.823L198.792 343.823L198.793 343.823L198.793 343.823L198.794 343.823L198.794 343.823L198.795 343.823L198.796 343.823L198.797 343.823L198.798 343.823C202.817 343.478 207.442 343.081 209.281 340.315C209.858 339.449 210.51 338.657 211.139 337.894C213.112 335.499 214.853 333.386 213.315 330.128C211.308 325.85 209.223 324.437 207.711 325.319ZM251.556 334.158C251.664 331.173 250.689 329.088 248.007 329.882C247.371 330.086 246.88 330.174 246.459 330.249C245.09 330.494 244.477 330.603 242.096 334.154C240.643 336.317 239.884 336.841 239.392 337.181C238.831 337.568 238.616 337.716 238.118 339.777C237.254 343.37 239.904 343.878 242.626 344.4L242.853 344.444L242.963 344.465L243.099 344.491L243.248 344.521C243.494 344.57 243.72 344.617 243.931 344.661C246.23 345.14 246.64 345.225 248.736 342.395C251.05 339.289 251.44 337.329 251.556 334.158ZM266.276 330.654C263.698 329.965 258.253 332.011 256.87 336.385C256.733 336.809 256.546 337.331 256.333 337.926L256.333 337.926L256.333 337.926C255.831 339.327 255.183 341.138 254.691 343.054C254.07 345.467 254.746 346.553 255.606 347.935C255.726 348.128 255.85 348.327 255.974 348.537C256.582 349.586 257.997 349.422 259.564 349.241C260.577 349.124 261.653 349 262.615 349.192C264.655 349.591 266.019 347.351 267.274 345.292C267.515 344.897 267.752 344.507 267.989 344.145C268.288 343.687 268.61 343.219 268.934 342.749C270.181 340.935 271.445 339.098 271.444 337.753C271.449 336.073 268.842 331.334 266.276 330.654ZM286.914 655.952C289.912 657.425 291.237 658.076 293.142 662.457L293.209 662.609L293.209 662.61L293.209 662.61C294.347 665.213 296.82 670.874 296.932 672.952C297.034 675.125 291.611 678.326 288.62 678.1C285.658 677.864 283.579 677.621 276.741 668.085C271.122 660.256 274.394 658.137 276.937 656.49C277.479 656.139 277.987 655.81 278.37 655.451C280.55 653.392 281.463 653.208 285.516 655.255C286.021 655.513 286.484 655.741 286.914 655.952ZM251.286 316.701C251.286 316.701 254.251 317.048 254.605 318.722C254.651 318.931 254.726 319.173 254.808 319.434L254.808 319.435L254.808 319.436L254.809 319.437C255.201 320.693 255.74 322.417 253.895 323.295C251.939 324.226 250.691 323.028 249.466 321.852C249.267 321.661 249.069 321.471 248.868 321.29C247.43 319.977 251.286 316.701 251.286 316.701ZM219.422 328.463C220.886 327.915 221.2 329.869 220.79 330.925C220.12 332.651 217.984 332.241 217.175 331.241C216.367 330.237 217.959 329.021 219.422 328.463ZM258.19 296.288C257.816 292.595 255.229 290.807 252.256 289.535C249.308 288.271 247.292 287.38 247.292 287.38C247.292 287.38 243.709 287.513 241.473 288.578C240.763 288.917 240.175 289.063 239.632 289.199C238.469 289.489 237.509 289.728 235.978 291.701C233.707 294.623 230.916 298.465 231.858 301.366C231.894 301.474 231.931 301.586 231.969 301.701C232.946 304.675 234.718 310.068 238.989 311.386C243.46 312.778 246.995 312.795 251.247 310.097C255.494 307.397 256.292 306.717 257.018 303.958C257.189 303.305 257.37 302.75 257.54 302.228C258.071 300.595 258.499 299.281 258.19 296.288ZM244.168 109.526C249.824 109.697 254.057 111.801 251.751 116.687C251.16 117.924 250.394 120.069 249.65 122.153C249.343 123.012 249.04 123.861 248.755 124.632C247.746 127.282 240.659 129.668 235.822 127.766C231.644 126.118 232.64 121.588 233.682 116.846C233.844 116.109 234.007 115.367 234.152 114.631C235.214 109.242 238.432 109.344 243.944 109.519L244.168 109.526ZM239.075 90.7925C238.845 88.2769 238.417 87.8797 237.152 86.7071C236.931 86.5026 236.685 86.2745 236.41 86.0075C235.44 85.0785 234.673 84.6166 234.018 84.2217C233.423 83.8636 232.92 83.5607 232.44 83.0147C231.409 81.885 233.97 78.477 235.006 77.2349C236.019 76.027 237.195 74.0688 236.296 70.7428C235.614 68.2836 234.939 67.5423 234.337 66.8822C234.126 66.6503 233.924 66.4284 233.734 66.1456C233.552 65.8722 233.257 65.495 232.918 65.0612L232.918 65.0604C231.92 63.7828 230.539 62.0138 230.509 60.9555C230.492 60.3118 230.159 59.158 229.795 57.8956C229.354 56.368 228.867 54.6812 228.839 53.5466C228.76 51.5024 225.85 48.7166 225.526 50.3799C225.341 51.3193 225.757 52.7817 226.167 54.2227C226.482 55.3305 226.793 56.4257 226.825 57.2612C226.93 59.1838 227.492 61.9309 227.898 62.9738C227.999 63.2143 228.145 63.447 228.292 63.6811C228.772 64.4443 229.261 65.222 228.205 66.3293C227.54 67.0087 227.537 67.0237 227.484 67.2921C227.425 67.5946 227.303 68.2188 226.099 70.4773C225.426 71.7556 224.791 72.6332 224.277 73.345C223.067 75.0168 222.52 75.7742 223.696 78.6609C224.513 80.6233 225.878 81.0801 227.108 81.4916C228.448 81.94 229.628 82.3346 229.763 84.5643C229.871 86.4675 229.161 87.5293 228.505 88.5096C227.68 89.7431 226.941 90.8478 228.029 93.3375C229.517 96.7723 230.838 97.3007 232.4 97.9262C232.876 98.1166 233.375 98.3161 233.907 98.6094L234.047 98.6859C236.21 99.8738 237.316 100.481 237.901 98.2891C238.516 96.0306 239.228 92.3967 239.075 90.7925ZM244.845 97.8071C244.867 97.9667 244.894 98.1614 244.967 98.4029C245.715 100.901 244.359 102.204 243.153 102.763C242.425 103.093 241.501 102.916 240.735 102.768C240.244 102.674 239.818 102.592 239.551 102.665C238.897 102.845 238.791 101.735 238.823 100.803C238.854 99.844 239.151 99.1409 239.701 97.9705C240.245 96.814 241.204 96.724 243.216 96.9332C244.751 97.1293 244.771 97.27 244.845 97.8071ZM248.999 91.4777C248.483 90.9309 246.708 91.1974 246.708 91.1974C246.708 91.1974 247.317 94.4537 248.044 93.9474C248.773 93.4788 248.999 91.4778 248.999 91.4777ZM254.448 83.749L254.453 83.7627C254.453 83.7627 255.128 84.3492 254.211 85.7634C253.366 87.0756 252.179 85.2728 251.429 84.1346L251.356 84.0241L251.28 83.9082C250.562 82.8407 251.521 81.9231 252.651 81.8244C253.758 81.7462 254.044 82.5773 254.448 83.749ZM261.736 88.3412C261.296 87.0194 258.936 88.2557 258.936 88.2557C258.936 88.2557 259.192 90.0318 260.106 91.0003C261.03 91.9721 261.996 91.832 262.236 90.6166C262.31 90.2439 262.376 90.1451 262.405 90.1027C262.413 90.0905 262.418 90.0829 262.419 90.0749C262.42 90.0703 262.419 90.0656 262.417 90.0597C262.414 90.049 262.406 90.0345 262.392 90.0107C262.327 89.8947 262.138 89.5562 261.736 88.3412Z" fill="#6B3BE7" fill-opacity="0.75"/>
</svg>
