<svg width="15" height="15" viewBox="0 0 15 15" fill="none" xmlns="http://www.w3.org/2000/svg">
<path d="M13.103 0.434858C12.5243 -0.145625 11.515 -0.14428 10.939 0.434858L0.522957 10.8824C0.254378 11.1518 0.0965732 11.5092 0.0774531 11.89L0.00196939 13.3873C-0.0197765 13.815 0.139389 14.236 0.438584 14.5409C0.726291 14.8343 1.12204 15 1.53009 15C1.54705 15 1.56413 15 1.5811 14.9993L3.11333 14.9475C3.50237 14.9346 3.86816 14.7749 4.14371 14.4986L14.5537 4.05725C15.1488 3.45893 15.1488 2.48546 14.5537 1.88725L13.1044 0.433547L13.103 0.434858ZM3.42058 13.7762C3.3295 13.8682 3.20768 13.9208 3.07776 13.9256L1.54553 13.9774C1.39866 13.9774 1.26602 13.9283 1.1647 13.8246C1.06406 13.7216 1.01168 13.5844 1.0192 13.4405L1.09468 11.9425C1.10151 11.8156 1.15388 11.6963 1.24292 11.6069L10.2635 2.55977L12.4336 4.73661L3.42036 13.7776L3.42058 13.7762ZM13.8305 3.33479L13.1552 4.01225L10.985 1.83541L11.6604 1.15796C11.7562 1.06179 11.8841 1.00858 12.0202 1.00858C12.1562 1.00858 12.2848 1.06179 12.3806 1.15864L13.8299 2.61235C14.0284 2.81152 14.0284 3.13632 13.8299 3.33617L13.8305 3.33479Z" fill="#1F1A30"/>
</svg>
