<svg width="20" height="15" viewBox="0 0 20 15" fill="none" xmlns="http://www.w3.org/2000/svg">
<path fill-rule="evenodd" clip-rule="evenodd" d="M18.5937 13H1.40619C1.32093 12.9986 1.25201 12.9297 1.25069 12.8445V2.37785L9.1734 8.13328C9.41344 8.30837 9.70296 8.40262 9.99998 8.40262C10.2972 8.40262 10.5865 8.30837 10.8266 8.13328L18.75 2.37785V12.8445C18.7484 12.9297 18.6798 12.9985 18.5945 13H18.5937ZM17.9036 1.44651L2.09589 1.44665L9.90815 7.12216C9.96175 7.16502 10.038 7.16502 10.0916 7.12216L17.9035 1.44665L17.9036 1.44651ZM18.5937 0.196575H1.40619C1.03363 0.197016 0.676387 0.345306 0.412761 0.608619C0.149166 0.872068 0.000716272 1.22917 0 1.60175V12.8427C0.000441789 13.2156 0.148732 13.5729 0.412346 13.8365C0.675942 14.1001 1.03335 14.2484 1.40619 14.2489H18.5937C18.9664 14.2484 19.324 14.1003 19.5875 13.8365C19.8513 13.5729 19.9996 13.2155 20 12.8427V1.60175C19.9996 1.22889 19.8513 0.871491 19.5875 0.607903C19.3239 0.34416 18.9664 0.196009 18.5937 0.195557V0.196575Z" fill="#74707F"/>
</svg>
