<svg width="430" height="429" viewBox="0 0 430 429" fill="none" xmlns="http://www.w3.org/2000/svg">
<path d="M288.502 341.055C285.284 348.92 263.691 347.919 261.189 354.64C258.686 361.361 280.708 360.717 279.993 369.154C279.278 377.591 265.979 378.878 242.098 380.237C218.217 381.595 212.926 387.887 189.045 395.681C165.164 403.474 154.654 393.393 141.283 386.1C127.984 378.878 102.459 392.177 94.4507 380.952C86.4427 369.655 108.25 365.651 127.484 361.289C146.789 356.856 138.066 354.783 137.565 345.416C137.494 343.486 138.066 341.984 139.138 340.769C143.5 336.05 156.155 335.978 171.313 336.264C190.404 336.693 195.194 330.33 221.792 330.902C246.317 331.402 284.784 332.904 288.287 339.267C288.716 339.839 288.788 340.411 288.502 341.055Z" fill="#1F9389"/>
<path d="M325.825 354.998C325.61 355.427 325.253 355.856 324.824 356.356C321.749 359.717 311.668 361.79 303.588 361.933C293.578 362.005 283.139 361.361 282.782 355.284C282.496 349.206 308.093 348.849 317.03 349.85C324.752 350.565 327.183 352.352 325.825 354.998Z" fill="#1F9389"/>
<path d="M127.985 353.997C127.842 354.354 127.555 354.712 127.198 355.069C124.767 357.715 116.831 359.431 110.467 359.502C102.602 359.574 94.308 359.073 94.0935 354.14C93.879 349.278 114.042 348.992 121.049 349.778C127.127 350.422 129.129 351.852 127.985 353.997Z" fill="#1F9389"/>
<path d="M256.041 392.106C249.034 394.894 222.865 395.037 222.937 391.605C222.937 391.176 223.08 390.747 223.366 390.39C225.296 387.673 233.304 386.171 240.526 385.885C249.034 385.599 254.826 386.529 257.4 387.887C259.759 389.174 259.402 390.747 256.041 392.106Z" fill="#1F9389"/>
<path d="M189.259 383.597C182.824 385.957 162.375 385.385 162.518 381.166C162.518 380.666 162.661 380.165 162.876 379.665C164.592 376.376 169.954 375.16 176.103 374.946C183.253 374.66 189.116 375.804 191.476 377.162C194.479 378.807 194.55 381.595 189.259 383.597Z" fill="#17625C"/>
<path d="M268.553 343.486C264.763 345.345 250.964 345.202 251.035 342.771C251.035 342.485 251.107 342.199 251.25 341.913C252.322 340.054 256.541 339.053 260.402 338.91C264.906 338.767 267.981 339.482 269.268 340.483C270.555 341.412 270.34 342.556 268.553 343.486Z" fill="#17625C"/>
<path d="M264.835 369.083C261.761 370.584 250.464 370.442 250.535 368.511C250.535 368.297 250.607 368.011 250.75 367.796C251.608 366.295 255.111 365.436 258.257 365.365C261.975 365.222 264.478 365.865 265.55 366.652C266.48 367.438 266.337 368.368 264.835 369.083Z" fill="#17625C"/>
<path d="M230.658 367.867C198.197 376.805 149.505 361.933 149.934 353.424C150.006 352.352 150.435 351.422 151.221 350.564C156.798 344.415 179.535 342.699 200.199 343.915C224.437 345.416 240.811 349.277 247.961 353.424C254.467 357.071 247.246 363.291 230.658 367.867Z" fill="#17625C"/>
<path d="M148.219 370.227C145.144 371.943 133.704 371.8 133.847 369.583C133.847 369.297 133.919 369.083 134.062 368.797C134.92 367.081 138.423 366.151 141.569 366.008C145.287 365.865 147.79 366.509 148.862 367.438C149.863 368.368 149.72 369.44 148.219 370.227Z" fill="#17625C"/>
<path d="M252.466 118.976C252.466 118.976 250.607 113.184 257.042 112.827C263.477 112.541 257.042 103.031 263.477 97.5259C269.912 92.0204 277.563 94.4514 277.849 101.816C278.135 109.18 276.919 113.756 277.849 115.615C278.778 117.474 281.495 112.255 284.856 115.901C288.216 119.548 267.41 189.975 267.41 189.975L256.113 187.187L252.466 118.976Z" fill="#18948A"/>
<path d="M272.915 130.201C269.841 131.631 263.549 173.673 268.768 169.526C269.984 168.597 280.78 126.555 272.915 130.201Z" fill="#0DF6E3"/>
<path d="M326.183 85.8001C325.897 87.8021 325.396 89.6611 324.896 91.3056C319.891 106.464 306.234 107.036 306.02 109.109C305.805 111.397 315.887 118.976 306.449 128.2C297.011 137.423 277.777 125.697 272.701 125.268C265.551 124.696 250.679 137.423 240.454 124.196C233.876 115.687 244.458 110.897 242.027 108.537C239.596 106.178 220.577 105.749 220.577 84.3701C220.577 83.9411 220.577 83.5121 220.577 83.0831C221.292 61.7046 240.311 63.2061 241.241 58.9876C242.17 54.7691 241.956 30.0301 271.986 28.9576C302.087 27.8851 301.158 58.3441 303.875 59.7741C306.735 61.2756 329.4 65.2081 326.183 85.8001Z" fill="#0DF6E3"/>
<path d="M302.302 103.604C308.737 100.958 318.389 96.2391 324.824 91.3056C319.819 106.464 306.163 107.036 305.948 109.109C305.734 111.397 315.815 118.976 306.377 128.2C296.939 137.423 277.706 125.697 272.629 125.268C265.479 124.696 250.607 137.423 240.383 124.196C233.805 115.687 244.387 110.897 241.956 108.537C239.525 106.178 220.506 105.749 220.506 84.3701C222.15 87.7306 225.582 92.5211 232.947 95.8816C245.316 101.53 254.039 95.2381 258.401 101.316C262.762 107.393 253.61 111.183 257.686 114.758C261.833 118.333 268.268 109.324 278.564 114.114C288.931 118.905 295.366 122.051 299.442 117.689C303.732 113.256 293.15 107.393 302.302 103.604Z" fill="#18948A"/>
<path d="M253.468 73.216C253.468 73.216 253.396 73.1445 253.182 73.0015C252.967 72.8585 252.753 72.644 252.395 72.2865C251.752 71.643 250.894 70.642 250.179 69.2835C249.821 68.64 249.464 67.8535 249.178 66.9955C248.892 66.1375 248.749 65.208 248.606 64.207C248.534 63.206 248.534 62.205 248.677 61.204C248.749 60.7035 248.82 60.203 248.963 59.7025C249.035 59.4165 249.035 59.2735 249.178 58.8445L249.392 58.1295C249.607 57.2715 250.179 56.199 250.751 55.2695C251.323 54.4115 252.109 53.5535 252.896 52.91C253.754 52.2665 254.612 51.766 255.47 51.4085C256.328 51.051 257.257 50.8365 258.044 50.6935C258.83 50.5505 259.617 50.5505 260.26 50.5505C260.904 50.5505 261.476 50.5505 261.976 50.622C262.477 50.6935 262.834 50.6935 263.049 50.765C263.335 50.8365 263.478 50.8365 263.478 50.8365C264.407 51.051 264.979 51.909 264.765 52.8385C264.55 53.768 263.692 54.34 262.763 54.1255H262.691H262.548C262.548 54.1255 262.477 54.1255 262.334 54.054C262.119 53.9825 261.905 53.911 261.476 53.911C261.118 53.8395 260.689 53.768 260.117 53.768C259.617 53.768 259.045 53.6965 258.401 53.768C257.758 53.8395 257.114 53.911 256.471 54.197C255.827 54.4115 255.112 54.6975 254.54 55.1265C253.897 55.5555 253.325 56.1275 252.824 56.771C252.324 57.4145 251.966 57.9865 251.609 58.9875L251.323 59.631L251.18 60.203C251.037 60.632 250.894 61.061 250.894 61.49C250.751 62.348 250.679 63.206 250.679 63.9925C250.679 64.779 250.822 65.637 250.965 66.352C251.108 67.067 251.394 67.782 251.68 68.354C252.252 69.5695 252.967 70.499 253.468 71.071C253.754 71.357 253.968 71.5715 254.111 71.7145C254.254 71.8575 254.326 71.929 254.326 71.929H254.397C254.683 72.215 254.755 72.7155 254.469 73.0015C254.254 73.359 253.825 73.4305 253.468 73.216Z" fill="#18948A"/>
<path d="M262.12 52.1951C262.12 52.1951 262.12 52.0521 262.191 51.6946C262.263 51.4086 262.406 50.9796 262.549 50.4076C262.906 49.3351 263.478 47.8336 264.694 46.1891C265.266 45.4026 266.052 44.5446 266.982 43.9011C267.911 43.1861 268.984 42.6141 270.128 42.1136C270.7 41.8991 271.343 41.7561 271.987 41.5416C272.63 41.3986 273.274 41.3271 273.917 41.2556C274.561 41.1841 275.204 41.1841 275.848 41.1841H276.348H276.42H276.634H276.706H276.92L277.778 41.2556C278.064 41.3271 278.279 41.3271 278.636 41.3986L279.709 41.6846C280.066 41.8276 280.424 41.8991 280.781 42.0421L281.711 42.4711C282.354 42.7571 282.926 43.1146 283.427 43.5436C283.999 43.9011 284.428 44.4016 284.928 44.8306C286.716 46.6896 287.717 48.9061 288.289 50.6936C288.861 52.5526 289.147 54.1256 289.29 55.1981C289.361 55.7701 289.361 56.1991 289.433 56.4851C289.433 56.8426 289.433 56.9856 289.433 56.9856C289.504 58.2726 288.503 59.3451 287.216 59.3451C285.929 59.4166 284.857 58.4156 284.857 57.1286V57.0571V56.9141C284.857 56.9141 284.857 56.8426 284.857 56.6281C284.857 56.4136 284.857 56.0561 284.785 55.6271C284.714 54.7691 284.571 53.4106 284.142 51.9806C283.713 50.5506 282.998 48.9061 281.854 47.6191C281.568 47.3331 281.282 46.9756 280.924 46.6896C280.567 46.4036 280.209 46.1176 279.852 45.9746L279.28 45.6171C279.065 45.5456 278.922 45.4741 278.708 45.4026L278.136 45.1881C277.921 45.1166 277.564 45.1166 277.349 45.0451L276.491 44.9021H276.277H276.205C276.062 44.9021 276.42 44.9021 276.348 44.9021H276.277H275.919C275.419 44.9021 274.918 44.8306 274.418 44.9021C273.917 44.9736 273.417 44.9736 272.988 45.0451C272.559 45.1881 272.058 45.2596 271.629 45.4026C270.771 45.6886 269.985 46.0461 269.341 46.5466C268.698 46.9756 268.126 47.5476 267.697 48.1196C266.767 49.2636 266.267 50.4076 265.981 51.2656C265.838 51.6946 265.766 51.9806 265.695 52.1951C265.623 52.4096 265.623 52.4811 265.623 52.4811V52.6241C265.409 53.5536 264.551 54.0541 263.621 53.9111C262.477 53.9111 261.977 53.0531 262.12 52.1951Z" fill="#18948A"/>
<path d="M297.654 62.7056C297.654 62.7056 298.155 62.7056 298.941 62.7771C299.728 62.8486 300.8 62.9916 302.087 63.3491C303.374 63.7066 304.876 64.2786 306.306 65.4226C307.021 65.9946 307.664 66.6381 308.236 67.4246C308.522 67.8536 308.737 68.2111 308.951 68.7116L309.237 69.3551L309.38 70.0701C309.595 70.7851 309.809 71.8576 309.809 72.7156C309.881 73.6451 309.809 74.5031 309.595 75.2896C309.237 76.9341 308.594 78.3641 307.879 79.4366C307.164 80.5091 306.377 81.2956 305.877 81.7961C305.305 82.2966 304.947 82.5826 304.947 82.5826C304.59 82.8686 304.018 82.7971 303.732 82.4396C303.446 82.0821 303.517 81.5101 303.875 81.2241C303.803 81.2956 305.09 80.2946 306.163 78.3641C306.735 77.4346 307.164 76.2191 307.307 74.8606C307.378 74.2171 307.378 73.5021 307.307 72.8586C307.235 72.1436 307.092 71.6431 306.806 70.7851L306.663 70.2846L306.449 69.8556C306.306 69.5696 306.091 69.2836 305.948 69.0691C305.591 68.5686 305.09 68.2111 304.59 67.8536C303.517 67.2101 302.373 66.7811 301.301 66.5666C300.228 66.3521 299.37 66.2806 298.727 66.2806C298.083 66.2806 297.797 66.2806 297.797 66.2806C296.796 66.2806 295.938 65.4941 295.938 64.4931C295.867 63.5636 296.653 62.7056 297.654 62.7056Z" fill="#18948A"/>
<path d="M250.178 71.4285C250.178 71.4285 250.107 71.4285 250.035 71.4285C249.892 71.4285 249.749 71.5 249.535 71.5715C249.034 71.7145 248.391 71.929 247.676 72.4295C247.318 72.644 246.961 72.93 246.675 73.2875C246.317 73.645 246.031 74.074 245.817 74.5745C245.602 75.075 245.388 75.5755 245.245 76.219C245.102 76.791 245.03 77.506 245.03 78.078C245.03 78.8645 245.102 79.365 245.245 79.937C245.388 80.509 245.602 81.081 245.96 81.5815C246.603 82.5825 247.461 83.2975 248.319 83.798C249.177 84.2985 249.964 84.5845 250.536 84.7275C251.108 84.8705 251.465 84.942 251.394 84.942C251.751 84.942 252.037 85.2995 251.966 85.657C251.966 86.0145 251.608 86.3005 251.251 86.229C251.251 86.229 250.822 86.229 250.178 86.086C249.535 85.943 248.605 85.7285 247.461 85.2995C246.389 84.799 245.173 84.0125 244.172 82.797C243.672 82.1535 243.314 81.4385 243.028 80.7235C242.885 80.366 242.814 79.8655 242.671 79.508C242.528 79.079 242.528 78.793 242.456 78.364C242.456 78.1495 242.385 78.078 242.385 77.7205V77.1485C242.385 76.7195 242.385 76.362 242.456 75.933C242.528 75.1465 242.671 74.2885 242.957 73.5735C243.243 72.787 243.6 72.072 244.101 71.5C244.53 70.8565 245.03 70.356 245.602 69.927C246.603 69.069 247.604 68.64 248.319 68.354C248.677 68.211 248.963 68.1395 249.177 68.068C249.392 67.9965 249.535 67.9965 249.535 67.9965C250.536 67.782 251.537 68.354 251.751 69.355C251.966 70.356 251.394 71.357 250.393 71.5715C250.321 71.4285 250.25 71.4285 250.178 71.4285Z" fill="#18948A"/>
<path d="M294.008 93.0216C294.008 93.0216 294.008 93.5221 293.865 94.3086C293.722 95.0951 293.507 96.1676 293.078 97.4546C292.649 98.7416 292.006 100.243 290.79 101.602C290.218 102.245 289.503 102.889 288.645 103.389C288.216 103.604 287.787 103.89 287.358 104.033L286.643 104.247L286 104.39C285.285 104.605 284.212 104.676 283.354 104.676C282.425 104.676 281.567 104.533 280.78 104.39C279.136 103.961 277.777 103.246 276.705 102.46C275.632 101.673 274.917 100.887 274.417 100.315C273.916 99.7426 273.702 99.3851 273.702 99.3136C273.416 98.9561 273.559 98.3841 273.916 98.0981C274.274 97.8121 274.846 97.9551 275.132 98.3126C275.132 98.2411 275.99 99.5281 277.92 100.744C278.85 101.316 280.065 101.888 281.352 102.102C281.996 102.245 282.711 102.245 283.354 102.174C284.069 102.102 284.57 102.031 285.428 101.745L285.928 101.602L286.357 101.387C286.643 101.244 286.929 101.101 287.144 100.887C287.644 100.529 288.073 100.029 288.431 99.5996C289.146 98.5986 289.575 97.4546 289.861 96.3821C290.147 95.3096 290.218 94.4516 290.29 93.8081C290.361 93.1646 290.29 92.8786 290.29 92.8786C290.29 91.8776 291.148 91.0911 292.149 91.0911C293.221 91.1626 294.079 91.9491 294.008 93.0216Z" fill="#18948A"/>
<path d="M237.237 152.152L234.234 143.787C234.234 143.787 241.169 142.714 237.523 133.634C235.449 128.557 229.586 132.561 229.586 132.561C229.586 132.561 228.585 125.197 220.935 126.841C214.929 128.128 214.786 137.781 217.145 140.855C219.433 143.93 221.793 143.644 221.793 143.644C221.793 143.644 216.788 143.501 217.574 148.077C218.361 152.653 222.293 152.867 225.296 151.366C226.726 150.651 227.799 148.863 227.799 148.863L234.305 154.226C234.877 154.726 235.735 154.798 236.45 154.44C237.237 154.083 237.594 153.082 237.237 152.152Z" fill="#18948A"/>
<path d="M308.594 170.885C308.308 172.244 307.807 173.459 307.235 174.103C305.519 176.105 302.802 176.319 302.802 176.319C302.802 176.319 305.233 177.678 303.446 180.609C302.087 182.754 298.083 181.467 297.011 180.109C295.867 178.75 295.867 177.177 295.867 177.177L291.005 181.324C290.218 182.039 288.931 181.968 288.216 181.11C287.573 180.395 287.573 179.251 288.216 178.536L288.86 177.821L292.792 173.173C292.792 173.173 287.215 170.885 289.217 166.738C291.005 162.949 294.58 164.736 295.509 165.737C296.367 166.667 296.51 168.24 296.51 168.24C296.51 168.24 298.155 161.876 304.089 163.306C308.522 164.307 309.166 167.954 308.594 170.885Z" fill="#18948A"/>
<path d="M156.585 258.33C157.729 259.903 157.8 262.048 156.656 263.692L156.227 264.264C155.798 264.836 155.155 265.122 154.511 265.122C154.011 265.122 153.582 264.979 153.153 264.622L146.289 258.616C146.289 258.616 142.928 266.409 133.776 264.622C127.413 263.335 125.768 257.901 126.483 253.396C126.769 251.18 127.627 249.178 128.771 247.962C130.773 245.817 133.347 245.531 135.206 245.603C133.347 245.031 130.702 243.529 129.701 239.811C129.057 237.452 129.2 235.092 130.058 233.233C131.417 230.302 134.491 228.443 138.853 228.943C146.074 229.873 146.217 240.097 146.217 240.097C146.217 240.097 148.72 233.162 155.584 236.165C161.59 238.81 159.874 246.818 155.798 249.964C153.653 251.609 151.794 251.966 151.794 251.966L156.585 258.33Z" fill="#0DF6E3"/>
<path d="M141.069 246.89C141.069 246.89 138.138 246.318 135.278 245.531C133.419 244.959 130.773 243.529 129.701 239.74C129.057 237.38 129.2 235.021 130.058 233.162C130.487 235.664 131.631 239.597 134.42 242.171C138.781 246.175 141.069 246.89 141.069 246.89Z" fill="#18B5A8"/>
<path d="M156.227 264.192C155.798 264.764 155.155 265.05 154.511 265.05C154.011 265.05 153.582 264.907 153.153 264.55L146.289 258.544C146.289 258.544 142.928 266.337 133.776 264.55C127.413 263.263 125.768 257.829 126.483 253.324C127.484 255.469 129.701 257.9 134.777 258.758C144.93 260.546 145.216 254.182 145.216 254.182L156.227 264.192Z" fill="#18B5A8"/>
<path d="M183.468 242.528C182.539 242.528 179.464 242.314 176.676 239.74C173.887 237.166 172.457 233.09 172.386 227.728C172.243 215.072 169.812 213.356 167.166 212.57C163.448 211.497 159.444 212.927 159.444 212.927C158.014 213.499 156.441 212.784 155.869 211.354C155.297 209.924 156.012 208.351 157.442 207.779C157.657 207.708 163.091 205.634 168.668 207.207C176.104 209.352 177.748 216.574 177.82 227.585C177.891 231.303 178.749 234.091 180.251 235.593C181.681 236.951 183.325 236.951 183.325 236.951C184.827 236.808 186.114 238.095 186.185 239.597C186.257 241.098 185.113 242.385 183.611 242.457C183.683 242.528 183.611 242.528 183.468 242.528Z" fill="#0DF6E3"/>
<path d="M181.252 204.061C180.537 204.704 178.463 206.992 178.177 210.71C177.963 214.5 179.679 218.432 183.325 222.436C191.834 231.731 191.333 234.663 189.903 237.022C187.901 240.383 184.04 242.027 184.04 242.027C182.61 242.599 181.967 244.172 182.539 245.602C183.111 247.032 184.684 247.676 186.114 247.104C186.328 247.032 191.762 244.816 194.694 239.811C198.626 233.09 194.837 226.798 187.472 218.647C184.97 215.93 183.683 213.284 183.754 211.139C183.826 209.137 185.041 208.065 185.113 207.993C186.257 207.064 186.328 205.276 185.327 204.132C184.326 202.988 182.682 202.845 181.466 203.846C181.395 203.918 181.323 203.989 181.252 204.061Z" fill="#1F9389"/>
<path d="M307.95 220.434C305.233 220.434 302.23 219.576 299.513 217.431C294.865 213.856 291.791 216.287 291.791 216.359C290.647 217.36 288.859 217.217 287.93 216.001C286.929 214.857 287.072 213.07 288.287 212.14C290.504 210.281 296.438 208.065 302.945 213.07C306.448 215.787 310.166 215.072 311.596 213.713C312.955 212.498 313.741 208.994 313.884 206.921C313.956 205.419 315.314 204.204 316.816 204.347C318.317 204.418 319.461 205.777 319.39 207.278C319.318 207.993 318.818 214.643 315.314 217.789C313.527 219.433 310.881 220.434 307.95 220.434Z" fill="#1F9389"/>
<path d="M306.52 254.468L329.328 279.994C329.328 279.994 322.679 268.554 316.959 261.332C310.953 253.896 306.52 254.468 306.52 254.468Z" fill="#0DF6E3"/>
<path d="M324.466 266.194C324.466 266.194 318.603 259.187 317.745 258.115C315.457 255.326 313.812 254.468 313.812 254.468C313.812 254.468 315.886 254.182 318.603 257.614C321.32 260.975 324.466 266.194 324.466 266.194Z" fill="#0DF6E3"/>
<path d="M289.503 242.385L299.799 224.653L293.65 241.027L302.73 250.036L289.503 242.385Z" fill="#0DF6E3"/>
<path d="M305.591 233.519L290.79 241.456L294.437 242.814L305.591 233.519Z" fill="#0DF6E3"/>
<path d="M156.084 202.274L150.721 196.053C150.078 195.267 150.149 194.123 150.936 193.408C151.722 192.764 152.866 192.836 153.581 193.622C153.724 193.765 153.796 193.908 153.867 194.051L157.299 201.487C157.442 201.845 157.299 202.274 156.942 202.417C156.656 202.631 156.298 202.56 156.084 202.274Z" fill="#0DF6E3"/>
<path d="M151.151 209.066L141.069 210.067C140.068 210.139 139.139 209.424 139.067 208.423C138.996 207.422 139.711 206.492 140.712 206.421C140.855 206.421 140.998 206.421 141.141 206.421L151.151 207.636C151.58 207.708 151.794 208.065 151.794 208.423C151.723 208.78 151.508 209.066 151.151 209.066Z" fill="#0DF6E3"/>
<path d="M155.584 217.36L150.65 223.509C150.007 224.296 148.863 224.439 148.076 223.795C147.29 223.152 147.147 222.008 147.79 221.221C147.862 221.078 148.005 220.935 148.148 220.864L154.583 216.288C154.94 216.073 155.369 216.145 155.655 216.431C155.87 216.717 155.798 217.074 155.584 217.36Z" fill="#0DF6E3"/>
<path d="M185.47 198.627L189.259 193.622C189.76 192.978 190.618 192.907 191.261 193.336C191.905 193.836 191.976 194.694 191.547 195.338C191.476 195.409 191.404 195.552 191.261 195.624L186.256 199.413C186.042 199.628 185.684 199.556 185.47 199.342C185.327 199.127 185.327 198.841 185.47 198.627Z" fill="#0DF6E3"/>
<path d="M179.607 196.053L177.176 188.688C176.961 187.973 177.319 187.115 178.105 186.901C178.82 186.686 179.678 187.044 179.893 187.83C179.893 187.902 179.964 188.045 179.964 188.116L180.679 195.838C180.679 196.124 180.465 196.41 180.179 196.41C179.893 196.41 179.678 196.267 179.607 196.053Z" fill="#0DF6E3"/>
<path d="M174.102 200.701L168.668 197.984C167.953 197.626 167.667 196.768 168.024 196.053C168.382 195.338 169.24 195.052 169.955 195.41C170.098 195.481 170.169 195.553 170.312 195.624L174.817 199.7C175.031 199.914 175.103 200.272 174.888 200.558C174.602 200.772 174.316 200.844 174.102 200.701Z" fill="#0DF6E3"/>
<path d="M318.317 191.406L317.03 198.77C316.959 199.199 316.601 199.414 316.172 199.342C315.815 199.271 315.6 198.985 315.529 198.699L314.599 191.263C314.456 190.262 315.171 189.332 316.244 189.189C317.245 189.046 318.174 189.761 318.317 190.834C318.389 191.048 318.389 191.191 318.317 191.406Z" fill="#0DF6E3"/>
<path d="M331.259 198.341L323.751 203.275C323.251 203.561 322.607 203.489 322.321 202.989C322.035 202.56 322.106 201.988 322.464 201.63L329.042 195.481C329.757 194.766 330.973 194.838 331.616 195.553C332.331 196.268 332.26 197.483 331.545 198.127C331.402 198.198 331.33 198.27 331.259 198.341Z" fill="#0DF6E3"/>
<path d="M330.043 214.071L323.608 210.997C323.179 210.782 322.964 210.282 323.179 209.781C323.322 209.424 323.751 209.209 324.108 209.281L331.115 210.496C332.116 210.639 332.831 211.64 332.617 212.641C332.474 213.642 331.473 214.357 330.472 214.143C330.4 214.214 330.257 214.143 330.043 214.071Z" fill="#0DF6E3"/>
<path d="M229.3 179.036C229.3 179.036 199.198 215.072 198.054 214.143C197.768 213.928 197.268 212.284 196.624 209.638C194.908 202.131 192.549 186.401 192.263 169.67C191.905 147.147 192.477 140.283 198.483 137.495C202.916 135.421 215 155.37 222.936 168.74C225.796 173.316 228.013 177.106 229.3 179.036Z" fill="#0DF6E3"/>
<path d="M229.3 179.036C229.3 179.036 199.198 215.072 198.054 214.142C197.768 213.928 197.268 212.284 196.624 209.638C199.556 202.131 203.131 194.194 207.063 188.188C213.427 178.607 219.147 172.386 222.936 168.74C225.796 173.316 228.013 177.105 229.3 179.036Z" fill="#21A69B"/>
<path d="M333.547 302.945C331.688 306.806 314.456 301.444 300.371 296.582C297.654 295.652 295.008 294.723 292.577 293.865C287 291.934 283.282 286.643 283.282 280.709C283.354 266.909 282.067 244.959 284.712 243.815C287.858 242.385 303.445 257.757 317.674 274.274C332.403 291.362 336.335 297.011 333.547 302.945Z" fill="#0DF6E3"/>
<path d="M300.371 296.582C297.654 295.653 295.008 294.723 292.577 293.865C287 291.935 283.282 286.644 283.282 280.709C283.354 266.91 282.067 244.959 284.712 243.815C284.784 243.815 290.647 261.976 294.651 276.276C296.939 284.57 298.869 291.363 300.371 296.582Z" fill="#21A69B"/>
<path d="M290.075 208.065C289.574 227.585 286.714 260.046 275.06 292.221C264.978 320.106 256.255 338.624 250.464 349.564C245.673 358.573 242.885 362.577 242.885 362.577C242.885 362.577 235.306 366.366 220.72 367.51C212.569 368.154 202.273 368.011 189.903 365.937C155.297 360.146 151.651 349.278 151.651 349.278C151.651 349.278 151.15 343.057 152.795 330.831C154.868 315.101 160.588 289.504 175.532 254.54C192.334 215.43 211.496 192.407 223.365 180.752C230.372 173.888 234.877 170.957 234.877 170.957C234.877 170.957 244.172 167.167 263.405 173.173C271.056 175.533 276.847 178.607 280.923 181.539C287.215 185.9 289.789 189.761 289.789 189.761C289.789 189.761 290.432 196.768 290.075 208.065Z" fill="#0DF6E3"/>
<path d="M290.075 208.065C289.574 227.585 286.714 260.046 275.06 292.221C264.978 320.106 256.255 338.624 250.464 349.564C245.673 358.573 242.885 362.577 242.885 362.577C242.885 362.577 235.306 366.366 220.72 367.51C230.015 354.783 243.814 332.69 257.542 299.228C279.85 244.888 281.209 197.126 280.994 181.539C287.286 185.9 289.86 189.761 289.86 189.761C289.86 189.761 290.432 196.768 290.075 208.065Z" fill="#18B5A8"/>
<path d="M160.946 327.756C160.732 327.756 160.589 327.756 160.374 327.685C158.372 327.399 157.014 325.468 157.3 323.466C157.514 322.251 162.09 292.793 174.746 263.12C187.401 233.519 197.411 219.005 197.84 218.361C198.984 216.717 201.272 216.288 202.988 217.432C204.633 218.576 205.062 220.864 203.918 222.58C203.846 222.723 193.836 237.166 181.538 265.98C169.24 294.795 164.593 324.253 164.593 324.539C164.235 326.469 162.662 327.756 160.946 327.756Z" fill="#0DF6E3"/>
<path d="M290.074 208.065C287.572 205.849 284.354 203.275 280.493 200.629C278.92 199.557 277.204 198.413 275.345 197.269C274.344 196.697 273.343 196.053 272.271 195.481C268.052 193.05 263.262 190.762 258.042 188.76C257.613 188.617 257.256 188.474 256.827 188.331C256.04 188.045 255.325 187.759 254.61 187.545C248.604 185.4 243.313 183.97 238.809 182.969C237.522 182.683 236.235 182.468 235.091 182.182C230.086 181.253 226.225 180.967 223.508 180.824C230.515 173.96 235.019 171.028 235.019 171.028C235.019 171.028 237.879 169.884 243.742 169.884C245.029 169.884 246.459 169.956 248.032 170.099C251.75 170.385 256.255 171.171 261.546 172.673C262.189 172.887 262.904 173.03 263.548 173.245C264.048 173.388 264.549 173.531 265.049 173.745C269.196 175.175 272.771 176.748 275.774 178.321C276.99 178.965 278.062 179.608 279.135 180.323C279.85 180.752 280.422 181.181 281.065 181.61C287.357 185.972 289.931 189.833 289.931 189.833C289.931 189.833 290.432 196.768 290.074 208.065Z" fill="#0E5E57"/>
<path d="M290.074 208.065C287.572 205.849 284.354 203.275 280.493 200.629C281.065 192.264 281.065 185.757 281.065 181.61C287.357 185.972 289.931 189.833 289.931 189.833C289.931 189.833 290.432 196.768 290.074 208.065Z" fill="#18B5A8"/>
<path d="M279.135 180.323L275.846 196.411C275.774 196.768 275.631 197.054 275.345 197.34C274.344 196.768 273.343 196.125 272.271 195.553L275.774 178.393C276.99 179.036 278.134 179.68 279.135 180.323Z" fill="#18B5A8"/>
<path d="M265.049 173.745L258.042 188.76C257.613 188.617 257.256 188.474 256.827 188.331C256.04 188.045 255.325 187.759 254.61 187.545L261.474 172.673C262.118 172.887 262.833 173.03 263.476 173.245C264.048 173.459 264.549 173.602 265.049 173.745Z" fill="#18B5A8"/>
<path d="M248.032 170.098C247.961 170.241 247.889 170.384 247.818 170.527L238.809 182.968C237.522 182.682 236.235 182.468 235.091 182.182C235.162 181.896 235.234 181.61 235.448 181.324L243.742 169.812C245.029 169.884 246.459 169.955 248.032 170.098Z" fill="#18B5A8"/>
<path d="M196.299 340.356C213.107 346.122 233.215 331.902 241.211 308.595C249.207 285.287 242.063 261.718 225.255 255.952C208.446 250.185 188.338 264.405 180.342 287.713C172.347 311.021 179.49 334.59 196.299 340.356Z" fill="#18B5A8"/>
<path d="M198.601 338.526C215.41 344.292 235.445 330.284 243.351 307.238C251.257 284.192 244.041 260.835 227.232 255.068C210.424 249.302 190.389 263.31 182.482 286.356C174.576 309.403 181.793 332.76 198.601 338.526Z" fill="#0E5E57"/>
<path d="M200.267 330.545C213.601 335.12 229.595 323.718 235.989 305.08C242.383 286.441 236.757 267.623 223.422 263.048C210.087 258.474 194.094 269.875 187.7 288.514C181.306 307.152 186.932 325.97 200.267 330.545Z" fill="#1F9389"/>
<path d="M207.027 285.958C210.837 287.265 215.411 283.994 217.244 278.653C219.076 273.311 217.473 267.922 213.663 266.615C209.853 265.308 205.279 268.578 203.447 273.92C201.614 279.261 203.217 284.651 207.027 285.958Z" fill="#18B5A8"/>
<path d="M198.29 309.448C200.344 310.152 202.799 308.422 203.773 305.584C204.747 302.745 203.871 299.872 201.816 299.167C199.762 298.463 197.307 300.193 196.333 303.031C195.359 305.87 196.235 308.743 198.29 309.448Z" fill="#18B5A8"/>
<path d="M236.021 305.091C229.586 323.752 213.641 335.121 200.271 330.545C193.264 328.114 188.33 321.75 186.257 313.528C187.973 314.672 189.832 315.673 191.834 316.316C208.422 322.036 228.37 307.808 236.307 284.57C236.807 283.14 237.236 281.71 237.594 280.28C239.381 287.645 239.024 296.439 236.021 305.091Z" fill="#17625C"/>
<path d="M250.535 349.635C245.745 358.644 242.956 362.648 242.956 362.648C242.956 362.648 235.377 366.438 220.791 367.582C212.64 368.225 202.344 368.082 189.975 366.009C177.176 363.864 168.668 361.004 162.948 358.287C153.224 353.639 151.722 349.349 151.722 349.349C151.722 349.349 151.222 343.129 152.866 330.902C155.869 333.691 159.873 336.837 165.164 339.768C173.315 344.273 184.398 348.491 199.484 350.708C210.781 352.352 221.578 352.567 231.23 351.923C238.38 351.566 244.887 350.636 250.535 349.635Z" fill="#0DF6E3"/>
<path d="M250.535 349.635C245.745 358.644 242.956 362.648 242.956 362.648C242.956 362.648 235.377 366.437 220.791 367.581C223.866 363.363 227.369 358.215 231.23 351.923C238.38 351.566 244.887 350.636 250.535 349.635Z" fill="#18B5A8"/>
<path d="M165.164 339.84L162.948 358.358C153.224 353.711 151.722 349.421 151.722 349.421C151.722 349.421 151.222 343.2 152.866 330.974C155.869 333.762 159.873 336.837 165.164 339.84Z" fill="#0DF6E3"/>
</svg>
