<svg width="857" height="857" viewBox="0 0 857 857" fill="none" xmlns="http://www.w3.org/2000/svg">
<path d="M575.332 681.315C568.905 697.027 525.769 695.027 520.77 708.453C515.771 721.88 559.763 720.594 558.335 737.449C556.907 754.303 530.34 756.874 482.633 759.588C434.927 762.302 424.357 774.871 376.651 790.44C328.945 806.009 307.948 785.869 281.238 771.3C254.671 756.874 203.68 783.441 187.683 761.016C171.685 738.448 215.249 730.45 253.672 721.737C292.237 712.881 274.811 708.739 273.811 690.028C273.668 686.171 274.811 683.172 276.953 680.744C285.666 671.317 310.948 671.174 341.228 671.745C379.365 672.602 388.935 659.89 442.069 661.033C491.061 662.033 567.905 665.032 574.904 677.744C575.761 678.887 575.904 680.03 575.332 681.315Z" fill="#2C6E74"/>
<path d="M649.891 709.168C649.462 710.025 648.748 710.882 647.891 711.881C641.749 718.595 621.61 722.737 605.47 723.022C585.473 723.165 564.619 721.88 563.905 709.739C563.334 697.598 614.468 696.884 632.322 698.884C647.748 700.312 652.605 703.883 649.891 709.168Z" fill="#2C6E74"/>
<path d="M254.671 707.167C254.386 707.882 253.814 708.596 253.1 709.31C248.244 714.595 232.389 718.023 219.677 718.166C203.965 718.308 187.397 717.309 186.968 707.453C186.54 697.74 226.819 697.169 240.816 698.74C252.957 700.026 256.957 702.882 254.671 707.167Z" fill="#2C6E74"/>
<path d="M510.486 783.298C496.488 788.868 444.211 789.154 444.354 782.298C444.354 781.441 444.639 780.584 445.211 779.87C449.067 774.442 465.065 771.442 479.491 770.871C496.488 770.3 508.057 772.157 513.199 774.87C517.913 777.441 517.199 780.584 510.486 783.298Z" fill="#2C6E74"/>
<path d="M377.079 766.301C364.224 771.014 323.374 769.872 323.66 761.444C323.66 760.445 323.945 759.445 324.374 758.445C327.802 751.875 338.514 749.446 350.798 749.018C365.081 748.447 376.794 750.732 381.507 753.446C387.506 756.731 387.649 762.301 377.079 766.301Z" fill="#09555B"/>
<path d="M535.482 686.172C527.912 689.886 500.345 689.6 500.488 684.744C500.488 684.172 500.631 683.601 500.916 683.03C503.059 679.316 511.486 677.316 519.199 677.031C528.198 676.745 534.339 678.173 536.91 680.173C539.481 682.03 539.053 684.315 535.482 686.172Z" fill="#09555B"/>
<path d="M528.055 737.306C521.913 740.306 499.345 740.02 499.488 736.164C499.488 735.735 499.631 735.164 499.916 734.735C501.63 731.736 508.629 730.022 514.914 729.879C522.341 729.593 527.34 730.879 529.483 732.45C531.34 734.021 531.054 735.878 528.055 737.306Z" fill="#09555B"/>
<path d="M459.78 734.877C394.934 752.731 297.664 723.022 298.521 706.025C298.664 703.882 299.521 702.026 301.092 700.312C312.233 688.028 357.654 684.6 398.933 687.028C447.354 690.028 480.062 697.741 494.346 706.025C507.344 713.309 492.917 725.736 459.78 734.877Z" fill="#09555B"/>
<path d="M295.093 739.591C288.951 743.019 266.098 742.733 266.384 738.305C266.384 737.734 266.526 737.306 266.812 736.734C268.526 733.306 275.525 731.449 281.81 731.164C289.237 730.878 294.236 732.164 296.379 734.02C298.378 735.877 298.093 738.02 295.093 739.591Z" fill="#09555B"/>
<path d="M503.345 237.675C503.345 237.675 499.631 226.106 512.486 225.391C525.341 224.82 512.486 205.823 525.341 194.825C538.196 183.827 553.479 188.683 554.051 203.395C554.622 218.107 552.194 227.248 554.051 230.962C555.907 234.676 561.335 224.249 568.048 231.533C574.761 238.818 533.197 379.509 533.197 379.509L510.629 373.938L503.345 237.675Z" fill="#0C8792"/>
<path d="M544.195 260.1C538.053 262.957 525.484 346.943 535.911 338.658C538.339 336.802 559.907 252.816 544.195 260.1Z" fill="#49A2AA"/>
<path d="M650.605 171.4C650.034 175.399 649.034 179.113 648.034 182.398C638.036 212.679 610.755 213.821 610.326 217.963C609.898 222.534 630.037 237.674 611.183 256.1C592.329 274.525 553.907 251.101 543.766 250.244C529.483 249.101 499.773 274.525 479.348 248.101C466.208 231.104 487.347 221.534 482.491 216.821C477.634 212.107 439.641 211.25 439.641 168.543C439.641 167.686 439.641 166.829 439.641 165.972C441.069 123.265 479.063 126.264 480.919 117.837C482.776 109.41 482.348 59.9898 542.338 57.8473C602.471 55.7048 600.614 116.552 606.041 119.408C611.755 122.408 657.033 130.264 650.605 171.4Z" fill="#49A2AA"/>
<path d="M602.899 206.965C615.754 201.68 635.037 192.253 647.892 182.398C637.894 212.678 610.612 213.821 610.184 217.963C609.755 222.534 629.895 237.674 611.041 256.1C592.187 274.525 553.765 251.101 543.624 250.244C529.34 249.101 499.631 274.525 479.206 248.101C466.065 231.104 487.204 221.534 482.348 216.821C477.492 212.107 439.498 211.25 439.498 168.543C442.783 175.256 449.639 184.826 464.351 191.539C489.061 202.823 506.487 190.254 515.2 202.394C523.913 214.535 505.63 222.105 513.771 229.247C522.056 236.389 534.911 218.392 555.479 227.962C576.19 237.531 589.045 243.816 597.186 235.103C605.756 226.248 584.617 214.535 602.899 206.965Z" fill="#0C8792"/>
<path d="M505.345 146.261C505.345 146.261 505.202 146.118 504.773 145.832C504.345 145.546 503.916 145.118 503.202 144.404C501.917 143.118 500.203 141.119 498.774 138.405C498.06 137.119 497.346 135.548 496.775 133.834C496.203 132.12 495.918 130.263 495.632 128.264C495.489 126.264 495.489 124.264 495.775 122.265C495.918 121.265 496.06 120.265 496.346 119.265C496.489 118.694 496.489 118.408 496.775 117.551L497.203 116.123C497.632 114.409 498.774 112.266 499.917 110.409C501.06 108.695 502.631 106.981 504.202 105.696C505.916 104.41 507.63 103.411 509.344 102.696C511.058 101.982 512.915 101.554 514.486 101.268C516.057 100.982 517.628 100.982 518.914 100.982C520.199 100.982 521.342 100.982 522.342 101.125C523.342 101.268 524.056 101.268 524.484 101.411C525.056 101.554 525.341 101.554 525.341 101.554C527.198 101.982 528.341 103.696 527.912 105.553C527.484 107.41 525.77 108.553 523.913 108.124H523.77H523.484C523.484 108.124 523.342 108.124 523.056 107.981C522.627 107.838 522.199 107.696 521.342 107.696C520.628 107.553 519.771 107.41 518.628 107.41C517.628 107.41 516.486 107.267 515.2 107.41C513.915 107.553 512.629 107.696 511.344 108.267C510.058 108.695 508.63 109.267 507.487 110.124C506.202 110.981 505.059 112.123 504.059 113.409C503.059 114.694 502.345 115.837 501.631 117.837L501.06 119.122L500.774 120.265C500.488 121.122 500.203 121.979 500.203 122.836C499.917 124.55 499.774 126.264 499.774 127.835C499.774 129.406 500.06 131.12 500.345 132.549C500.631 133.977 501.202 135.405 501.774 136.548C502.916 138.976 504.345 140.833 505.345 141.976C505.916 142.547 506.344 142.975 506.63 143.261C506.916 143.547 507.059 143.69 507.059 143.69H507.201C507.773 144.261 507.916 145.261 507.344 145.832C506.916 146.546 506.059 146.689 505.345 146.261Z" fill="#0C8792"/>
<path d="M522.628 104.268C522.628 104.268 522.628 103.982 522.771 103.268C522.913 102.697 523.199 101.84 523.485 100.697C524.199 98.5545 525.342 95.555 527.77 92.2698C528.912 90.6987 530.484 88.9847 532.34 87.6992C534.197 86.2708 536.34 85.1282 538.625 84.1283C539.768 83.6998 541.053 83.4142 542.339 82.9857C543.624 82.7 544.91 82.5572 546.195 82.4143C547.481 82.2715 548.766 82.2715 550.052 82.2715H551.052H551.194H551.623H551.766H552.194L553.908 82.4143C554.48 82.5572 554.908 82.5572 555.622 82.7L557.765 83.2713C558.479 83.557 559.193 83.6998 559.907 83.9855L561.764 84.8425C563.05 85.4138 564.192 86.128 565.192 86.985C566.335 87.6992 567.192 88.699 568.192 89.556C571.762 93.2697 573.762 97.6975 574.905 101.268C576.047 104.982 576.619 108.124 576.904 110.267C577.047 111.409 577.047 112.266 577.19 112.838C577.19 113.552 577.19 113.838 577.19 113.838C577.333 116.409 575.333 118.551 572.762 118.551C570.191 118.694 568.049 116.694 568.049 114.123V113.98V113.695C568.049 113.695 568.049 113.552 568.049 113.123C568.049 112.695 568.049 111.981 567.906 111.124C567.763 109.41 567.477 106.696 566.62 103.839C565.763 100.983 564.335 97.6975 562.05 95.1265C561.478 94.5552 560.907 93.841 560.193 93.2697C559.479 92.6983 558.765 92.127 558.05 91.8413L556.908 91.1272C556.479 90.9843 556.194 90.8415 555.765 90.6987L554.622 90.2702C554.194 90.1273 553.48 90.1273 553.051 89.9845L551.337 89.6988H550.909H550.766C550.48 89.6988 551.194 89.6988 551.052 89.6988H550.909H550.195C549.195 89.6988 548.195 89.556 547.195 89.6988C546.195 89.8417 545.195 89.8417 544.338 89.9845C543.481 90.2702 542.482 90.413 541.625 90.6987C539.911 91.27 538.339 91.9842 537.054 92.984C535.768 93.841 534.626 94.9837 533.769 96.1263C531.912 98.4117 530.912 100.697 530.341 102.411C530.055 103.268 529.912 103.839 529.769 104.268C529.627 104.696 529.627 104.839 529.627 104.839V105.125C529.198 106.982 527.484 107.981 525.627 107.696C523.342 107.696 522.342 105.982 522.628 104.268Z" fill="#0C8792"/>
<path d="M593.616 125.265C593.616 125.265 594.616 125.265 596.187 125.407C597.758 125.55 599.9 125.836 602.471 126.55C605.042 127.264 608.042 128.407 610.899 130.692C612.327 131.835 613.612 133.12 614.755 134.692C615.326 135.549 615.755 136.263 616.183 137.263L616.755 138.548L617.04 139.976C617.469 141.405 617.897 143.547 617.897 145.261C618.04 147.118 617.897 148.832 617.469 150.403C616.755 153.688 615.469 156.545 614.041 158.688C612.613 160.83 611.041 162.401 610.042 163.401C608.899 164.401 608.185 164.972 608.185 164.972C607.471 165.544 606.328 165.401 605.757 164.687C605.185 163.972 605.328 162.83 606.042 162.258C605.899 162.401 608.47 160.402 610.613 156.545C611.756 154.688 612.613 152.26 612.898 149.546C613.041 148.261 613.041 146.832 612.898 145.547C612.755 144.119 612.47 143.119 611.898 141.405L611.613 140.405L611.184 139.548C610.899 138.977 610.47 138.405 610.184 137.977C609.47 136.977 608.47 136.263 607.471 135.549C605.328 134.263 603.043 133.406 600.9 132.978C598.758 132.549 597.044 132.406 595.758 132.406C594.473 132.406 593.901 132.406 593.901 132.406C591.902 132.406 590.188 130.835 590.188 128.835C590.045 126.979 591.616 125.265 593.616 125.265Z" fill="#0C8792"/>
<path d="M498.774 142.69C498.774 142.69 498.631 142.69 498.488 142.69C498.203 142.69 497.917 142.833 497.488 142.975C496.489 143.261 495.203 143.69 493.775 144.689C493.061 145.118 492.346 145.689 491.775 146.403C491.061 147.118 490.49 147.975 490.061 148.974C489.633 149.974 489.204 150.974 488.918 152.26C488.633 153.402 488.49 154.831 488.49 155.973C488.49 157.544 488.633 158.544 488.918 159.687C489.204 160.83 489.633 161.972 490.347 162.972C491.632 164.972 493.346 166.4 495.06 167.4C496.774 168.4 498.345 168.971 499.488 169.257C500.631 169.542 501.345 169.685 501.202 169.685C501.916 169.685 502.488 170.399 502.345 171.114C502.345 171.828 501.631 172.399 500.916 172.256C500.916 172.256 500.059 172.256 498.774 171.971C497.488 171.685 495.632 171.256 493.346 170.399C491.204 169.4 488.776 167.828 486.776 165.4C485.776 164.115 485.062 162.686 484.491 161.258C484.205 160.544 484.062 159.544 483.776 158.83C483.491 157.973 483.491 157.402 483.348 156.545C483.348 156.116 483.205 155.973 483.205 155.259V154.116C483.205 153.259 483.205 152.545 483.348 151.688C483.491 150.117 483.776 148.403 484.348 146.975C484.919 145.404 485.633 143.975 486.633 142.833C487.49 141.547 488.49 140.547 489.633 139.69C491.632 137.976 493.632 137.119 495.06 136.548C495.774 136.262 496.346 136.119 496.774 135.977C497.203 135.834 497.488 135.834 497.488 135.834C499.488 135.405 501.488 136.548 501.916 138.548C502.345 140.547 501.202 142.547 499.202 142.975C499.06 142.69 498.917 142.69 498.774 142.69Z" fill="#0C8792"/>
<path d="M586.331 185.825C586.331 185.825 586.33 186.825 586.045 188.396C585.759 189.967 585.331 192.11 584.474 194.681C583.617 197.252 582.331 200.251 579.903 202.965C578.76 204.251 577.332 205.536 575.618 206.536C574.761 206.965 573.904 207.536 573.047 207.822L571.619 208.25L570.333 208.536C568.905 208.964 566.762 209.107 565.048 209.107C563.192 209.107 561.478 208.821 559.906 208.536C556.621 207.679 553.907 206.25 551.765 204.679C549.622 203.108 548.194 201.537 547.194 200.394C546.194 199.252 545.766 198.537 545.766 198.395C545.195 197.68 545.48 196.538 546.194 195.966C546.909 195.395 548.051 195.681 548.623 196.395C548.623 196.252 550.337 198.823 554.193 201.251C556.05 202.394 558.478 203.537 561.049 203.965C562.334 204.251 563.763 204.251 565.048 204.108C566.477 203.965 567.477 203.822 569.191 203.251L570.19 202.965L571.047 202.537C571.619 202.251 572.19 201.965 572.619 201.537C573.618 200.823 574.475 199.823 575.19 198.966C576.618 196.966 577.475 194.681 578.046 192.538C578.618 190.396 578.76 188.682 578.903 187.396C579.046 186.111 578.903 185.54 578.903 185.54C578.903 183.54 580.617 181.969 582.617 181.969C584.759 182.112 586.473 183.683 586.331 185.825Z" fill="#0C8792"/>
<path d="M472.921 303.95L466.922 287.238C466.922 287.238 480.777 285.096 473.493 266.956C469.35 256.815 457.638 264.813 457.638 264.813C457.638 264.813 455.638 250.101 440.355 253.387C428.357 255.958 428.072 275.24 432.785 281.382C437.356 287.524 442.069 286.952 442.069 286.952C442.069 286.952 432.071 286.667 433.642 295.808C435.213 304.949 443.069 305.378 449.068 302.378C451.925 300.95 454.067 297.379 454.067 297.379L467.065 308.092C468.208 309.092 469.922 309.234 471.35 308.52C472.921 307.806 473.635 305.806 472.921 303.95Z" fill="#0C8792"/>
<path d="M615.468 341.372C614.897 344.086 613.897 346.514 612.755 347.8C609.327 351.799 603.899 352.227 603.899 352.227C603.899 352.227 608.755 354.941 605.185 360.797C602.471 365.082 594.472 362.511 592.33 359.798C590.044 357.084 590.044 353.941 590.044 353.941L580.331 362.226C578.76 363.654 576.189 363.511 574.761 361.797C573.476 360.369 573.476 358.084 574.761 356.655L576.046 355.227L583.902 345.943C583.902 345.943 572.761 341.372 576.761 333.088C580.331 325.518 587.473 329.088 589.33 331.088C591.044 332.945 591.33 336.087 591.33 336.087C591.33 336.087 594.615 323.375 606.47 326.232C615.326 328.231 616.611 335.516 615.468 341.372Z" fill="#0C8792"/>
<path d="M311.805 516.057C314.09 519.2 314.233 523.485 311.948 526.77L311.091 527.912C310.234 529.055 308.948 529.626 307.663 529.626C306.663 529.626 305.806 529.341 304.949 528.627L291.237 516.629C291.237 516.629 284.524 532.197 266.241 528.627C253.529 526.056 250.244 515.2 251.672 506.202C252.243 501.774 253.957 497.775 256.243 495.346C260.242 491.061 265.384 490.49 269.098 490.633C265.384 489.49 260.099 486.491 258.1 479.063C256.814 474.35 257.1 469.636 258.814 465.923C261.528 460.067 267.669 456.353 276.382 457.353C290.808 459.21 291.094 479.635 291.094 479.635C291.094 479.635 296.093 465.78 309.805 471.779C321.803 477.064 318.375 493.061 310.234 499.346C305.949 502.631 302.235 503.345 302.235 503.345L311.805 516.057Z" fill="#49A2AA"/>
<path d="M280.81 493.204C280.81 493.204 274.954 492.062 269.241 490.49C265.527 489.348 260.242 486.491 258.1 478.921C256.814 474.207 257.1 469.494 258.814 465.78C259.671 470.779 261.956 478.635 267.527 483.777C276.24 491.776 280.81 493.204 280.81 493.204Z" fill="#438E95"/>
<path d="M311.091 527.769C310.234 528.912 308.948 529.483 307.663 529.483C306.663 529.483 305.806 529.198 304.949 528.483L291.237 516.485C291.237 516.485 284.524 532.054 266.241 528.483C253.529 525.912 250.244 515.057 251.672 506.059C253.672 510.344 258.1 515.2 268.241 516.914C288.523 520.485 289.094 507.773 289.094 507.773L311.091 527.769Z" fill="#438E95"/>
<path d="M365.511 484.491C363.654 484.491 357.512 484.062 351.941 478.92C346.371 473.778 343.514 465.637 343.371 454.924C343.086 429.643 338.229 426.215 332.945 424.644C325.517 422.501 317.519 425.358 317.519 425.358C314.662 426.501 311.52 425.072 310.377 422.216C309.234 419.359 310.663 416.217 313.519 415.074C313.948 414.931 324.803 410.789 335.944 413.931C350.799 418.216 354.084 432.642 354.227 454.639C354.37 462.066 356.084 467.637 359.083 470.636C361.94 473.35 365.225 473.35 365.225 473.35C368.224 473.064 370.795 475.635 370.938 478.635C371.081 481.634 368.796 484.205 365.796 484.348C365.939 484.491 365.796 484.491 365.511 484.491Z" fill="#49A2AA"/>
<path d="M361.083 407.647C359.654 408.932 355.512 413.503 354.941 420.93C354.512 428.5 357.94 436.356 365.225 444.355C382.222 462.923 381.222 468.779 378.366 473.493C374.366 480.206 366.653 483.491 366.653 483.491C363.797 484.634 362.511 487.776 363.654 490.633C364.796 493.489 367.939 494.775 370.795 493.632C371.224 493.489 382.079 489.062 387.935 479.063C395.791 465.637 388.221 453.068 373.509 436.785C368.51 431.357 365.939 426.072 366.082 421.787C366.225 417.788 368.653 415.645 368.796 415.502C371.081 413.646 371.224 410.075 369.224 407.789C367.225 405.504 363.939 405.218 361.511 407.218C361.368 407.361 361.226 407.504 361.083 407.647Z" fill="#2C6E74"/>
<path d="M614.183 440.355C608.755 440.355 602.756 438.641 597.329 434.356C588.045 427.214 581.903 432.07 581.903 432.213C579.617 434.213 576.047 433.927 574.19 431.499C572.19 429.214 572.476 425.643 574.904 423.786C579.332 420.072 591.187 415.645 604.185 425.643C611.184 431.071 618.611 429.642 621.468 426.928C624.181 424.5 625.753 417.501 626.038 413.359C626.181 410.36 628.895 407.932 631.894 408.217C634.894 408.36 637.179 411.074 637.036 414.073C636.894 415.502 635.894 428.785 628.895 435.07C625.324 438.355 620.039 440.355 614.183 440.355Z" fill="#2C6E74"/>
<path d="M611.327 508.344L656.891 559.335C656.891 559.335 643.607 536.482 632.181 522.056C620.183 507.201 611.327 508.344 611.327 508.344Z" fill="#49A2AA"/>
<path d="M647.179 531.768C647.179 531.768 635.466 517.771 633.752 515.628C629.182 510.058 625.896 508.344 625.896 508.344C625.896 508.344 630.039 507.772 635.466 514.628C640.894 521.342 647.179 531.768 647.179 531.768Z" fill="#49A2AA"/>
<path d="M577.332 484.205L597.9 448.782L585.616 481.491L603.756 499.488L577.332 484.205Z" fill="#49A2AA"/>
<path d="M609.47 466.493L579.903 482.348L587.188 485.061L609.47 466.493Z" fill="#49A2AA"/>
<path d="M310.805 404.075L300.092 391.649C298.807 390.077 298.95 387.792 300.521 386.364C302.092 385.078 304.377 385.221 305.806 386.792C306.091 387.078 306.234 387.364 306.377 387.649L313.233 402.504C313.519 403.218 313.233 404.075 312.519 404.361C311.947 404.789 311.233 404.646 310.805 404.075Z" fill="#49A2AA"/>
<path d="M300.949 417.644L280.81 419.644C278.81 419.787 276.953 418.358 276.811 416.359C276.668 414.359 278.096 412.502 280.096 412.359C280.381 412.359 280.667 412.359 280.953 412.359L300.949 414.788C301.806 414.93 302.235 415.645 302.235 416.359C302.092 417.073 301.664 417.644 300.949 417.644Z" fill="#49A2AA"/>
<path d="M309.805 434.213L299.95 446.497C298.664 448.068 296.379 448.353 294.808 447.068C293.236 445.782 292.951 443.497 294.236 441.926C294.379 441.64 294.665 441.355 294.95 441.212L307.805 432.07C308.52 431.642 309.377 431.785 309.948 432.356C310.376 432.927 310.234 433.642 309.805 434.213Z" fill="#49A2AA"/>
<path d="M369.509 396.791L377.079 386.793C378.079 385.508 379.793 385.365 381.079 386.222C382.364 387.222 382.507 388.936 381.65 390.221C381.507 390.364 381.364 390.65 381.079 390.793L371.08 398.363C370.652 398.791 369.938 398.648 369.509 398.22C369.224 397.791 369.224 397.22 369.509 396.791Z" fill="#49A2AA"/>
<path d="M357.797 391.649L352.941 376.937C352.512 375.509 353.226 373.795 354.798 373.367C356.226 372.938 357.94 373.652 358.368 375.223C358.368 375.366 358.511 375.652 358.511 375.795L359.94 391.221C359.94 391.792 359.511 392.363 358.94 392.363C358.368 392.363 357.94 392.078 357.797 391.649Z" fill="#49A2AA"/>
<path d="M346.799 400.934L335.944 395.506C334.515 394.792 333.944 393.078 334.658 391.65C335.372 390.221 337.086 389.65 338.515 390.364C338.8 390.507 338.943 390.65 339.229 390.793L348.227 398.934C348.656 399.363 348.799 400.077 348.37 400.648C347.799 401.077 347.227 401.219 346.799 400.934Z" fill="#49A2AA"/>
<path d="M634.894 382.365L632.323 397.076C632.181 397.933 631.466 398.362 630.609 398.219C629.895 398.076 629.467 397.505 629.324 396.934L627.467 382.079C627.181 380.079 628.61 378.222 630.752 377.937C632.752 377.651 634.609 379.079 634.894 381.222C635.037 381.65 635.037 381.936 634.894 382.365Z" fill="#49A2AA"/>
<path d="M660.747 396.22L645.749 406.075C644.749 406.647 643.464 406.504 642.893 405.504C642.321 404.647 642.464 403.504 643.178 402.79L656.319 390.506C657.747 389.078 660.175 389.221 661.461 390.649C662.889 392.078 662.746 394.506 661.318 395.791C661.032 395.934 660.89 396.077 660.747 396.22Z" fill="#49A2AA"/>
<path d="M658.319 427.643L645.464 421.501C644.607 421.073 644.178 420.073 644.607 419.073C644.892 418.359 645.749 417.93 646.463 418.073L660.461 420.501C662.461 420.787 663.889 422.787 663.461 424.786C663.175 426.786 661.175 428.214 659.176 427.786C659.033 427.929 658.747 427.786 658.319 427.643Z" fill="#49A2AA"/>
<path d="M457.067 357.655C457.067 357.655 396.934 429.643 394.649 427.786C394.077 427.358 393.078 424.073 391.792 418.788C388.364 403.79 383.651 372.367 383.079 338.944C382.365 293.951 383.508 280.239 395.506 274.669C404.361 270.527 428.5 310.377 444.355 337.087C450.068 346.228 454.496 353.799 457.067 357.655Z" fill="#49A2AA"/>
<path d="M457.067 357.655C457.067 357.655 396.934 429.643 394.649 427.786C394.077 427.358 393.077 424.072 391.792 418.788C397.648 403.79 404.79 387.936 412.646 375.938C425.358 356.798 436.785 344.371 444.355 337.087C450.068 346.228 454.496 353.798 457.067 357.655Z" fill="#09858F"/>
<path d="M665.318 605.185C661.604 612.898 627.181 602.185 599.043 592.473C593.615 590.616 588.33 588.759 583.474 587.045C572.333 583.189 564.906 572.619 564.906 560.764C565.049 533.197 562.478 489.347 567.762 487.062C574.047 484.205 605.185 514.914 633.609 547.909C663.032 582.046 670.888 593.33 665.318 605.185Z" fill="#49A2AA"/>
<path d="M599.043 592.473C593.615 590.617 588.33 588.76 583.474 587.046C572.333 583.189 564.906 572.62 564.906 560.765C565.049 533.198 562.478 489.348 567.762 487.062C567.905 487.062 579.618 523.342 587.616 551.909C592.187 568.477 596.043 582.047 599.043 592.473Z" fill="#09858F"/>
<path d="M578.475 415.645C577.475 454.638 571.762 519.485 548.48 583.76C528.341 639.465 510.915 676.459 499.345 698.312C489.776 716.309 484.205 724.308 484.205 724.308C484.205 724.308 469.065 731.878 439.927 734.163C423.644 735.449 403.076 735.163 378.366 731.021C309.234 719.451 301.95 697.741 301.95 697.741C301.95 697.741 300.95 685.314 304.235 660.89C308.377 629.466 319.804 578.332 349.656 508.487C383.222 430.357 421.501 384.364 445.212 361.083C459.209 347.371 468.208 341.514 468.208 341.514C468.208 341.514 486.776 333.944 525.198 345.942C540.481 350.656 552.051 356.798 560.192 362.654C572.762 371.367 577.904 379.08 577.904 379.08C577.904 379.08 579.189 393.077 578.475 415.645Z" fill="#49A2AA"/>
<path d="M578.475 415.644C577.475 454.638 571.762 519.484 548.48 583.759C528.341 639.464 510.915 676.458 499.345 698.312C489.776 716.309 484.205 724.307 484.205 724.307C484.205 724.307 469.065 731.877 439.927 734.163C458.495 708.738 486.062 664.603 513.486 597.757C558.05 489.204 560.764 393.791 560.335 362.653C572.905 371.366 578.047 379.079 578.047 379.079C578.047 379.079 579.189 393.077 578.475 415.644Z" fill="#438E95"/>
<path d="M320.519 654.748C320.09 654.748 319.804 654.748 319.376 654.605C315.377 654.034 312.663 650.178 313.234 646.178C313.663 643.75 322.804 584.903 348.085 525.627C373.367 466.494 393.364 437.499 394.221 436.213C396.506 432.928 401.077 432.071 404.505 434.356C407.79 436.642 408.647 441.212 406.361 444.64C406.219 444.926 386.222 473.778 361.655 531.34C337.087 588.902 327.803 647.749 327.803 648.321C327.089 652.177 323.947 654.748 320.519 654.748Z" fill="#49A2AA"/>
<path d="M578.475 415.646C573.476 411.218 567.048 406.076 559.335 400.791C556.193 398.649 552.765 396.364 549.051 394.078C547.052 392.936 545.052 391.65 542.909 390.507C534.482 385.651 524.912 381.08 514.486 377.081C513.629 376.795 512.914 376.51 512.057 376.224C510.486 375.653 509.058 375.081 507.63 374.653C495.632 370.368 485.062 367.511 476.063 365.512C473.492 364.94 470.921 364.512 468.636 363.94C458.638 362.084 450.925 361.512 445.497 361.227C459.495 347.515 468.493 341.658 468.493 341.658C468.493 341.658 474.207 339.373 485.919 339.373C488.49 339.373 491.347 339.516 494.489 339.802C501.916 340.373 510.915 341.944 521.484 344.944C522.77 345.372 524.198 345.658 525.484 346.086C526.484 346.372 527.483 346.658 528.483 347.086C536.768 349.943 543.909 353.085 549.908 356.227C552.336 357.513 554.479 358.798 556.621 360.227C558.05 361.084 559.192 361.941 560.478 362.798C573.047 371.511 578.189 379.224 578.189 379.224C578.189 379.224 579.189 393.078 578.475 415.646Z" fill="#0B6269"/>
<path d="M578.475 415.645C573.475 411.217 567.048 406.075 559.335 400.791C560.478 384.079 560.478 371.081 560.478 362.797C573.047 371.51 578.189 379.223 578.189 379.223C578.189 379.223 579.189 393.078 578.475 415.645Z" fill="#438E95"/>
<path d="M556.621 360.226L550.051 392.363C549.908 393.077 549.622 393.649 549.051 394.22C547.051 393.077 545.052 391.792 542.909 390.649L549.908 356.369C552.336 357.655 554.622 358.94 556.621 360.226Z" fill="#438E95"/>
<path d="M528.483 347.085L514.485 377.08C513.628 376.794 512.914 376.509 512.057 376.223C510.486 375.652 509.057 375.08 507.629 374.652L521.341 344.942C522.626 345.371 524.055 345.657 525.34 346.085C526.483 346.514 527.483 346.799 528.483 347.085Z" fill="#438E95"/>
<path d="M494.489 339.801C494.346 340.086 494.203 340.372 494.06 340.658L476.063 365.511C473.492 364.939 470.921 364.511 468.636 363.94C468.779 363.368 468.921 362.797 469.35 362.226L485.919 339.229C488.49 339.372 491.346 339.515 494.489 339.801Z" fill="#438E95"/>
<path d="M391.141 679.919C424.719 691.438 464.888 663.031 480.861 616.47C496.834 569.909 482.563 522.826 448.985 511.306C415.408 499.787 375.239 528.194 359.265 574.755C343.292 621.316 357.564 668.4 391.141 679.919Z" fill="#438E95"/>
<path d="M395.74 676.263C429.318 687.782 469.342 659.798 485.136 613.759C500.93 567.721 486.513 521.061 452.935 509.542C419.358 498.023 379.334 526.006 363.54 572.045C347.746 618.084 362.163 664.744 395.74 676.263Z" fill="#0B6269"/>
<path d="M399.067 660.319C425.705 669.458 457.655 646.682 470.428 609.448C483.202 572.214 471.962 534.622 445.324 525.483C418.685 516.345 386.736 539.121 373.962 576.354C361.189 613.588 372.429 651.181 399.067 660.319Z" fill="#2C6E74"/>
<path d="M412.574 571.249C420.185 573.86 429.322 567.327 432.983 556.656C436.643 545.986 433.441 535.22 425.83 532.609C418.219 529.998 409.081 536.531 405.421 547.201C401.76 557.871 404.963 568.638 412.574 571.249Z" fill="#438E95"/>
<path d="M395.118 618.173C399.222 619.581 404.126 616.125 406.072 610.454C408.017 604.784 406.267 599.045 402.163 597.637C398.059 596.229 393.155 599.685 391.21 605.356C389.264 611.027 391.014 616.765 395.118 618.173Z" fill="#438E95"/>
<path d="M470.493 609.469C457.638 646.749 425.786 669.459 399.076 660.318C385.079 655.462 375.223 642.75 371.081 626.324C374.509 628.609 378.223 630.609 382.222 631.894C415.359 643.321 455.21 614.897 471.064 568.476C472.064 565.62 472.921 562.763 473.635 559.906C477.206 574.618 476.492 592.187 470.493 609.469Z" fill="#09555B"/>
<path d="M499.488 698.455C489.918 716.452 484.348 724.45 484.348 724.45C484.348 724.45 469.207 732.02 440.069 734.306C423.786 735.591 403.218 735.306 378.508 731.163C352.941 726.878 335.944 721.165 324.517 715.737C305.092 706.453 302.092 697.883 302.092 697.883C302.092 697.883 301.093 685.457 304.378 661.032C310.377 666.603 318.375 672.887 328.945 678.744C345.228 687.742 367.367 696.169 397.505 700.597C420.073 703.882 441.641 704.311 460.923 703.025C475.206 702.311 488.204 700.454 499.488 698.455Z" fill="#49A2AA"/>
<path d="M499.488 698.454C489.918 716.451 484.348 724.45 484.348 724.45C484.348 724.45 469.207 732.02 440.069 734.305C446.211 725.878 453.21 715.594 460.923 703.025C475.206 702.311 488.204 700.454 499.488 698.454Z" fill="#438E95"/>
<path d="M328.945 678.887L324.517 715.881C305.092 706.597 302.092 698.027 302.092 698.027C302.092 698.027 301.093 685.6 304.378 661.176C310.377 666.746 318.375 672.888 328.945 678.887Z" fill="#49A2AA"/>
</svg>
