<svg width="25" height="15" viewBox="0 0 25 15" fill="none" xmlns="http://www.w3.org/2000/svg">
<path d="M15.3673 6.41901C15.1069 6.47248 14.9398 6.72732 14.9937 6.98731C15.0279 7.15445 15.0456 7.32695 15.0456 7.4999C15.0456 8.90321 13.9036 10.0454 12.5001 10.0454C11.0966 10.0454 9.95462 8.90338 9.95462 7.4999C9.95462 6.09643 11.0966 4.95442 12.5001 4.95442C13.0351 4.95442 13.547 5.11843 13.9797 5.42853C14.1956 5.58291 14.4961 5.53368 14.6512 5.31755C14.806 5.10142 14.7561 4.80071 14.54 4.64608C13.943 4.21852 13.2374 3.99232 12.5004 3.99232C10.5661 3.99232 8.99257 5.56591 8.99257 7.50012C8.99234 9.43439 10.5662 11.0077 12.5004 11.0077C14.4346 11.0077 16.0082 9.4341 16.0082 7.49989C16.0082 7.2616 15.984 7.02399 15.9359 6.79262C15.882 6.53219 15.6278 6.36438 15.3674 6.41898L15.3673 6.41901ZM24.8015 7.2209C21.7547 2.93938 17.2712 0.483887 12.5 0.483887C7.72876 0.483887 3.24563 2.93921 0.198456 7.2209L0 7.4999L0.198456 7.77891C3.24495 12.0604 7.72876 14.5159 12.5 14.5159C17.2712 14.5159 21.7549 12.0606 24.8015 7.77891L25 7.4999L24.8015 7.2209ZM12.5 13.5535C8.14821 13.5535 4.04237 11.3521 1.18535 7.49984C4.04277 3.64745 8.14861 1.44615 12.5 1.44615C16.8514 1.44615 20.9571 3.64734 23.8147 7.49984C20.9577 11.3522 16.852 13.5535 12.5 13.5535Z" fill="#EAE7F4"/>
</svg>
