<svg width="352" height="387" viewBox="0 0 352 387" fill="none" xmlns="http://www.w3.org/2000/svg">
<path d="M302.665 386.255C293.644 386.255 284.696 383.396 277.129 377.796L191.926 314.739C182.213 307.541 169.166 307.541 159.453 314.739L74.2502 377.796C61.271 387.401 44.2142 388.947 29.7236 381.812C15.2342 374.687 6.03556 360.233 5.72356 344.093L0.00995598 50.7867C-0.255671 37.2974 4.80168 24.568 14.2499 14.932C23.6926 5.30174 36.3233 0 49.8126 0H301.573C315.062 0 327.693 5.30214 337.135 14.932C346.583 24.5623 351.641 37.296 351.375 50.7867L345.657 344.093C345.344 360.239 336.146 374.687 321.656 381.812C315.615 384.791 309.125 386.255 302.667 386.255L302.665 386.255ZM294.899 353.791C300.691 358.072 306.316 356.072 308.478 355.015C310.634 353.957 315.655 350.713 315.801 343.51L321.514 50.2029C321.619 44.8018 319.598 39.7029 315.811 35.8429C312.03 31.9836 306.973 29.8637 301.571 29.8637H49.8114C44.4104 29.8637 39.353 31.9834 35.5768 35.8429C31.7904 39.7022 29.7694 44.796 29.8737 50.2029L35.5873 343.51C35.7279 350.713 40.754 353.957 42.9102 355.015C45.0665 356.077 50.6966 358.072 56.4889 353.791L141.692 290.733C162.036 275.676 189.369 275.676 209.702 290.733L294.899 353.791Z" fill="black"/>
</svg>
