<svg width="17" height="22" viewBox="0 0 17 22" fill="none" xmlns="http://www.w3.org/2000/svg">
<path d="M0.00488281 13.6013C0.00488281 11.2274 1.11004 9.0386 2.59959 6.86298C6.05908 1.80943 3.03214 -0.717458 6.05908 1.80943C10.167 5.81014 7.4511 11.0744 9.95076 11.0744C12.1129 11.0744 11.8942 7.06926 11.8942 7.06926C11.8954 6.6063 12.1856 6.47763 12.5343 6.7993C12.5343 6.7993 16.0049 9.48456 16.0049 13.6007C16.0049 16.9149 14.196 19.9054 11.248 21.1812L10.4246 20.2652C9.20715 18.9103 7.23359 18.9109 6.01677 20.2652L5.19423 21.1818C2.24632 19.9062 0.00489106 17.0985 0.00489106 13.6013L0.00488281 13.6013ZM9.18699 1.74333C9.8539 1.63082 11.3651 2.30441 12.1442 3.47502C13.2323 5.16618 10.6481 5.92468 10.2514 4.0643C9.8554 2.20303 8.52005 1.85552 9.18699 1.74332V1.74333Z" fill="#0DF6E3"/>
</svg>
