<svg width="19" height="19" viewBox="0 0 19 19" fill="none" xmlns="http://www.w3.org/2000/svg">
<path d="M9.5 0.725098C4.52975 0.725098 0.5 4.71562 0.5 9.6375C0.5 13.8137 3.404 17.3081 7.319 18.2751C7.277 18.1548 7.25 18.0152 7.25 17.8421V16.3188C6.88475 16.3188 6.27275 16.3188 6.119 16.3188C5.50325 16.3188 4.95575 16.0567 4.69025 15.5694C4.3955 15.028 4.3445 14.1999 3.614 13.6934C3.39725 13.5248 3.56225 13.3324 3.812 13.3584C4.27325 13.4877 4.65575 13.8011 5.01575 14.266C5.37425 14.7317 5.543 14.8371 6.21275 14.8371C6.5375 14.8371 7.0235 14.8186 7.481 14.7473C7.727 14.1286 8.15225 13.559 8.672 13.2901C5.675 12.9848 4.24475 11.5084 4.24475 9.50381C4.24475 8.64079 4.616 7.806 5.24675 7.10266C5.03975 6.40452 4.7795 4.98077 5.32625 4.4386C6.67475 4.4386 7.49 5.30459 7.68575 5.53854C8.35775 5.31053 9.09575 5.1813 9.87125 5.1813C10.6482 5.1813 11.3892 5.31053 12.0627 5.54002C12.2562 5.30756 13.0723 4.4386 14.4237 4.4386C14.9728 4.98151 14.7095 6.41121 14.5002 7.10786C15.1272 7.80971 15.4963 8.64228 15.4963 9.50381C15.4963 11.5069 14.0682 12.9826 11.0758 13.2894C11.8993 13.7149 12.5 14.9107 12.5 15.8116V17.8421C12.5 17.9193 12.4827 17.975 12.4738 18.0411C15.9808 16.8239 18.5 13.5263 18.5 9.6375C18.5 4.71562 14.4703 0.725098 9.5 0.725098Z" fill="#1F1A30"/>
</svg>
