<svg width="5" height="13" viewBox="0 0 5 13" fill="none" xmlns="http://www.w3.org/2000/svg">
<path d="M4.8252 1.22461C4.78418 1.44141 4.72852 1.62598 4.6582 1.77832C4.58789 1.9248 4.49414 2.04492 4.37695 2.13867C4.25977 2.22656 4.11621 2.29102 3.94629 2.33203C3.77637 2.36719 3.56543 2.38477 3.31348 2.38477C3.06738 2.38477 2.86523 2.36719 2.70703 2.33203C2.55469 2.29102 2.4375 2.22656 2.35547 2.13867C2.2793 2.04492 2.23535 1.9248 2.22363 1.77832C2.21191 1.62598 2.22949 1.44141 2.27637 1.22461C2.31738 1.01367 2.37305 0.834961 2.44336 0.688477C2.51367 0.541992 2.60742 0.421875 2.72461 0.328125C2.8418 0.234375 2.98535 0.166992 3.15527 0.125977C3.3252 0.0849609 3.53613 0.0644531 3.78809 0.0644531C4.03418 0.0644531 4.2334 0.0849609 4.38574 0.125977C4.54395 0.166992 4.66113 0.234375 4.7373 0.328125C4.81934 0.421875 4.86328 0.541992 4.86914 0.688477C4.88086 0.834961 4.86621 1.01367 4.8252 1.22461ZM2.55762 11.7012C2.5459 11.7598 2.5166 11.8125 2.46973 11.8594C2.42871 11.9004 2.36133 11.9355 2.26758 11.9648C2.17969 11.9941 2.0625 12.0146 1.91602 12.0264C1.76953 12.0439 1.59082 12.0527 1.37988 12.0527C1.16309 12.0527 0.984375 12.0439 0.84375 12.0264C0.708984 12.0146 0.600586 11.9941 0.518555 11.9648C0.442383 11.9355 0.392578 11.9004 0.369141 11.8594C0.345703 11.8125 0.339844 11.7598 0.351562 11.7012L1.90723 3.87891C1.91895 3.82031 1.94531 3.77051 1.98633 3.72949C2.0332 3.68262 2.10059 3.64453 2.18848 3.61523C2.28223 3.58008 2.39941 3.55371 2.54004 3.53613C2.68652 3.51855 2.86816 3.50977 3.08496 3.50977C3.30176 3.50977 3.47754 3.51855 3.6123 3.53613C3.75293 3.55371 3.86133 3.58008 3.9375 3.61523C4.01953 3.64453 4.07227 3.68262 4.0957 3.72949C4.11914 3.77051 4.125 3.82031 4.11328 3.87891L2.55762 11.7012Z" fill="white"/>
</svg>
