<svg width="672" height="672" viewBox="0 0 672 672" fill="none" xmlns="http://www.w3.org/2000/svg">
<path d="M209.067 126.931C254.427 126.931 291.197 165.379 291.197 212.8C291.197 260.216 254.427 298.664 209.067 298.664C163.707 298.664 126.931 260.216 126.931 212.8C126.931 165.379 163.707 126.931 209.067 126.931ZM209.067 255.733C231.744 255.733 250.135 236.509 250.135 212.801C250.135 189.088 231.744 169.864 209.067 169.864C186.384 169.864 167.999 189.088 167.999 212.801C167.999 236.509 186.384 255.733 209.067 255.733ZM630 0C653.213 0 672 18.7867 672 42V630C672 653.213 653.213 672 630 672H42C18.7867 672 0 653.213 0 630V42C0 18.7867 18.7867 0 42 0H630ZM42 609C42 614.828 44.3645 620.078 48.1927 623.891C44.3853 620.078 42 614.828 42 609ZM630 609V545.959L476.907 392.865C468.704 384.662 455.412 384.662 447.209 392.865C447.209 392.865 346.084 493.991 323.751 516.344C301.417 538.656 286.371 538.328 264.365 516.344C242.355 494.313 224.907 476.865 224.907 476.865C216.704 468.662 203.412 468.662 195.209 476.865L48.1827 623.892C51.9744 627.658 57.2035 630.001 62.9893 630.001H608.989C620.593 630.001 629.989 620.605 629.989 609.001L630 609ZM630 486.568V62.9947C630 51.3905 620.604 41.9947 609 41.9947H63C51.3959 41.9947 42 51.3905 42 62.9947V570.688L180.373 432.341C196.775 415.899 223.357 415.899 239.759 432.341L294.065 486.628L432.372 348.348C448.773 331.905 475.356 331.905 491.757 348.348L630 486.568Z" fill="#EAE7F4"/>
</svg>
