<svg width="20" height="18" viewBox="0 0 20 18" fill="none" xmlns="http://www.w3.org/2000/svg">
<path d="M16 0C14.3431 0 13 1.34315 13 3.00001C13 4.65687 14.3431 6.00002 16 6.00002C17.6569 6.00002 19 4.65687 19 3.00001C19 1.34315 17.6569 0 16 0Z" fill="#EAE7F4"/>
<path d="M11.4573 10.206L12.6761 8.4335C12.8626 8.16213 13.1708 8.00008 13.5001 8.00008C13.8294 8.00008 14.1376 8.16214 14.3242 8.4335L19.824 16.4337C20.0345 16.7397 20.0579 17.137 19.885 17.4656C19.7122 17.7944 19.3714 18.0001 19 18.0001H0.999992C0.64759 18.0001 0.321133 17.8147 0.140833 17.5118C-0.039468 17.2089 -0.0471695 16.8338 0.120743 16.5239L6.62048 4.52384C6.79525 4.20108 7.13292 4 7.49991 4C7.8669 4 8.2044 4.20106 8.37917 4.52384L11.4573 10.206Z" fill="#EAE7F4"/>
</svg>
