<svg width="20" height="16" viewBox="0 0 20 16" fill="none" xmlns="http://www.w3.org/2000/svg">
<path d="M7.94496 11.949L7.22216 12.6718C6.58127 13.3127 5.7289 13.6659 4.82252 13.6659C3.91613 13.6659 3.0638 13.3129 2.42287 12.6718C1.78198 12.0309 1.42879 11.1785 1.42879 10.2721C1.42879 9.36576 1.7818 8.51355 2.42287 7.8725L4.87865 5.41671C5.51971 4.77565 6.37208 4.42264 7.27847 4.42264C8.18485 4.42264 9.03719 4.77565 9.67812 5.41671C10.6272 6.36575 10.928 7.78829 10.4445 9.04102C10.3023 9.40914 10.4857 9.82297 10.8538 9.96484C11.2212 10.1072 11.6354 9.92381 11.7776 9.55568C12.4647 7.776 12.0373 5.7548 10.6885 4.40647C9.77784 3.49545 8.56679 2.99376 7.27868 2.99376C5.99057 2.99376 4.77952 3.49528 3.8685 4.40647L1.41272 6.86208C0.501695 7.7731 0 8.98398 0 10.2723C0 11.5604 0.501525 12.7714 1.41272 13.6824C2.3234 14.5935 3.53445 15.0952 4.82256 15.0952C6.11067 15.0952 7.32172 14.5936 8.2324 13.6826L8.95519 12.9598C9.23428 12.6809 9.23428 12.2284 8.95519 11.9493C8.67661 11.6702 8.22411 11.6702 7.945 11.9491L7.94496 11.949ZM18.5895 2.31485C16.7094 0.434847 13.65 0.434677 11.7694 2.31485L11.0466 3.03765C10.7676 3.31657 10.7676 3.76908 11.0466 4.04818C11.3252 4.32727 11.7777 4.3271 12.0568 4.04818L12.7796 3.32539C14.1031 2.00189 16.2559 2.0024 17.5793 3.32539C18.9024 4.64888 18.9024 6.80166 17.5793 8.12502L15.1237 10.5808C13.8002 11.9043 11.6474 11.9043 10.324 10.5808C9.37498 9.63177 9.0741 8.20923 9.55768 6.95633C9.69988 6.58837 9.51648 6.17472 9.14835 6.03251C8.77989 5.89031 8.36691 6.07354 8.22453 6.44183C7.53746 8.22152 7.96488 10.2427 9.31361 11.591C10.2536 12.5313 11.4885 13.0014 12.7235 13.0014C13.9582 13.0014 15.1935 12.5311 16.1336 11.591L18.5898 9.13492C20.4701 7.25491 20.4701 4.19537 18.5896 2.31481L18.5895 2.31485Z" fill="#EAE7F4"/>
</svg>
