<svg width="20" height="16" viewBox="0 0 20 16" fill="none" xmlns="http://www.w3.org/2000/svg">
<path d="M6.54592 0.0344238C6.05868 0.0344238 5.66602 0.462641 5.66602 0.993124V2.92297C5.66602 3.45313 6.05871 3.88179 6.54592 3.88179H19.1201C19.6073 3.88179 20 3.45313 20 2.92297V0.993124C20 0.462641 19.607 0.0344238 19.1201 0.0344238H6.54592Z" fill="#EAE7F4"/>
<path d="M6.54592 6.07739C6.05868 6.07739 5.66602 6.50448 5.66602 7.03621V8.96509C5.66602 9.49682 6.05871 9.92347 6.54592 9.92347H19.1201C19.6073 9.92347 20 9.49682 20 8.96509V7.03621C20 6.50448 19.607 6.07739 19.1201 6.07739H6.54592Z" fill="#EAE7F4"/>
<path d="M6.54592 12.1194C6.05868 12.1194 5.66602 12.5476 5.66602 13.0781V15.007C5.66602 15.5384 6.05871 15.9657 6.54592 15.9657H19.1201C19.6073 15.9657 20 15.5386 20 15.007V13.0781C20 12.5479 19.607 12.1194 19.1201 12.1194H6.54592Z" fill="#EAE7F4"/>
<path d="M1.92338 12.1194C1.41407 12.1194 0.924436 12.3224 0.562686 12.6826C0.202666 13.0442 0 13.5323 0 14.0431C0 14.5539 0.202973 15.0423 0.564262 15.4022C0.924755 15.7636 1.41403 15.9663 1.9237 15.9654C2.9856 15.9654 3.8472 15.105 3.8472 14.0431C3.8472 13.5324 3.64423 13.0442 3.28419 12.6826C2.92228 12.3224 2.43394 12.1194 1.92334 12.1194L1.92338 12.1194Z" fill="#EAE7F4"/>
<path d="M1.92338 6.07739C1.41407 6.07739 0.924436 6.27926 0.562686 6.64056C0.202666 7.00058 0 7.49033 0 8.00126C0 8.51045 0.202973 9.00036 0.564262 9.36005C0.924755 9.7207 1.41403 9.92334 1.9237 9.92334C2.9856 9.92334 3.8472 9.06315 3.8472 8.00093C3.8472 7.49017 3.64423 7.00171 3.28419 6.6404C2.92228 6.28054 2.43394 6.07739 1.92334 6.07739H1.92338Z" fill="#EAE7F4"/>
<path d="M1.92354 0.0344642C1.41423 0.0344642 0.924598 0.237595 0.5641 0.597757C0.202819 0.95888 0 1.4472 0 1.9578C0 2.46744 0.202815 2.95719 0.562686 3.3185C0.92444 3.67852 1.41387 3.88167 1.92322 3.88167C2.43398 3.88167 2.92216 3.67854 3.28391 3.31692C3.64393 2.9569 3.84692 2.46715 3.84692 1.95748C3.84708 0.896029 2.98548 0.0344238 1.92354 0.0344238V0.0344642Z" fill="#EAE7F4"/>
</svg>
