<svg width="20" height="23" viewBox="0 0 20 23" fill="none" xmlns="http://www.w3.org/2000/svg">
<path d="M19.4794 9.11109C18.7825 7.72026 17.37 6.70601 15.8055 6.60123C15.8047 4.9836 15.8683 2.96782 15.4014 2.25079C14.179 0.215557 13.0375 0.223698 10.2141 0.228229C7.43245 0.211781 5.79024 0.100254 4.60689 2.25155C4.13744 2.96425 4.20416 4.98821 4.2034 6.60119C2.63902 6.70677 1.22646 7.72022 0.529565 9.11105C-0.257877 10.3042 0.0820499 14.8702 0.0273936 16.9851C-0.0878937 18.9192 0.801363 20.9329 2.60678 21.7922C3.62324 22.3103 4.84564 22.3103 7.28003 22.3103H12.7292C16.4338 22.3087 17.8845 22.3596 19.4796 19.715C19.9976 18.6978 19.9976 17.4762 19.9976 15.0418C19.9879 12.9608 20.1009 10.0257 19.4796 9.11101L19.4794 9.11109ZM18.8738 15.0419C18.8738 17.2964 18.8738 18.4283 18.4778 19.205C17.078 21.4245 16.0743 21.1243 12.7274 21.1872H7.27947C5.02493 21.1872 3.89307 21.1872 3.11709 20.792C1.67614 20.1131 1.04224 18.4895 1.14923 16.9662C1.20014 15.1308 0.908943 10.5586 1.53018 9.6207C2.92774 7.40125 3.93601 7.70139 7.28091 7.63856C7.59075 7.63856 7.84231 7.38699 7.84231 7.07716C7.84231 6.76732 7.59075 6.51576 7.28091 6.51576C6.52182 6.51576 5.88118 6.51576 5.32728 6.53142C5.32666 5.16614 5.28624 3.19218 5.60876 2.76111C6.62975 1.15178 7.33182 1.40633 9.796 1.35087C12.1561 1.40021 13.4556 1.06563 14.4027 2.76111C14.7313 3.18921 14.6842 5.17071 14.6842 6.53142C14.1303 6.51576 13.4865 6.51576 12.7305 6.51576C12.4207 6.51576 12.1691 6.76732 12.1691 7.07716C12.1691 7.38699 12.4207 7.63856 12.7305 7.63856C19.0503 7.3353 18.9581 9.45825 18.8738 15.0414L18.8738 15.0419Z" fill="#74707F"/>
<path d="M10.0043 12.3177C8.46235 12.3005 8.02001 14.5041 9.44292 15.0873V15.8545C9.44589 16.5881 10.5627 16.5888 10.5657 15.8545V15.0873C11.9932 14.5035 11.5425 12.2999 10.0043 12.3177V12.3177Z" fill="#74707F"/>
</svg>
