<svg width="180" height="495" viewBox="0 0 180 495" fill="none" xmlns="http://www.w3.org/2000/svg">
<path d="M3.53735 2.05793C3.53735 3.19415 2.74576 4.11587 1.76902 4.11587C0.79165 4.11587 0 3.19421 0 2.05793C0 0.921659 0.791598 0 1.76902 0C2.74572 0 3.53735 0.921659 3.53735 2.05793Z" fill="white" fill-opacity="0.42"/>
<path d="M62.3584 2.05793C62.3584 3.19415 61.5661 4.11587 60.5893 4.11587C59.6126 4.11587 58.8203 3.19421 58.8203 2.05793C58.8203 0.921659 59.6126 0 60.5893 0C61.5661 0 62.3584 0.921659 62.3584 2.05793Z" fill="white" fill-opacity="0.42"/>
<path d="M121.178 2.05793C121.178 3.19415 120.386 4.11587 119.409 4.11587C118.432 4.11587 117.641 3.19421 117.641 2.05793C117.641 0.921659 118.432 0 119.409 0C120.386 0 121.178 0.921659 121.178 2.05793Z" fill="white" fill-opacity="0.42"/>
<path d="M179.999 2.05793C179.999 3.19415 179.207 4.11587 178.23 4.11587C177.253 4.11587 176.461 3.19421 176.461 2.05793C176.461 0.921659 177.253 0 178.23 0C179.207 0 179.999 0.921659 179.999 2.05793Z" fill="white" fill-opacity="0.42"/>
<path d="M3.53735 113.574C3.53735 114.71 2.74576 115.631 1.76902 115.631C0.79165 115.631 0 114.71 0 113.574C0 112.437 0.791598 111.516 1.76902 111.516C2.74572 111.516 3.53735 112.437 3.53735 113.574Z" fill="white" fill-opacity="0.42"/>
<path d="M62.3584 113.574C62.3584 114.71 61.5661 115.631 60.5893 115.631C59.6126 115.631 58.8203 114.71 58.8203 113.574C58.8203 112.437 59.6126 111.516 60.5893 111.516C61.5661 111.516 62.3584 112.437 62.3584 113.574Z" fill="white" fill-opacity="0.42"/>
<path d="M121.178 113.574C121.178 114.71 120.386 115.631 119.409 115.631C118.432 115.631 117.641 114.71 117.641 113.574C117.641 112.437 118.432 111.516 119.409 111.516C120.386 111.516 121.178 112.437 121.178 113.574Z" fill="white" fill-opacity="0.42"/>
<path d="M179.999 113.574C179.999 114.71 179.207 115.631 178.23 115.631C177.253 115.631 176.461 114.71 176.461 113.574C176.461 112.437 177.253 111.516 178.23 111.516C179.207 111.516 179.999 112.437 179.999 113.574Z" fill="white" fill-opacity="0.42"/>
<path d="M3.53735 225.086C3.53735 226.222 2.74576 227.143 1.76902 227.143C0.79165 227.143 0 226.222 0 225.086C0 223.949 0.791598 223.028 1.76902 223.028C2.74572 223.028 3.53735 223.949 3.53735 225.086Z" fill="white" fill-opacity="0.42"/>
<path d="M62.3584 225.086C62.3584 226.222 61.5661 227.143 60.5893 227.143C59.6126 227.143 58.8203 226.222 58.8203 225.086C58.8203 223.949 59.6126 223.028 60.5893 223.028C61.5661 223.028 62.3584 223.949 62.3584 225.086Z" fill="white" fill-opacity="0.42"/>
<path d="M121.178 225.086C121.178 226.222 120.386 227.143 119.409 227.143C118.432 227.143 117.641 226.222 117.641 225.086C117.641 223.949 118.432 223.028 119.409 223.028C120.386 223.028 121.178 223.949 121.178 225.086Z" fill="white" fill-opacity="0.42"/>
<path d="M179.999 225.086C179.999 226.222 179.207 227.143 178.23 227.143C177.253 227.143 176.461 226.222 176.461 225.086C176.461 223.949 177.253 223.028 178.23 223.028C179.207 223.028 179.999 223.949 179.999 225.086Z" fill="white" fill-opacity="0.42"/>
<path d="M3.53735 336.601C3.53735 337.737 2.74576 338.659 1.76902 338.659C0.79165 338.659 0 337.737 0 336.601C0 335.465 0.791598 334.543 1.76902 334.543C2.74572 334.543 3.53735 335.465 3.53735 336.601Z" fill="white" fill-opacity="0.42"/>
<path d="M62.3584 336.601C62.3584 337.737 61.5661 338.659 60.5893 338.659C59.6126 338.659 58.8203 337.737 58.8203 336.601C58.8203 335.465 59.6126 334.543 60.5893 334.543C61.5661 334.543 62.3584 335.465 62.3584 336.601Z" fill="white" fill-opacity="0.42"/>
<path d="M121.178 336.601C121.178 337.737 120.386 338.659 119.409 338.659C118.432 338.659 117.641 337.737 117.641 336.601C117.641 335.465 118.432 334.543 119.409 334.543C120.386 334.543 121.178 335.465 121.178 336.601Z" fill="white" fill-opacity="0.42"/>
<path d="M179.999 336.601C179.999 337.737 179.207 338.659 178.23 338.659C177.253 338.659 176.461 337.737 176.461 336.601C176.461 335.465 177.253 334.543 178.23 334.543C179.207 334.543 179.999 335.465 179.999 336.601Z" fill="white" fill-opacity="0.42"/>
<path d="M3.53735 39.2279C3.53735 40.3641 2.74576 41.2858 1.76902 41.2858C0.79165 41.2858 0 40.3641 0 39.2279C0 38.0916 0.791598 37.1699 1.76902 37.1699C2.74572 37.1699 3.53735 38.0916 3.53735 39.2279Z" fill="white" fill-opacity="0.42"/>
<path d="M62.3584 39.2279C62.3584 40.3641 61.5661 41.2858 60.5893 41.2858C59.6126 41.2858 58.8203 40.3641 58.8203 39.2279C58.8203 38.0916 59.6126 37.1699 60.5893 37.1699C61.5661 37.1699 62.3584 38.0916 62.3584 39.2279Z" fill="white" fill-opacity="0.42"/>
<path d="M121.178 39.2279C121.178 40.3641 120.386 41.2858 119.409 41.2858C118.432 41.2858 117.641 40.3641 117.641 39.2279C117.641 38.0916 118.432 37.1699 119.409 37.1699C120.386 37.1699 121.178 38.0916 121.178 39.2279Z" fill="white" fill-opacity="0.42"/>
<path d="M179.999 39.2279C179.999 40.3641 179.207 41.2858 178.23 41.2858C177.253 41.2858 176.461 40.3641 176.461 39.2279C176.461 38.0916 177.253 37.1699 178.23 37.1699C179.207 37.1699 179.999 38.0916 179.999 39.2279Z" fill="white" fill-opacity="0.42"/>
<path d="M3.53735 150.743C3.53735 151.88 2.74576 152.801 1.76902 152.801C0.79165 152.801 0 151.88 0 150.743C0 149.607 0.791598 148.686 1.76902 148.686C2.74572 148.686 3.53735 149.607 3.53735 150.743Z" fill="white" fill-opacity="0.42"/>
<path d="M62.3584 150.743C62.3584 151.88 61.5661 152.801 60.5893 152.801C59.6126 152.801 58.8203 151.88 58.8203 150.743C58.8203 149.607 59.6126 148.686 60.5893 148.686C61.5661 148.686 62.3584 149.607 62.3584 150.743Z" fill="white" fill-opacity="0.42"/>
<path d="M121.178 150.743C121.178 151.88 120.386 152.801 119.409 152.801C118.432 152.801 117.641 151.88 117.641 150.743C117.641 149.607 118.432 148.686 119.409 148.686C120.386 148.686 121.178 149.607 121.178 150.743Z" fill="white" fill-opacity="0.42"/>
<path d="M179.999 150.743C179.999 151.88 179.207 152.801 178.23 152.801C177.253 152.801 176.461 151.88 176.461 150.743C176.461 149.607 177.253 148.686 178.23 148.686C179.207 148.686 179.999 149.607 179.999 150.743Z" fill="white" fill-opacity="0.42"/>
<path d="M3.53735 262.259C3.53735 263.395 2.74576 264.317 1.76902 264.317C0.79165 264.317 0 263.395 0 262.259C0 261.123 0.791598 260.201 1.76902 260.201C2.74572 260.201 3.53735 261.123 3.53735 262.259Z" fill="white" fill-opacity="0.42"/>
<path d="M62.3584 262.259C62.3584 263.395 61.5661 264.317 60.5893 264.317C59.6126 264.317 58.8203 263.395 58.8203 262.259C58.8203 261.123 59.6126 260.201 60.5893 260.201C61.5661 260.201 62.3584 261.123 62.3584 262.259Z" fill="white" fill-opacity="0.42"/>
<path d="M121.178 262.259C121.178 263.395 120.386 264.317 119.409 264.317C118.432 264.317 117.641 263.395 117.641 262.259C117.641 261.123 118.432 260.201 119.409 260.201C120.386 260.201 121.178 261.123 121.178 262.259Z" fill="white" fill-opacity="0.42"/>
<path d="M179.999 262.259C179.999 263.395 179.207 264.317 178.23 264.317C177.253 264.317 176.461 263.395 176.461 262.259C176.461 261.123 177.253 260.201 178.23 260.201C179.207 260.201 179.999 261.123 179.999 262.259Z" fill="white" fill-opacity="0.42"/>
<path d="M3.53735 373.771C3.53735 374.907 2.74576 375.829 1.76902 375.829C0.79165 375.829 0 374.907 0 373.771C0 372.635 0.791598 371.713 1.76902 371.713C2.74572 371.713 3.53735 372.635 3.53735 373.771Z" fill="white" fill-opacity="0.42"/>
<path d="M62.3584 373.771C62.3584 374.907 61.5661 375.829 60.5893 375.829C59.6126 375.829 58.8203 374.907 58.8203 373.771C58.8203 372.635 59.6126 371.713 60.5893 371.713C61.5661 371.713 62.3584 372.635 62.3584 373.771Z" fill="white" fill-opacity="0.42"/>
<path d="M121.178 373.771C121.178 374.907 120.386 375.829 119.409 375.829C118.432 375.829 117.641 374.907 117.641 373.771C117.641 372.635 118.432 371.713 119.409 371.713C120.386 371.713 121.178 372.635 121.178 373.771Z" fill="white" fill-opacity="0.42"/>
<path d="M179.999 373.771C179.999 374.907 179.207 375.829 178.23 375.829C177.253 375.829 176.461 374.907 176.461 373.771C176.461 372.635 177.253 371.713 178.23 371.713C179.207 371.713 179.999 372.635 179.999 373.771Z" fill="white" fill-opacity="0.42"/>
<path d="M3.53735 455.058C3.53735 456.194 2.74576 457.116 1.76902 457.116C0.79165 457.116 0 456.194 0 455.058C0 453.922 0.791598 453 1.76902 453C2.74572 453 3.53735 453.922 3.53735 455.058Z" fill="white" fill-opacity="0.42"/>
<path d="M62.3584 455.058C62.3584 456.194 61.5661 457.116 60.5893 457.116C59.6126 457.116 58.8203 456.194 58.8203 455.058C58.8203 453.922 59.6126 453 60.5893 453C61.5661 453 62.3584 453.922 62.3584 455.058Z" fill="white" fill-opacity="0.42"/>
<path d="M121.178 455.058C121.178 456.194 120.386 457.116 119.409 457.116C118.432 457.116 117.641 456.194 117.641 455.058C117.641 453.922 118.432 453 119.409 453C120.386 453 121.178 453.922 121.178 455.058Z" fill="white" fill-opacity="0.42"/>
<path d="M179.999 455.058C179.999 456.194 179.207 457.116 178.23 457.116C177.253 457.116 176.461 456.194 176.461 455.058C176.461 453.922 177.253 453 178.23 453C179.207 453 179.999 453.922 179.999 455.058Z" fill="white" fill-opacity="0.42"/>
<path d="M3.53735 492.058C3.53735 493.194 2.74576 494.116 1.76902 494.116C0.79165 494.116 0 493.194 0 492.058C0 490.922 0.791598 490 1.76902 490C2.74572 490 3.53735 490.922 3.53735 492.058Z" fill="white" fill-opacity="0.42"/>
<path d="M62.3584 492.058C62.3584 493.194 61.5661 494.116 60.5893 494.116C59.6126 494.116 58.8203 493.194 58.8203 492.058C58.8203 490.922 59.6126 490 60.5893 490C61.5661 490 62.3584 490.922 62.3584 492.058Z" fill="white" fill-opacity="0.42"/>
<path d="M121.178 492.058C121.178 493.194 120.386 494.116 119.409 494.116C118.432 494.116 117.641 493.194 117.641 492.058C117.641 490.922 118.432 490 119.409 490C120.386 490 121.178 490.922 121.178 492.058Z" fill="white" fill-opacity="0.42"/>
<path d="M179.999 492.058C179.999 493.194 179.207 494.116 178.23 494.116C177.253 494.116 176.461 493.194 176.461 492.058C176.461 490.922 177.253 490 178.23 490C179.207 490 179.999 490.922 179.999 492.058Z" fill="white" fill-opacity="0.42"/>
<path d="M3.53735 76.3997C3.53735 77.5359 2.74576 78.4577 1.76902 78.4577C0.79165 78.4577 0 77.536 0 76.3997C0 75.2635 0.791598 74.3418 1.76902 74.3418C2.74572 74.3418 3.53735 75.2635 3.53735 76.3997Z" fill="white" fill-opacity="0.42"/>
<path d="M62.3584 76.3997C62.3584 77.5359 61.5661 78.4577 60.5893 78.4577C59.6126 78.4577 58.8203 77.536 58.8203 76.3997C58.8203 75.2635 59.6126 74.3418 60.5893 74.3418C61.5661 74.3418 62.3584 75.2635 62.3584 76.3997Z" fill="white" fill-opacity="0.42"/>
<path d="M121.178 76.3997C121.178 77.5359 120.386 78.4577 119.409 78.4577C118.432 78.4577 117.641 77.536 117.641 76.3997C117.641 75.2635 118.432 74.3418 119.409 74.3418C120.386 74.3418 121.178 75.2635 121.178 76.3997Z" fill="white" fill-opacity="0.42"/>
<path d="M179.999 76.3997C179.999 77.5359 179.207 78.4577 178.23 78.4577C177.253 78.4577 176.461 77.536 176.461 76.3997C176.461 75.2635 177.253 74.3418 178.23 74.3418C179.207 74.3418 179.999 75.2635 179.999 76.3997Z" fill="white" fill-opacity="0.42"/>
<path d="M3.53735 187.913C3.53735 189.05 2.74576 189.971 1.76902 189.971C0.79165 189.971 0 189.05 0 187.913C0 186.777 0.791598 185.855 1.76902 185.855C2.74572 185.855 3.53735 186.777 3.53735 187.913Z" fill="white" fill-opacity="0.42"/>
<path d="M62.3584 187.913C62.3584 189.05 61.5661 189.971 60.5893 189.971C59.6126 189.971 58.8203 189.05 58.8203 187.913C58.8203 186.777 59.6126 185.855 60.5893 185.855C61.5661 185.855 62.3584 186.777 62.3584 187.913Z" fill="white" fill-opacity="0.42"/>
<path d="M121.178 187.913C121.178 189.05 120.386 189.971 119.409 189.971C118.432 189.971 117.641 189.05 117.641 187.913C117.641 186.777 118.432 185.855 119.409 185.855C120.386 185.855 121.178 186.777 121.178 187.913Z" fill="white" fill-opacity="0.42"/>
<path d="M179.999 187.913C179.999 189.05 179.207 189.971 178.23 189.971C177.253 189.971 176.461 189.05 176.461 187.913C176.461 186.777 177.253 185.855 178.23 185.855C179.207 185.855 179.999 186.777 179.999 187.913Z" fill="white" fill-opacity="0.42"/>
<path d="M3.53735 299.429C3.53735 300.565 2.74576 301.487 1.76902 301.487C0.79165 301.487 0 300.565 0 299.429C0 298.293 0.791598 297.371 1.76902 297.371C2.74572 297.371 3.53735 298.293 3.53735 299.429Z" fill="white" fill-opacity="0.42"/>
<path d="M62.3584 299.429C62.3584 300.565 61.5661 301.487 60.5893 301.487C59.6126 301.487 58.8203 300.565 58.8203 299.429C58.8203 298.293 59.6126 297.371 60.5893 297.371C61.5661 297.371 62.3584 298.293 62.3584 299.429Z" fill="white" fill-opacity="0.42"/>
<path d="M121.178 299.429C121.178 300.565 120.386 301.487 119.409 301.487C118.432 301.487 117.641 300.565 117.641 299.429C117.641 298.293 118.432 297.371 119.409 297.371C120.386 297.371 121.178 298.293 121.178 299.429Z" fill="white" fill-opacity="0.42"/>
<path d="M179.999 299.429C179.999 300.565 179.207 301.487 178.23 301.487C177.253 301.487 176.461 300.565 176.461 299.429C176.461 298.293 177.253 297.371 178.23 297.371C179.207 297.371 179.999 298.293 179.999 299.429Z" fill="white" fill-opacity="0.42"/>
<path d="M3.53735 410.941C3.53735 412.077 2.74576 412.999 1.76902 412.999C0.79165 412.999 0 412.077 0 410.941C0 409.804 0.791598 408.883 1.76902 408.883C2.74572 408.883 3.53735 409.804 3.53735 410.941Z" fill="white" fill-opacity="0.42"/>
<path d="M62.3584 410.941C62.3584 412.077 61.5661 412.999 60.5893 412.999C59.6126 412.999 58.8203 412.077 58.8203 410.941C58.8203 409.804 59.6126 408.883 60.5893 408.883C61.5661 408.883 62.3584 409.804 62.3584 410.941Z" fill="white" fill-opacity="0.42"/>
<path d="M121.178 410.941C121.178 412.077 120.386 412.999 119.409 412.999C118.432 412.999 117.641 412.077 117.641 410.941C117.641 409.804 118.432 408.883 119.409 408.883C120.386 408.883 121.178 409.804 121.178 410.941Z" fill="white" fill-opacity="0.42"/>
<path d="M179.999 410.941C179.999 412.077 179.207 412.999 178.23 412.999C177.253 412.999 176.461 412.077 176.461 410.941C176.461 409.804 177.253 408.883 178.23 408.883C179.207 408.883 179.999 409.804 179.999 410.941Z" fill="white" fill-opacity="0.42"/>
</svg>
