<svg width="181" height="181" viewBox="0 0 181 181" fill="none" xmlns="http://www.w3.org/2000/svg">
<path d="M91.2158 180.999C40.921 180.999 0 140.08 0 89.7874C0 46.1463 31.0526 8.49662 73.8327 0.266489C79.0813 -0.807341 84.4827 1.42139 87.5435 5.91871C90.5565 10.4825 90.5884 16.3089 87.6618 20.8197C82.126 29.3281 79.2037 39.172 79.2037 49.2938C79.2037 78.2159 102.76 101.743 131.713 101.743C141.901 101.743 151.744 98.8395 160.178 93.3466C164.704 90.4108 170.526 90.4387 175.035 93.421C175.053 93.4343 175.072 93.4462 175.092 93.4595C179.597 96.5282 181.81 101.932 180.729 107.228C172.517 149.951 134.865 181 91.2149 181L91.2158 180.999ZM76.4339 10.4325C76.2412 10.4325 76.0471 10.4511 75.8531 10.4897C37.9228 17.7872 10.4278 51.1334 10.4278 89.7867C10.4278 134.333 46.6705 170.574 91.2185 170.574C129.877 170.574 163.224 143.08 170.509 105.199C170.755 103.987 170.26 102.794 169.258 102.096C168.22 101.423 166.891 101.417 165.864 102.085C155.739 108.68 143.931 112.166 131.717 112.166C97.0154 112.166 68.7854 83.9602 68.7854 49.2916C68.7854 37.1471 72.2916 25.3375 78.9264 15.1395C79.5922 14.1108 79.5816 12.7645 78.8918 11.7185C78.3429 10.9184 77.4112 10.4333 76.4357 10.4333L76.4339 10.4325Z" fill="#EAE7F4"/>
</svg>
