<svg width="250" height="193" viewBox="0 0 250 193" fill="none" xmlns="http://www.w3.org/2000/svg">
<path d="M153.673 85.1901C151.069 85.7248 149.398 88.2732 149.937 90.8731C150.279 92.5445 150.456 94.2695 150.456 95.999C150.456 110.032 139.036 121.454 125.001 121.454C110.966 121.454 99.5462 110.034 99.5462 95.999C99.5462 81.9643 110.966 70.5442 125.001 70.5442C130.351 70.5442 135.47 72.1843 139.797 75.2853C141.956 76.8291 144.961 76.3368 146.512 74.1755C148.06 72.0142 147.561 69.0071 145.4 67.4608C139.43 63.1852 132.374 60.9232 125.004 60.9232C105.661 60.9232 89.9257 76.6591 89.9257 96.0012C89.9234 115.344 105.662 131.077 125.004 131.077C144.346 131.077 160.082 115.341 160.082 95.9989C160.082 93.616 159.84 91.2399 159.359 88.9262C158.82 86.3219 156.277 84.6441 153.673 85.1901ZM248.015 93.209C217.547 50.3938 172.712 25.8389 125 25.8389C77.2876 25.8389 32.4563 50.3921 1.98456 93.209L0 95.999L1.98456 98.7891C32.4495 141.604 77.2876 166.159 125 166.159C172.712 166.159 217.549 141.606 248.015 98.7891L250 95.999L248.015 93.209ZM125 156.535C81.4821 156.535 40.4237 134.521 11.8535 95.9984C40.4277 57.4745 81.4861 35.4615 125 35.4615C168.514 35.4615 209.571 57.4734 238.147 95.9984C209.577 134.522 168.52 156.535 125 156.535Z" fill="#EAE7F4"/>
<path d="M229.92 8L20 184.81" stroke="#EAE7F4" stroke-width="16" stroke-linecap="round" stroke-linejoin="round"/>
</svg>
