<svg width="1850" height="1850" viewBox="0 0 1850 1850" fill="none" xmlns="http://www.w3.org/2000/svg">
<path d="M803.517 1337.85C803.517 1337.85 636.092 1337.85 581.209 1337.85C526.326 1337.85 515.842 1350.8 538.967 1360.37C562.092 1369.92 451.401 1365.3 432.592 1382.25C413.476 1399.22 462.192 1405.69 514.917 1405.69C567.642 1405.69 896.328 1405.69 938.567 1405.69C980.812 1405.69 970.328 1374.85 945.045 1370.85C919.762 1366.84 986.05 1372.39 1011.33 1363.45C1036.62 1354.5 1018.43 1337.85 803.517 1337.85Z" fill="#0A7983"/>
<path d="M1127.88 1394.28C1121.41 1403.22 1099.82 1405.38 1063.13 1404.46C1035.38 1403.53 1006.4 1401.37 1006.4 1388.42C1006.4 1375.47 1077.01 1377.02 1101.67 1379.79C1122.95 1382.26 1131.58 1389.04 1127.88 1394.28Z" fill="#0A7983"/>
<path d="M489.016 1351.12C484.699 1357.59 469.899 1359.44 443.999 1359.44C424.574 1359.44 404.224 1358.52 403.607 1349.57C402.991 1340.32 452.632 1340.02 470.207 1341.55C485.007 1342.79 491.482 1347.1 489.016 1351.12Z" fill="#0A7983"/>
<path d="M1574.66 1330.15H1464.58C1455.95 1330.15 1448.86 1323.06 1448.86 1314.42V1200.65C1448.86 1192.02 1455.95 1184.92 1464.58 1184.92H1574.66C1583.29 1184.92 1590.38 1192.02 1590.38 1200.65V1314.42C1590.38 1323.06 1583.29 1330.15 1574.66 1330.15Z" fill="#438E95"/>
<path d="M1569.42 1324.91H1463.66C1455.33 1324.91 1448.55 1318.12 1448.55 1309.8V1200.03C1448.55 1191.71 1455.33 1184.92 1463.66 1184.92H1569.42C1577.74 1184.92 1584.52 1191.71 1584.52 1200.03V1309.8C1584.52 1318.12 1577.74 1324.91 1569.42 1324.91Z" fill="#0A7983"/>
<path d="M1517.61 1300.55C1542.13 1300.55 1562.01 1280.67 1562.01 1256.15C1562.01 1231.63 1542.13 1211.75 1517.61 1211.75C1493.09 1211.75 1473.21 1231.63 1473.21 1256.15C1473.21 1280.67 1493.09 1300.55 1517.61 1300.55Z" fill="#438E95"/>
<path d="M1500.05 1276.2C1498.5 1276.2 1497.27 1274.96 1497.27 1273.42V1239.2C1497.27 1237.65 1498.5 1236.42 1500.05 1236.42C1501.58 1236.42 1502.82 1237.65 1502.82 1239.2V1273.42C1502.82 1274.96 1501.58 1276.2 1500.05 1276.2Z" fill="#09555B"/>
<path d="M1532.11 1276.2C1530.57 1276.2 1529.34 1274.96 1529.34 1273.42V1239.2C1529.34 1237.65 1530.57 1236.42 1532.11 1236.42C1533.66 1236.42 1534.89 1237.65 1534.89 1239.2V1273.42C1534.89 1274.96 1533.66 1276.2 1532.11 1276.2Z" fill="#09555B"/>
<path d="M1248.75 1137.75C1246.59 1137.75 1244.43 1137.75 1242.27 1137.44C1194.48 1134.05 1161.8 1117.7 1106.92 1034.15C1087.8 1005.17 1074.85 975.566 1062.21 946.888C1040.62 897.866 1022.12 855.316 980.188 835.583C915.75 805.366 852.538 855.316 851.922 855.933C849.15 858.088 845.138 857.783 842.984 855.005C840.822 852.233 841.134 848.221 843.905 846.066C846.684 843.905 913.9 790.566 985.434 824.171C1031.68 845.755 1052.03 892.316 1073.62 941.65C1085.95 970.016 1098.9 999.305 1117.4 1027.05C1169.51 1105.99 1199.42 1121.4 1243.2 1124.8C1275.88 1127.27 1293.46 1107.53 1310.42 1088.1C1316.58 1081.32 1322.13 1074.85 1328.61 1069.3C1353.58 1048.02 1379.79 1044.02 1381.02 1044.02C1384.42 1043.4 1387.81 1045.87 1388.12 1049.25C1388.73 1052.65 1386.27 1056.04 1382.87 1056.35C1382.57 1056.35 1359.13 1060.05 1336.93 1078.85C1331.07 1083.79 1325.83 1089.95 1319.97 1096.43C1302.71 1116.17 1283.59 1137.75 1248.75 1137.75Z" fill="#09555B"/>
<path d="M1428.2 1022.74L1454.1 1000.85C1456.87 998.688 1460.57 999 1462.73 1001.77C1464.58 1004.24 1464.27 1007.63 1461.8 1009.79L1435.6 1032.92L1428.2 1022.74Z" fill="#09555B"/>
<path d="M1412.17 1004.24L1438.07 982.35C1440.84 980.188 1444.54 980.5 1446.7 983.271C1448.55 985.738 1448.24 989.133 1445.77 991.288L1419.57 1014.42L1412.17 1004.24Z" fill="#09555B"/>
<path d="M1446.39 1034.15C1446.39 1034.15 1436.22 1046.18 1420.49 1060.05C1404.77 1073.62 1384.42 1071.15 1375.17 1060.67C1374.55 1060.05 1374.24 1059.43 1373.62 1058.82C1365.6 1047.72 1365.3 1032.61 1377.32 1021.82C1389.97 1010.1 1410.93 993.45 1410.93 993.45L1436.22 1022.75L1446.39 1034.15Z" fill="#0A7983"/>
<path d="M1446.39 1034.15C1446.39 1034.15 1436.22 1046.17 1420.49 1060.05C1404.77 1073.62 1384.42 1071.15 1375.17 1060.67C1374.55 1060.05 1374.24 1059.43 1373.62 1058.82C1381.02 1058.82 1393.67 1057.27 1405.07 1049.57C1414.63 1043.09 1426.97 1031.68 1435.9 1022.74L1446.39 1034.15Z" fill="#438E95"/>
<path d="M974.638 1270.33C974.333 1270.33 973.717 1270.33 973.405 1270.33C952.438 1270.02 897.867 1229.02 883.988 1209.9C869.805 1190.78 857.167 1166.42 874.433 1150.7C877.822 1147.62 882.755 1145.46 888.305 1144.53C896.634 1142.99 906.805 1144.84 915.438 1150.39C930.238 1159.95 971.867 1208.36 983.583 1229.02C994.988 1249.37 994.683 1270.02 974.638 1270.33Z" fill="#09555B"/>
<path d="M974.638 1270.33C977.721 1268.48 979.876 1265.4 981.726 1259.23C984.81 1248.44 974.021 1226.86 938.56 1185.54C917.288 1160.57 899.093 1149.47 888.305 1144.53C896.626 1142.99 906.805 1144.84 915.438 1150.39C930.238 1159.95 971.86 1208.36 983.576 1229.02C994.988 1249.37 994.676 1270.02 974.638 1270.33Z" fill="#0B828C"/>
<path d="M870.421 1163.96C873.505 1155.32 891.388 1156.87 906.805 1171.97C922.221 1187.08 945.655 1216.99 939.8 1229.94C933.938 1242.89 911.738 1232.41 893.55 1214.52C875.355 1196.64 865.488 1177.83 870.421 1163.96Z" fill="#0B828C"/>
<path d="M909.272 1202.5C908.655 1212.37 904.955 1218.53 904.955 1218.53C904.955 1218.53 822.017 1258 718.105 1185.54C612.349 1111.85 612.041 1019.97 612.041 1019.04C666.308 966.005 727.355 1024.28 727.355 1024.28C727.355 1024.28 731.055 1057.27 747.705 1090.57C757.267 1109.69 771.138 1129.12 790.872 1142.07C840.205 1174.44 891.388 1164.57 891.388 1164.57C891.388 1164.57 901.255 1167.65 907.117 1186.47C909.272 1192.02 909.888 1197.87 909.272 1202.5Z" fill="#0A7983"/>
<path d="M909.272 1202.5C908.655 1212.37 904.955 1218.53 904.955 1218.53C904.955 1218.53 822.017 1258 718.105 1185.54C612.349 1111.85 612.041 1019.97 612.041 1019.04C666.308 966.005 727.355 1024.28 727.355 1024.28C727.355 1024.28 731.055 1057.27 747.705 1090.57C739.383 1096.74 728.9 1103.22 720.883 1105.68C703.922 1110.62 685.733 1110.62 685.733 1110.62C685.733 1110.62 737.838 1188.62 814.922 1202.8C856.55 1209.9 888.617 1206.82 909.272 1202.5Z" fill="#438E95"/>
<path d="M793.027 1218.22C791.488 1218.22 789.943 1217.29 789.327 1215.44C788.405 1213.29 789.638 1211.13 791.793 1210.21C792.105 1210.21 808.755 1203.73 813.688 1190.16C818.927 1176.29 814.61 1165.19 814.61 1165.19C813.688 1163.03 814.922 1160.87 816.772 1159.94C818.927 1159.02 821.088 1160.26 822.01 1162.11C822.322 1162.72 827.255 1176.29 821.088 1192.94C814.61 1210.21 795.188 1217.29 794.26 1217.61C793.955 1218.22 793.338 1218.22 793.027 1218.22Z" fill="#438E95"/>
<path d="M721.493 1186.47C719.338 1186.47 717.488 1184.92 717.488 1182.77C717.488 1180.61 719.027 1178.76 721.188 1178.45C721.493 1178.45 743.077 1176.91 753.872 1162.72C764.66 1148.54 764.043 1134.05 764.043 1133.74C763.738 1131.58 765.588 1129.42 767.743 1129.42C769.905 1129.12 772.06 1130.97 772.06 1133.12C772.06 1133.74 773.293 1150.7 760.343 1167.66C747.088 1184.62 722.727 1186.16 721.493 1186.47Z" fill="#438E95"/>
<path d="M575.353 1128.19C574.12 1130.97 572.578 1133.74 570.42 1136.52C566.411 1141.76 561.786 1144.84 557.47 1147C551.303 1150.08 546.37 1150.7 546.37 1150.7C546.37 1150.7 502.895 1108.46 464.97 1033.22C427.045 958.3 424.27 871.967 424.27 871.967C427.661 870.117 431.053 868.572 434.136 867.339C445.853 862.717 456.645 862.405 465.586 863.639C479.153 865.489 487.786 871.35 487.786 871.35C487.786 871.35 490.253 942.884 515.536 1007.32C540.82 1072.07 577.82 1110.31 577.82 1110.31C577.82 1110.31 579.361 1118.63 575.353 1128.19Z" fill="#0A7983"/>
<path d="M575.354 1128.19C561.787 1116.17 535.887 1088.72 510.912 1035.69C481.004 972.172 468.979 890.467 465.896 863.639C479.462 865.489 488.096 871.35 488.096 871.35C488.096 871.35 490.562 942.884 515.846 1007.32C541.129 1072.07 578.129 1110.31 578.129 1110.31C578.129 1110.31 579.362 1118.63 575.354 1128.19Z" fill="#0C8792"/>
<path d="M557.47 1147C551.303 1150.08 546.37 1150.7 546.37 1150.7C546.37 1150.7 502.895 1108.46 464.97 1033.23C427.045 958.3 424.27 871.966 424.27 871.966C427.661 870.116 431.053 868.578 434.136 867.345C436.295 895.095 446.47 986.361 489.636 1057.89C519.236 1106.61 542.978 1133.13 557.47 1147Z" fill="#438E95"/>
<path d="M643.492 1191.39C643.492 1191.39 627.458 1200.96 608.65 1196.64C589.842 1192.32 582.75 1186.16 582.75 1186.16C582.75 1186.16 576.583 1176.91 581.208 1171.66C581.517 1171.36 581.517 1171.36 581.825 1171.04C587.683 1165.81 595.7 1164.88 595.7 1164.88C595.7 1164.88 606.8 1173.51 614.817 1176.29C622.833 1179.06 637.017 1176.29 642.258 1179.68C644.725 1181.22 645.033 1183.99 644.725 1186.46C644.725 1189.24 643.492 1191.39 643.492 1191.39Z" fill="#0A7983"/>
<path d="M643.492 1191.39C643.492 1191.39 627.458 1200.96 608.65 1196.64C589.842 1192.32 582.75 1186.16 582.75 1186.16C582.75 1186.16 576.583 1176.91 581.208 1171.66C586.758 1176.91 600.017 1188.31 615.433 1190.16C628.075 1191.71 638.558 1188.93 644.725 1186.46C644.725 1189.24 643.492 1191.39 643.492 1191.39Z" fill="#438E95"/>
<path d="M637.634 1182.77C621.601 1185.23 610.193 1180.92 601.559 1176.29C592.926 1171.67 589.534 1165.81 589.534 1165.81C589.534 1165.81 589.534 1158.72 594.159 1155.02C596.626 1152.86 600.634 1151.93 606.801 1153.78C606.801 1153.78 618.826 1164.27 638.868 1157.17C658.909 1150.08 657.676 1145.77 661.992 1144.53C665.076 1143.61 669.084 1148.23 670.009 1153.47C670.626 1155.94 670.318 1158.41 669.393 1160.57C666.001 1167.35 653.668 1179.99 637.634 1182.77Z" fill="#0A7983"/>
<path d="M637.634 1182.77C621.601 1185.23 610.193 1180.92 601.559 1176.29C592.926 1171.67 589.534 1165.81 589.534 1165.81C589.534 1165.81 589.534 1158.72 594.159 1155.02C601.559 1162.42 617.593 1175.67 635.168 1172.28C652.434 1168.89 664.767 1158.72 670.317 1153.47C670.934 1155.94 670.626 1158.4 669.701 1160.57C666.001 1167.35 653.668 1179.99 637.634 1182.77Z" fill="#438E95"/>
<path d="M634.241 1162.42C618.824 1164.88 608.032 1160.57 600.016 1156.25C591.691 1151.93 588.607 1146.38 588.607 1146.38C588.607 1146.38 588.607 1139.6 592.924 1135.9C595.391 1133.74 599.091 1132.82 604.949 1134.67C604.949 1134.67 616.357 1144.53 635.474 1137.75C654.591 1130.97 653.357 1126.95 657.366 1125.72C660.141 1124.8 664.149 1129.42 665.074 1134.35C665.691 1136.52 665.382 1138.98 664.457 1141.14C661.066 1147.92 649.349 1159.95 634.241 1162.42Z" fill="#0A7983"/>
<path d="M634.241 1162.42C618.824 1164.88 608.032 1160.57 600.016 1156.25C591.691 1151.93 588.607 1146.38 588.607 1146.38C588.607 1146.38 588.607 1139.6 592.924 1135.9C599.707 1142.99 615.124 1155.63 631.774 1152.24C648.116 1148.85 659.832 1139.29 665.074 1134.36C665.691 1136.52 665.382 1138.98 664.457 1141.14C661.066 1147.92 649.349 1159.95 634.241 1162.42Z" fill="#438E95"/>
<path d="M632.084 1147C618.826 1151.32 608.343 1149.16 600.634 1146.38C592.618 1143.61 589.226 1139.29 589.226 1139.29C589.226 1139.29 588.301 1133.12 592.001 1129.42C593.851 1127.27 597.242 1126.03 602.792 1126.65C602.792 1126.65 614.201 1133.74 630.542 1125.42C646.884 1116.78 645.343 1113.39 648.734 1111.54C651.201 1110.3 655.209 1113.7 656.751 1118.02C657.367 1119.87 657.676 1122.02 657.059 1124.18C654.593 1130.35 645.343 1142.68 632.084 1147Z" fill="#0A7983"/>
<path d="M632.084 1146.99C618.826 1151.31 608.343 1149.15 600.634 1146.38C592.618 1143.6 589.226 1139.29 589.226 1139.29C589.226 1139.29 588.301 1133.12 592.001 1129.42C599.092 1134.66 614.201 1143.91 628.692 1138.67C643.184 1133.43 652.434 1123.25 656.442 1118.01C657.059 1119.86 657.367 1122.02 656.751 1124.18C654.592 1130.34 645.343 1142.68 632.084 1146.99Z" fill="#438E95"/>
<path d="M621.293 1132.2C621.293 1132.2 620.368 1137.44 618.209 1144.53C615.743 1152.55 612.043 1162.42 606.493 1170.12C604.026 1173.2 601.559 1175.98 599.093 1178.14C590.768 1185.85 583.059 1187.39 583.059 1187.39C583.059 1187.39 559.318 1164.57 552.534 1156.87C545.751 1149.47 540.201 1141.45 540.201 1141.45C540.201 1141.45 538.351 1132.82 540.201 1123.57C541.126 1118.63 542.976 1113.39 546.676 1109.38C548.526 1107.53 550.684 1105.99 552.534 1104.75C562.709 1099.52 574.426 1103.52 574.426 1103.52C574.426 1103.52 597.243 1117.7 607.418 1123.25C617.593 1128.8 621.293 1132.2 621.293 1132.2Z" fill="#0A7983"/>
<path d="M621.293 1132.2C621.293 1132.2 620.368 1137.44 618.209 1144.53C613.584 1142.07 605.259 1136.82 594.159 1128.8C579.667 1118.63 559.009 1108.15 552.534 1104.75C562.709 1099.52 574.426 1103.52 574.426 1103.52C574.426 1103.52 597.243 1117.7 607.418 1123.25C617.593 1128.8 621.293 1132.2 621.293 1132.2Z" fill="#0C8792"/>
<path d="M599.093 1177.83C590.768 1185.23 583.059 1187.08 583.059 1187.08C583.059 1187.08 559.318 1163.95 552.534 1156.55C545.751 1149.15 540.201 1141.14 540.201 1141.14C540.201 1141.14 538.351 1132.5 540.201 1123.25C549.759 1134.05 575.351 1161.8 593.234 1173.52C595.393 1175.37 597.551 1176.6 599.093 1177.83Z" fill="#438E95"/>
<path d="M510.908 1098.9C506.283 1098.59 503.508 1097.05 503.2 1097.05C501.35 1096.12 500.733 1093.66 501.658 1091.81C502.583 1089.96 504.742 1089.03 506.592 1089.96C506.9 1090.27 515.533 1094.27 526.942 1086.87C538.35 1079.47 540.2 1070.22 540.2 1069.92C540.508 1067.76 542.358 1066.22 544.517 1066.83C546.367 1067.14 547.908 1069.3 547.6 1071.46C547.6 1072.07 545.442 1084.41 530.95 1093.97C522.625 1098.59 515.842 1099.21 510.908 1098.9Z" fill="#438E95"/>
<path d="M477.916 1036.92C471.441 1036.31 467.125 1034.15 466.816 1034.15C464.966 1033.22 464.35 1030.75 465.275 1028.9C466.2 1027.05 468.358 1026.13 469.9 1027.05C470.208 1027.37 481 1032.6 495.183 1026.13C509.058 1019.97 511.525 1011.02 511.525 1010.4C512.141 1008.25 513.991 1007.02 515.841 1007.63C517.691 1008.25 518.925 1010.4 518.308 1012.57C518.308 1013.18 514.916 1025.52 497.65 1033.53C489.941 1036.92 483.158 1037.54 477.916 1036.92Z" fill="#438E95"/>
<path d="M454.485 967.55C445.543 966.934 440.918 963.234 440.61 962.922C439.068 961.689 438.76 959.222 439.993 957.372C441.227 955.522 443.385 955.217 445.235 956.755C445.543 956.755 452.327 962 467.435 958.917C486.552 954.905 491.793 947.505 492.102 947.2C493.335 945.35 495.493 945.039 497.343 946.272C498.885 947.505 499.193 949.972 497.96 951.822C497.343 952.75 490.56 961.689 468.977 966.622C463.118 967.855 458.493 967.855 454.485 967.55Z" fill="#438E95"/>
<path d="M500.118 916.054C500.118 916.054 481.618 925.616 455.41 925.305C442.46 925 433.518 922.533 427.66 919.755C421.493 916.983 418.718 914.205 418.718 914.205C418.718 914.205 419.027 908.655 418.102 890.466C415.018 833.116 440.918 825.716 457.877 825.1C461.885 825.1 466.202 825.716 469.902 826.95C482.235 831.266 492.718 842.366 496.727 855.933C501.968 874.738 500.118 916.054 500.118 916.054Z" fill="#09555B"/>
<path d="M462.191 860.555C442.766 871.038 434.749 864.255 434.749 864.255C434.749 864.255 430.124 879.983 427.966 911.121C427.658 914.205 427.658 917.288 427.349 919.755C421.183 916.983 418.408 914.205 418.408 914.205C418.408 914.205 418.716 908.655 417.791 890.466C414.708 833.116 440.608 825.716 457.566 825.1C461.574 825.1 465.891 825.716 469.591 826.95C474.524 835.271 480.074 851 462.191 860.555Z" fill="#0B828C"/>
<path d="M855.933 956.762C855.011 961.695 854.083 966.317 852.85 970.945C845.45 999.617 832.5 1022.75 814.311 1037.85C762.2 1081.33 690.666 1104.45 598.783 1044.95C525.4 997.462 457.875 889.85 433.516 848.229C427.35 837.745 423.958 831.267 423.958 831.267C423.958 831.267 466.2 829.112 532.8 798.584C560.241 785.945 592 768.367 626.841 744.317C686.966 702.384 721.811 663.228 741.85 632.703C765.595 596.936 768.983 573.503 768.983 573.503C768.983 573.503 774.845 584.295 785.016 608.036C797.35 637.328 815.85 686.045 836.816 758.195C859.321 835.895 865.495 904.65 855.933 956.762Z" fill="#0A7983"/>
<path d="M785.017 608.033C777.922 622.216 768.055 638.866 755.105 657.058C729.822 691.588 692.205 731.366 636.706 767.133C602.481 789.333 571.956 805.366 545.131 817.083C490.247 841.438 452.322 846.988 433.206 847.916C427.039 837.433 423.647 830.955 423.647 830.955C423.647 830.955 465.889 828.8 532.489 798.271C559.931 785.633 591.689 768.055 626.531 744.005C686.655 702.071 721.5 662.916 741.538 632.391C765.284 596.625 768.672 573.191 768.672 573.191C768.672 573.191 775.15 584.6 785.017 608.033Z" fill="#09555B"/>
<path d="M852.85 970.945C845.45 999.616 832.5 1022.74 814.311 1037.85C762.2 1081.33 690.666 1104.45 598.783 1044.94C525.4 997.461 457.875 889.85 433.516 848.228C427.35 837.745 423.958 831.266 423.958 831.266C423.958 831.266 466.2 829.111 532.8 798.583C559.008 839.283 616.975 923.461 674.016 973.1C740.311 1031.07 815.85 996.845 852.85 970.945Z" fill="#438E95"/>
<path d="M545.131 817.395C490.247 841.75 452.322 847.3 433.206 848.228C427.039 837.745 423.647 831.266 423.647 831.266C423.647 831.266 465.889 829.111 532.489 798.583C536.189 804.133 540.506 810.611 545.131 817.395Z" fill="#0B828C"/>
<path d="M847.3 926.85C839.595 895.088 829.112 855.005 815.85 812.455C794.578 743.388 770.528 690.05 757.267 666.924C775.767 638.865 779.162 627.457 779.162 627.457C779.162 627.457 783.783 636.09 791.8 654.59C801.362 677.407 815.85 715.638 832.195 772.067C850.078 832.5 855.012 886.15 847.3 926.85Z" fill="#0C8792"/>
<path d="M785.016 608.033C777.921 622.216 768.055 638.866 755.105 657.058C750.171 647.5 745.855 639.175 741.85 632.391C765.588 596.625 768.983 573.191 768.983 573.191C768.983 573.191 775.15 584.6 785.016 608.033Z" fill="#0B828C"/>
<path d="M688.505 952.75C688.505 952.75 660.758 973.717 604.333 997.15C588.608 1003.62 573.191 1009.17 559.316 1013.8C558.083 1012.57 556.849 1011.33 555.616 1010.1C516.149 972.172 480.691 923.15 456.641 886.15C455.099 883.988 453.866 881.833 452.633 879.983C455.099 879.367 496.416 868.883 546.674 846.372C598.783 823.25 612.041 812.767 612.041 812.767L688.505 952.75Z" fill="#0A7983"/>
<path d="M679.872 952.438C679.872 952.438 654.899 972.483 601.865 993.45C585.524 999.921 569.182 1005.47 555.307 1010.1C515.84 972.171 480.382 923.15 456.332 886.15L461.265 884.916C461.265 884.916 500.115 875.05 548.215 853.771C596.315 832.188 609.882 825.1 609.882 825.1L679.872 952.438Z" fill="#09555B"/>
<path d="M542.358 964.466C541.433 964.466 540.2 964.154 539.583 963.538L505.667 933.321L503.508 939.8C502.583 941.954 500.425 943.188 498.267 942.266C496.108 941.338 494.875 939.183 495.8 937.021L500.117 924.688C500.733 923.454 501.658 922.221 502.892 921.916C504.125 921.604 505.667 921.916 506.9 922.838L536.808 949.354L535.267 937.333C534.958 935.483 535.883 933.633 537.733 933.016L639.792 888.921C641.95 887.999 644.417 888.921 645.342 891.083C646.267 893.238 645.342 895.704 643.183 896.633L543.9 939.488L546.675 959.533C546.983 961.383 546.058 962.921 544.517 963.85C543.592 964.154 542.975 964.466 542.358 964.466Z" fill="#438E95"/>
<path d="M768.983 573.501C768.983 573.501 764.355 606.493 728.9 652.435C708.55 678.95 677.717 709.783 631.465 741.233C555.615 793.033 495.799 814.928 460.032 824.483C436.599 830.65 423.649 831.267 423.649 831.267C423.649 831.267 346.257 699.3 358.899 579.668C362.29 548.526 371.849 522.626 386.34 501.351C396.824 485.626 409.774 472.676 424.574 461.885C467.432 431.051 525.09 420.26 581.207 427.043C683.572 439.685 768.983 573.501 768.983 573.501Z" fill="#438E95"/>
<path d="M768.983 573.503C768.983 573.503 766.822 588.303 755.105 611.736C749.25 623.453 740.922 637.328 728.9 652.745C708.55 679.262 677.717 710.095 631.464 741.545C549.756 797.045 486.547 818.317 452.322 826.645C433.822 830.962 423.647 831.579 423.647 831.579C423.647 830.65 423.956 759.734 539.272 669.703C655.206 578.745 768.983 573.503 768.983 573.503Z" fill="#0B828C"/>
<path d="M755.105 611.733C749.25 623.45 740.921 637.325 728.9 652.742C708.55 679.255 677.716 710.088 631.463 741.538C549.755 797.038 486.546 818.317 452.321 826.638C465.271 797.038 493.638 753.255 557.463 703.305C635.78 641.95 713.171 619.75 755.105 611.733Z" fill="#49A2AA"/>
<path d="M768.977 573.501C768.977 573.501 764.355 606.493 728.893 652.435C709.16 618.518 691.588 597.243 691.588 597.243C691.588 597.243 646.263 638.251 609.263 608.96C572.263 579.36 600.013 525.093 600.013 525.093C600.013 525.093 562.704 485.01 501.963 472.06C471.746 465.585 444.304 462.81 424.263 461.885C467.121 431.051 524.779 420.26 580.896 427.043C683.572 439.685 768.977 573.501 768.977 573.501Z" fill="#49A2AA"/>
<path d="M460.344 824.483C436.91 830.65 423.96 831.267 423.96 831.267C423.96 831.267 346.569 699.3 359.21 579.669C362.602 548.528 372.16 522.628 386.652 501.353C383.26 536.811 380.485 618.828 408.852 707.317C423.035 752.333 442.152 792.417 460.344 824.483Z" fill="#49A2AA"/>
<path d="M812.462 1361.6C812.462 1363.45 812.462 1365.3 812.15 1367.46C810.917 1385.65 755.112 1389.04 716.262 1390.89C678.029 1392.74 637.634 1381.95 651.509 1369.31C651.817 1369 651.817 1369 652.125 1368.69C661.992 1360.37 681.112 1350.81 702.384 1343.1C714.717 1338.48 727.362 1334.78 740 1331.69C756.65 1327.68 790.567 1319.67 801.667 1327.99C803.829 1329.53 805.679 1332 807.217 1334.78C810.612 1341.25 812.462 1350.81 812.462 1361.6Z" fill="#09555B"/>
<path d="M812.462 1361.6C812.462 1363.45 812.462 1365.3 812.15 1367.46C810.917 1385.65 755.112 1389.04 716.262 1390.89C678.029 1392.74 637.634 1381.95 651.509 1369.31C659.834 1374.24 678.029 1380.1 715.95 1378.56C767.75 1376.4 799.2 1367.77 812.462 1361.6Z" fill="#0B828C"/>
<path d="M806.912 1334.78C804.445 1337.24 800.434 1339.71 795.812 1342.18C781.012 1349.58 735.995 1357.59 708.55 1352.97C696.529 1350.81 697.45 1347.11 702.079 1343.1C714.412 1338.48 727.05 1334.78 739.695 1331.69C756.345 1327.68 790.262 1319.67 801.362 1327.99C803.517 1329.53 805.367 1332 806.912 1334.78Z" fill="#0B828C"/>
<path d="M737.54 1186.77C749.874 1265.7 794.89 1326.14 794.89 1326.14C794.89 1326.14 790.574 1332.3 781.94 1337.85C778.24 1340.32 773.924 1342.17 768.679 1344.02C760.662 1346.49 752.029 1346.49 744.629 1345.87C735.69 1344.95 729.212 1343.1 729.212 1343.1C729.212 1343.1 652.439 1244.12 642.881 1131.27C633.322 1018.42 694.062 961.688 694.062 961.688C694.062 961.688 694.679 961.383 695.295 960.766C701.462 956.755 728.595 941.955 761.279 960.455C763.745 961.688 765.907 963.233 767.757 964.466C792.729 980.805 796.429 997.455 796.429 997.455C796.429 997.455 779.474 1012.25 766.829 1034.45C754.19 1056.04 725.207 1107.84 737.54 1186.77Z" fill="#0A7983"/>
<path d="M737.54 1186.77C749.874 1265.71 794.89 1326.14 794.89 1326.14C794.89 1326.14 790.574 1332.31 781.94 1337.86C759.429 1306.72 705.474 1212.37 707.324 1122.64C708.862 1040.62 751.412 983.583 768.062 964.467C793.04 980.805 796.74 997.455 796.74 997.455C796.74 997.455 779.779 1012.25 767.14 1034.45C754.19 1056.04 725.207 1107.84 737.54 1186.77Z" fill="#438E95"/>
<path d="M744.316 1345.57C735.378 1344.64 728.9 1342.79 728.9 1342.79C728.9 1342.79 652.128 1243.82 642.569 1130.97C633.011 1018.12 693.75 961.384 693.75 961.384C693.75 961.384 694.367 961.072 694.983 960.455C683.267 984.505 657.061 1046.79 659.528 1117.09C662.611 1207.43 701.767 1277.12 729.212 1321.52C734.45 1330.46 739.695 1338.47 744.316 1345.57Z" fill="#0C8792"/>
<path d="M685.733 1265.4C684.811 1265.4 683.578 1265.09 682.961 1264.17C681.416 1262.63 681.111 1259.85 682.65 1258.31C682.961 1258 691.9 1248.75 709.783 1243.2C727.978 1237.65 748.016 1243.82 748.945 1244.13C751.1 1244.74 752.333 1247.21 751.716 1249.37C751.1 1251.53 748.633 1252.76 746.478 1252.14C746.166 1252.14 727.978 1246.59 712.25 1251.22C696.528 1256.15 688.816 1263.86 688.816 1264.17C688.2 1265.09 686.966 1265.4 685.733 1265.4Z" fill="#438E95"/>
<path d="M653.979 1166.73C652.437 1166.73 651.203 1166.12 650.278 1164.58C649.045 1162.42 649.661 1159.95 651.82 1158.72C652.436 1158.41 670.628 1147.93 691.284 1147C712.25 1145.77 729.829 1157.79 730.445 1158.41C732.295 1159.64 732.912 1162.42 731.367 1164.27C730.134 1166.12 727.362 1166.73 725.512 1165.19C725.2 1165.19 709.784 1154.4 691.595 1155.33C672.787 1156.25 656.136 1165.81 655.828 1166.12C655.52 1166.73 654.595 1166.73 653.979 1166.73Z" fill="#438E95"/>
<path d="M738.461 1085.33C737.533 1085.33 736.3 1085.03 735.683 1084.1C735.378 1083.79 712.561 1063.13 689.745 1060.36C667.544 1057.58 653.977 1067.14 653.977 1067.45C652.127 1068.68 649.352 1068.38 648.119 1066.53C646.886 1064.68 647.194 1061.9 649.044 1060.67C649.661 1060.05 665.386 1048.64 690.978 1052.03C716.261 1055.43 740.311 1077.01 741.545 1077.93C743.395 1079.48 743.395 1082.25 741.85 1083.79C740.616 1084.72 739.383 1085.33 738.461 1085.33Z" fill="#438E95"/>
<path d="M1007.64 997.767C1007.64 997.767 1001.78 1017.81 983.278 1029.83C964.778 1041.86 954.295 1043.1 954.295 1043.1C954.295 1043.1 942.273 1041.25 942.273 1033.53C942.273 1033.23 942.273 1032.92 942.273 1032.61C942.89 1024.28 948.745 1016.88 948.745 1016.88C948.745 1016.88 964.473 1014.11 973.107 1009.8C981.74 1005.48 990.99 991.6 997.773 990.062C1001.16 989.445 1003.32 990.984 1005.17 993.145C1007.02 995.3 1007.64 997.767 1007.64 997.767Z" fill="#0A7983"/>
<path d="M1007.64 997.766C1007.64 997.766 1001.78 1017.81 983.278 1029.83C964.778 1041.86 954.295 1043.09 954.295 1043.09C954.295 1043.09 942.273 1041.24 942.273 1033.53C950.595 1032.92 970.328 1030.45 984.207 1019.35C995.612 1010.41 1002.09 999.616 1005.17 992.833C1007.02 995.3 1007.64 997.766 1007.64 997.766Z" fill="#438E95"/>
<path d="M996.229 996.228C985.129 1011.33 972.484 1017.2 962.001 1020.9C951.517 1024.6 944.429 1023.05 944.429 1023.05C944.429 1023.05 938.879 1017.81 939.801 1011.33C940.112 1007.63 942.579 1003.63 949.05 999.928C949.05 999.928 966.629 997.767 977.729 976.183C988.829 954.6 984.2 952.445 986.979 948.128C988.829 945.045 995.612 945.35 1000.23 948.128C1002.4 949.362 1004.25 951.517 1004.86 953.983C1007.63 961.695 1007.33 981.117 996.229 996.228Z" fill="#0A7983"/>
<path d="M996.229 996.228C985.129 1011.33 972.484 1017.19 962.001 1020.89C951.517 1024.59 944.429 1023.05 944.429 1023.05C944.429 1023.05 938.879 1017.81 939.801 1011.33C951.212 1010.72 974.646 1007.63 986.051 990.678C997.462 974.028 999.929 956.45 1000.23 948.128C1002.4 949.361 1004.25 951.516 1004.86 953.983C1007.63 961.695 1007.33 981.116 996.229 996.228Z" fill="#438E95"/>
<path d="M975.567 986.667C965.084 1000.85 953.062 1006.71 942.884 1010.1C933.017 1013.49 926.234 1011.95 926.234 1011.95C926.234 1011.95 920.996 1007.02 921.917 1000.85C922.229 997.462 924.696 993.45 930.862 990.062C930.862 990.062 947.512 988.212 957.996 967.55C968.479 947.2 964.162 945.045 966.629 940.728C968.479 937.95 974.646 937.95 979.267 940.728C981.429 941.962 982.967 943.812 983.896 946.278C986.362 953.983 986.051 972.483 975.567 986.667Z" fill="#0A7983"/>
<path d="M975.567 986.667C965.084 1000.85 953.062 1006.71 942.884 1010.1C933.017 1013.49 926.234 1011.95 926.234 1011.95C926.234 1011.95 920.996 1007.02 921.917 1000.85C932.712 1000.23 954.912 997.462 966.012 981.428C976.801 965.7 978.962 949.05 979.579 941.033C981.734 942.267 983.279 944.117 984.201 946.583C986.362 953.983 986.051 972.483 975.567 986.667Z" fill="#438E95"/>
<path d="M967.245 1014.11C967.557 1023.05 965.395 1030.45 962.929 1036C959.54 1043.09 955.84 1046.79 955.84 1046.79C955.84 1046.79 877.829 1074.23 795.812 1005.78C753.574 970.633 719.657 924.695 696.841 888.616C675.255 854.395 663.23 828.8 663.23 828.8C663.23 828.8 656.755 808.762 668.78 791.495C672.48 785.945 678.029 780.7 686.662 776.383C701.157 768.983 713.179 768.366 722.74 770.833C738.774 774.845 747.712 786.866 747.712 786.866C747.712 786.866 759.74 813.383 777.624 846.066C798.59 883.995 827.574 930.245 855.324 951.828C906.812 991.911 949.674 976.495 949.674 976.495C949.674 976.495 954.295 981.116 958.924 988.212C962.312 994.683 966.94 1003.93 967.245 1014.11Z" fill="#0A7983"/>
<path d="M776.695 845.45C770.217 855.628 757.578 870.733 734.145 879.367C719.033 885.228 705.778 887.383 696.217 888.312C674.636 854.083 662.611 828.495 662.611 828.495C662.611 828.495 651.511 793.65 685.733 775.767C724.278 755.728 746.783 786.25 746.783 786.25C746.783 786.25 758.812 813.078 776.695 845.45Z" fill="#438E95"/>
<path d="M962.617 1035.7C959.228 1042.78 955.528 1046.48 955.528 1046.48C955.528 1046.48 877.517 1073.93 795.5 1005.48C753.262 970.329 719.345 924.384 696.528 888.312C674.944 854.084 662.919 828.495 662.919 828.495C662.919 828.495 656.444 808.45 668.469 791.184C678.645 814.312 722.117 908.662 777.312 962.929C840.517 1024.9 874.745 1032.61 935.483 1035.08C945.35 1035.38 954.6 1035.7 962.617 1035.7Z" fill="#438E95"/>
<path d="M957.995 987.9C942.273 992.528 920.378 995.917 897.561 988.828C855.011 975.567 820.173 948.745 785.945 897.25C757.89 854.7 730.756 791.8 722.123 770.528C738.156 774.533 747.095 786.562 747.095 786.562C747.095 786.562 759.123 813.078 777.006 845.762C797.973 883.683 826.956 929.933 854.706 951.517C906.195 991.6 949.056 976.183 949.056 976.183C949.056 976.183 953.373 980.5 957.995 987.9Z" fill="#0C8792"/>
<path d="M744.316 939.495C736.611 939.495 731.678 937.645 731.366 937.645C729.212 936.717 727.978 934.25 728.9 932.095C729.828 929.933 732.295 928.7 734.45 929.628C735.066 929.933 749.561 934.867 768.983 924.383C788.411 913.595 793.033 894.478 793.033 894.478C793.65 892.317 795.811 890.778 797.966 891.395C800.128 892.012 801.666 894.167 801.05 896.328C800.745 897.25 795.812 919.145 772.683 931.783C761.895 937.95 751.716 939.495 744.316 939.495Z" fill="#438E95"/>
<path d="M803.211 1008.56C800.745 1008.56 798.895 1006.71 798.895 1004.25C798.895 1001.78 800.745 999.929 803.211 999.929C803.516 999.929 822.633 999.617 833.428 986.362C844.528 972.795 842.366 953.679 842.366 953.367C842.061 950.9 843.911 949.05 846.066 948.745C848.228 948.434 850.383 950.284 850.695 952.445C850.695 953.367 853.161 975.262 839.899 991.6C826.645 1008.56 804.133 1008.56 803.211 1008.56Z" fill="#438E95"/>
<path d="M871.045 1044.63C869.5 1044.63 867.65 1043.71 867.034 1041.86C866.112 1039.7 867.345 1037.23 869.5 1036.31C869.812 1036.31 887.079 1029.22 891.7 1010.41C896.329 991.295 889.85 980.195 889.545 979.883C888.312 978.033 888.929 975.262 890.779 974.028C892.629 972.795 895.4 973.412 896.634 975.262C896.945 975.878 905.579 989.75 899.717 1012.26C893.862 1035.38 873.2 1043.71 872.279 1044.02C871.967 1044.63 871.662 1044.63 871.045 1044.63Z" fill="#438E95"/>
<path d="M779.161 808.45C779.161 808.45 778.545 812.15 776.383 817.7C772.066 828.184 761.895 845.45 738.766 860.562C703 883.684 671.241 873.817 671.241 873.817C671.241 873.817 648.425 843.912 643.8 802.595C641.025 778.85 656.75 760.35 677.1 751.412C692.211 744.934 709.783 743.7 723.966 749.867C757.578 764.979 779.161 808.45 779.161 808.45Z" fill="#09555B"/>
<path d="M779.155 808.45C779.155 808.45 778.538 812.15 776.383 817.7C776.383 817.395 776.072 817.395 776.072 817.084C747.4 779.162 724.888 771.45 724.888 771.45C724.888 771.45 716.567 791.184 689.122 779.779C670.007 772.067 673.399 758.5 677.407 751.412C692.517 744.934 710.088 743.7 724.272 749.867C757.572 764.979 779.155 808.45 779.155 808.45Z" fill="#0B828C"/>
<path d="M404.533 645.341C398.675 644.416 393.125 648.116 391.892 653.666C389.117 665.383 384.8 685.421 382.95 700.838C381.408 713.788 380.792 724.583 380.483 731.983C380.175 737.221 384.183 742.155 389.425 743.083C395.592 744.005 401.142 739.688 401.758 733.522C402.375 723.967 403.917 709.471 407.308 692.821C410.392 677.099 412.55 665.999 414.092 658.599C415.017 652.433 410.7 646.574 404.533 645.341Z" fill="#09555B"/>
<path d="M351.189 678.334C352.731 672.164 359.206 668.773 365.064 671.548C374.314 675.556 387.881 681.417 400.831 686.039C414.089 690.667 426.423 695.289 434.131 698.372C439.373 700.222 442.147 705.772 440.914 711.322C439.372 717.184 433.206 720.884 427.348 719.034C417.173 716.255 401.139 711.017 384.181 703.922C369.073 697.45 360.439 692.517 355.198 689.434C351.806 686.967 350.264 682.65 351.189 678.334Z" fill="#09555B"/>
<path d="M537.116 570.108C529.716 568.874 522.624 573.808 520.774 581.208C517.383 596.624 512.449 622.524 510.291 642.874C508.749 659.833 507.824 673.708 507.824 683.267C507.516 690.355 512.758 696.217 519.541 697.138C527.558 698.372 534.649 692.517 535.266 684.5C535.883 672.166 537.733 653.358 541.124 631.774C544.516 611.116 547.291 596.624 548.833 587.066C550.683 579.049 545.133 571.341 537.116 570.108Z" fill="#09555B"/>
<path d="M468.667 614.509C470.517 606.492 479.15 602.175 486.55 605.259C498.575 610.192 516.15 617.284 533.109 623.142C550.375 629 566.409 634.55 576.584 638.25C583.367 640.717 587.375 647.809 585.525 654.9C583.675 662.609 575.659 667.542 567.95 665.384C554.692 661.992 534.034 655.825 511.834 646.884C492.1 638.867 480.692 632.7 474.217 628.692C469.9 625.3 467.434 619.75 468.667 614.509Z" fill="#09555B"/>
<path d="M1580.82 1159.33C1580.82 1159.33 1596.55 1163.96 1607.96 1177.22C1619.37 1190.78 1620.91 1212.68 1620.91 1212.68L1683.19 1183.7C1683.19 1183.7 1651.74 1195.72 1641.26 1174.75C1630.77 1153.78 1665.62 1120.48 1665.62 1120.48C1665.62 1120.48 1627.07 1151.93 1611.97 1147.31C1596.86 1142.68 1594.39 1123.88 1594.39 1123.88L1580.82 1159.33Z" fill="#438E95"/>
<path d="M1521.93 1152.25L1533.03 1152.55L1550.3 1026.13L1511.14 1018.73L1521.93 1152.25Z" fill="#0A7983"/>
<path d="M1549.07 1152.86L1574.97 1034.46L1612.27 1052.65L1555.85 1155.94L1549.07 1152.86Z" fill="#0A7983"/>
<path d="M315.112 555.308L308.637 569.491L173.278 527.866L191.47 474.524L315.112 555.308Z" fill="#438E95"/>
<path d="M335.464 508.442L323.439 525.709L170.506 409.159L212.748 365.067L335.464 508.442Z" fill="#438E95"/>
</svg>
