<svg width="20" height="5" viewBox="0 0 20 5" fill="none" xmlns="http://www.w3.org/2000/svg">
<path d="M2.18171 4.36342C3.38508 4.36342 4.36342 3.3849 4.36342 2.18171C4.36342 0.978342 3.38508 0 2.18171 0C0.978343 0 0 0.978342 0 2.18171C0 3.38508 0.978343 4.36342 2.18171 4.36342ZM2.18171 1.32231C2.65509 1.32231 3.04112 1.70732 3.04112 2.18171C3.04112 2.6561 2.6561 3.04112 2.18171 3.04112C1.70834 3.04112 1.32231 2.6561 1.32231 2.18171C1.32231 1.70732 1.70835 1.32231 2.18171 1.32231Z" fill="#EAE7F4"/>
<path d="M10.0001 4.36342C11.2034 4.36342 12.1818 3.3849 12.1818 2.18171C12.1818 0.978342 11.2034 0 10.0001 0C8.7967 0 7.81836 0.978518 7.81836 2.18171C7.81836 3.38508 8.7967 4.36342 10.0001 4.36342ZM10.0001 1.32231C10.4734 1.32231 10.8595 1.70732 10.8595 2.18171C10.8595 2.6561 10.4734 3.04112 10.0001 3.04112C9.52671 3.04112 9.14067 2.65507 9.14067 2.18171C9.14067 1.70835 9.52671 1.32231 10.0001 1.32231Z" fill="#EAE7F4"/>
<path d="M17.8184 0.000244141C16.6151 0.000244141 15.6367 0.978763 15.6367 2.18196C15.6367 3.38532 16.6152 4.36367 17.8184 4.36367C19.0218 4.36367 20.0001 3.38515 20.0001 2.18196C20.0001 0.978587 19.0218 0.000244141 17.8184 0.000244141ZM17.8184 3.04136C17.3451 3.04136 16.959 2.65634 16.959 2.18196C16.959 1.70757 17.344 1.32255 17.8184 1.32255C18.2928 1.32255 18.6778 1.70757 18.6778 2.18196C18.6778 2.65634 18.2918 3.04136 17.8184 3.04136Z" fill="#EAE7F4"/>
</svg>
