<svg width="20" height="23" viewBox="0 0 20 23" fill="none" xmlns="http://www.w3.org/2000/svg">
<path d="M10.0001 13.1582C7.96995 13.1588 6.05518 12.2078 4.81901 10.5852C3.58289 8.96283 3.16588 6.8534 3.69088 4.87778C4.21592 2.90197 5.62302 1.28461 7.49852 0.501429C9.37379 -0.28175 11.504 -0.141655 13.2625 0.880721C15.021 1.9029 16.2074 3.69108 16.4728 5.71901C16.7383 7.74689 16.0527 9.78365 14.6176 11.2302C13.3958 12.4685 11.7332 13.1629 10.0002 13.1585L10.0001 13.1582ZM10.0001 2.02423C8.80037 2.02423 7.64983 2.50459 6.80181 3.35937C5.95362 4.21433 5.4774 5.37355 5.47777 6.58229C5.47831 7.79103 5.95541 8.95006 6.80416 9.80428C7.65291 10.6585 8.80377 11.1377 10.0035 11.1369C11.2032 11.136 12.3533 10.6549 13.2008 9.79942C14.0483 8.94395 14.5236 7.78418 14.5224 6.57544C14.5197 5.36832 14.042 4.21146 13.1946 3.35849C12.3469 2.50533 11.1982 2.02572 10.0001 2.02428V2.02423ZM18.9956 22.222C18.7291 22.222 18.4736 22.1155 18.2852 21.9257C18.097 21.7359 17.9911 21.4784 17.9911 21.21C17.9911 19.0747 17.1492 17.0267 15.6506 15.5169C14.1519 14.007 12.1193 13.1587 10.0001 13.1587C7.88082 13.1587 5.84809 14.0069 4.34954 15.5169C2.85098 17.0268 2.00899 19.0748 2.00899 21.21C2.00899 21.5715 1.81753 21.9056 1.50673 22.0865C1.19595 22.2672 0.813012 22.2672 0.502258 22.0865C0.191505 21.9057 0 21.5716 0 21.21C0.00125606 18.8854 0.79992 16.6328 2.2609 14.8337C3.72187 13.0345 5.75502 11.7996 8.01615 11.3379C10.2774 10.8763 12.6276 11.2164 14.6681 12.3007C16.709 13.3849 18.3149 15.1467 19.2142 17.2876C19.7358 18.5284 20.003 19.8626 20 21.2102C20.0003 21.4788 19.8946 21.7364 19.7062 21.9263C19.5176 22.1161 19.262 22.2226 18.9955 22.2222L18.9956 22.222Z" fill="#74707F"/>
</svg>
