<svg width="723" height="659" viewBox="0 0 723 659" fill="none" xmlns="http://www.w3.org/2000/svg">
<path d="M475.629 273.281V67.948C475.629 30.6147 445.015 0 407.681 0H67.948C30.6147 0 0 30.6147 0 67.948V274.028C0 306.883 23.1453 334.507 54.5053 340.481V400.96C54.5053 407.679 57.4897 415.148 62.7189 419.627C67.1981 424.106 73.9168 426.345 79.8909 426.345C86.6097 426.345 93.3283 423.361 97.8123 418.877L174.719 341.975H407.679C445.012 341.975 475.627 311.361 475.627 273.282L475.629 273.281ZM256.856 266.563C256.856 272.537 252.377 277.016 246.403 277.016H218.778C212.804 277.016 208.325 272.536 208.325 266.563V248.641C208.325 242.667 212.804 238.188 218.778 238.188H246.403C252.377 238.188 256.856 242.667 256.856 248.641V266.563ZM299.413 161.281C291.945 171.734 282.987 179.203 271.788 185.177C265.814 188.912 261.335 193.391 259.095 198.615C257.601 201.599 256.856 206.083 256.111 210.562C256.111 214.297 252.377 217.281 248.642 217.281H215.043C210.564 217.281 206.83 213.547 207.575 209.068C208.319 199.359 210.559 192.641 214.293 186.666C218.773 179.947 227.731 172.478 240.429 163.521C247.148 159.787 251.627 154.563 255.361 148.589C259.096 142.615 260.591 135.896 260.591 127.682C260.591 119.469 258.351 113.494 253.872 108.27C249.393 103.791 243.419 100.801 235.205 100.801C228.486 100.801 223.257 103.041 218.779 106.775C215.794 109.015 214.299 112.749 212.805 116.484C211.31 120.963 206.831 124.697 201.607 123.953L170.247 123.208C166.512 123.208 163.528 119.473 163.528 115.739C165.023 99.3123 170.997 86.6189 182.195 77.6603C194.887 67.952 212.809 62.7283 233.716 62.7283C256.861 62.7283 274.784 68.7023 287.476 79.9003C300.913 91.0981 306.888 106.78 306.888 126.942C310.617 139.629 306.883 150.827 299.414 161.28L299.413 161.281Z" fill="black"/>
<path d="M654.828 232.215H524.911V273.283C524.911 338.242 472.646 390.512 407.682 390.512H247.148V506.247C247.148 543.58 277.763 574.195 315.096 574.195L548.056 574.19L624.963 651.096C629.442 655.575 636.161 658.565 642.884 658.565C649.603 658.565 655.577 656.325 660.056 651.846C665.286 647.367 668.27 639.898 668.27 633.18V572.701C698.885 565.982 722.775 539.102 722.775 506.248V300.168C722.775 262.834 692.161 232.22 654.827 232.22L654.828 232.215Z" fill="black"/>
</svg>
