<svg width="523" height="598" viewBox="0 0 523 598" fill="none" xmlns="http://www.w3.org/2000/svg">
<path d="M522.669 164.267V552.533C522.669 577.241 502.576 597.336 477.867 597.336H194.133C169.425 597.336 149.331 577.243 149.331 552.533V507.731H328.531C369.703 507.731 403.197 474.236 403.197 433.064V119.464H477.864C502.572 119.464 522.667 139.552 522.667 164.261L522.669 164.267ZM112.003 1.74667C104.773 3.8092 98.1533 7.65814 92.696 13.1164L13.128 92.7004C7.66959 98.1588 3.81546 104.784 1.75826 112.003H112.004L112.003 1.74667ZM328.536 477.867H44.8027C20.0947 477.867 0 457.773 0 433.064V141.864H126.932C135.177 141.864 141.864 135.171 141.864 126.932V0H328.531C353.239 0 373.333 20.0933 373.333 44.8027V433.069C373.333 457.777 353.24 477.867 328.531 477.867H328.536ZM201.604 336C201.604 327.75 194.922 321.068 186.672 321.068C178.422 321.068 171.74 327.75 171.74 336C171.74 344.25 178.422 350.932 186.672 350.932C194.922 350.932 201.604 344.25 201.604 336ZM246.407 216.531C246.407 183.593 219.609 156.796 186.672 156.796C153.735 156.796 126.937 183.593 126.937 216.531C126.937 224.775 133.63 231.463 141.869 231.463C150.114 231.463 156.801 224.77 156.801 216.531C156.801 200.057 170.197 186.667 186.665 186.667C203.139 186.667 216.529 200.063 216.529 216.531C216.529 233.004 203.133 246.395 186.665 246.395C178.421 246.395 171.733 253.087 171.733 261.327V291.191C171.733 299.435 178.426 306.123 186.665 306.123C194.91 306.123 201.597 299.43 201.597 291.191V274.368C227.332 267.722 246.404 244.316 246.404 216.529L246.407 216.531Z" fill="black"/>
</svg>
