<svg width="545" height="378" viewBox="0 0 545 378" fill="none" xmlns="http://www.w3.org/2000/svg">
<path d="M213.96 170.932C186.538 154.604 153.856 149.516 122.766 156.735C126.162 144.969 131.824 133.98 139.422 124.375C147.558 113.609 169.818 88.3641 200.704 86.5201C209.381 86.0045 216.365 79.192 217.1 70.5308L221.475 18.9788V18.9736C221.912 13.8433 220.063 8.7809 216.423 5.1349C212.782 1.4889 207.72 -0.365084 202.584 0.0619822C128.781 6.20785 18.3439 66.4473 2.95725 163.555C-7.17302 227.446 9.20726 295.566 44.6706 337.102C64.7853 362.326 95.1973 377.143 127.457 377.446C168.447 379.024 207.984 362.129 235.176 331.415C256.853 305.765 265.807 271.713 259.561 238.718C254.983 210.551 238.327 185.797 213.963 170.942L213.96 170.932ZM208.335 308.932L208.34 308.937C187.736 331.62 158.064 343.907 127.455 342.432C105.433 342.12 84.7519 331.786 71.2826 314.364C42.6266 280.812 29.0586 222.411 37.5173 169.031C48.6006 99.1453 125.184 51.2907 184.717 38.1613L183.394 53.724C140.504 63.2604 107.258 100.651 93.3424 134.62C84.5142 156.177 84.9726 173.953 94.6392 184.688L94.6444 184.693C98.686 188.974 103.92 191.943 109.675 193.219C115.425 194.49 121.425 194.011 126.899 191.834C150.03 185.375 174.79 188.573 195.524 200.693C211.436 210.313 222.264 226.485 225.103 244.86C229.442 267.652 223.285 291.188 208.338 308.938L208.335 308.932ZM542.295 238.697L542.3 238.703C537.722 210.541 521.071 185.791 496.716 170.943C469.289 154.604 436.607 149.511 405.513 156.735C408.904 144.969 414.555 133.975 422.159 124.375C430.304 113.609 452.565 88.364 483.456 86.52C492.128 85.9992 499.101 79.1867 499.836 70.5307L504.211 18.9786V18.9734C504.648 13.8432 502.805 8.77558 499.159 5.12945C495.518 1.48358 490.456 -0.370549 485.32 0.0617178C411.528 6.20758 301.093 66.447 285.707 163.555C275.576 227.446 291.952 295.566 327.415 337.102C347.535 362.32 377.941 377.138 410.201 377.44C451.185 379.019 490.717 362.123 517.904 331.41C539.581 305.759 548.54 271.707 542.3 238.707L542.295 238.697ZM491.071 308.932L491.076 308.937C470.472 331.62 440.805 343.901 410.196 342.427C388.175 342.114 367.499 331.786 354.024 314.364C325.373 280.812 311.811 222.405 320.269 169.031C331.342 99.1453 407.931 51.2907 467.469 38.1613L466.146 53.724C423.25 63.2604 390.006 100.651 376.094 134.62C367.256 156.177 367.719 173.953 377.376 184.688V184.693C381.423 188.969 386.657 191.933 392.406 193.209C398.156 194.48 404.156 194 409.63 191.834C432.766 185.375 457.532 188.573 478.27 200.693C494.182 210.313 505.01 226.485 507.844 244.86C512.187 267.657 506.026 291.199 491.073 308.948L491.071 308.932Z" fill="black"/>
</svg>
