<svg width="10" height="13" viewBox="0 0 10 13" fill="none" xmlns="http://www.w3.org/2000/svg">
<path d="M8.54518 3.6621L8.21174 11.664C8.20527 11.8206 8.06601 11.9537 7.9085 11.9537H2.09031C1.9328 11.9537 1.79354 11.8202 1.78707 11.664L1.45363 3.6621C1.44311 3.41136 1.2313 3.21642 0.980581 3.22697C0.729717 3.23737 0.534899 3.44917 0.545321 3.70002L0.878762 11.702C0.905523 12.3451 1.44555 12.8629 2.09032 12.8629H7.9085C8.55292 12.8629 9.09331 12.346 9.12006 11.702L9.4535 3.70002C9.4639 3.44916 9.2691 3.23736 9.01824 3.22697C8.76751 3.21644 8.5557 3.41138 8.54518 3.6621Z" fill="#EAE7F4"/>
<path d="M4.63477 4.40853V10.5903C4.63477 10.7912 4.79748 10.9539 4.99837 10.9539C5.19926 10.9539 5.36197 10.7912 5.36197 10.5903V4.40853C5.36197 4.20763 5.19926 4.04492 4.99837 4.04492C4.79748 4.04492 4.63477 4.20764 4.63477 4.40853Z" fill="#EAE7F4"/>
<path d="M2.63688 4.41921L2.81875 10.601C2.82471 10.8018 2.99212 10.9598 3.19287 10.9539C3.39363 10.948 3.55167 10.7805 3.54569 10.5797L3.36382 4.39791C3.35799 4.19714 3.19045 4.03911 2.9897 4.04509C2.78893 4.05092 2.63103 4.21846 2.63688 4.41921Z" fill="#EAE7F4"/>
<path d="M6.63516 4.39791L6.45329 10.5797C6.44733 10.7805 6.60535 10.948 6.80611 10.9539C7.00688 10.9598 7.17429 10.8018 7.18024 10.601L7.36211 4.41921C7.36794 4.21844 7.21004 4.0509 7.00928 4.04509C6.80852 4.03912 6.64097 4.19715 6.63516 4.39791Z" fill="#EAE7F4"/>
<path d="M0.454545 2.59073H9.54545C9.79644 2.59073 10 2.38718 10 2.13619C10 1.88507 9.79644 1.68164 9.54545 1.68164H0.454545C0.203555 1.68164 0 1.88507 0 2.13619C0 2.38718 0.203555 2.59073 0.454545 2.59073Z" fill="#EAE7F4"/>
<path d="M3.62018 1.98887L3.80941 1.32647C3.84999 1.18455 4.03389 1.04581 4.18165 1.04581H5.821C5.96875 1.04581 6.15266 1.18443 6.19324 1.32647L6.38246 1.98887L7.25656 1.73915L7.06733 1.07662C6.91514 0.544316 6.3746 0.136719 5.821 0.136719H4.18165C3.62805 0.136719 3.0874 0.544479 2.93532 1.07662L2.74609 1.73915L3.62018 1.98887Z" fill="#EAE7F4"/>
</svg>
