<svg width="15" height="16" viewBox="0 0 15 16" fill="none" xmlns="http://www.w3.org/2000/svg">
<path fillRule="evenodd" clipRule="evenodd" d="M10.5511 10.1675L14.8167 14.4331C15.0611 14.6775 15.0611 15.0725 14.8167 15.3169C14.6949 15.4387 14.5349 15.5 14.3749 15.5C14.2148 15.5 14.0548 15.4387 13.933 15.3169L9.66739 11.0512C8.64679 11.8775 7.34992 12.375 5.93744 12.375C2.66373 12.375 0 9.71123 0 6.43748C0 3.16373 2.6637 0.5 5.93742 0.5C9.21113 0.5 11.8749 3.16376 11.8749 6.43751C11.8749 7.85 11.3774 9.14688 10.5511 10.1675ZM1.24999 6.43748C1.24999 9.02249 3.35246 11.125 5.93744 11.125C8.52239 11.125 10.6249 9.02249 10.6249 6.43748C10.6249 3.85247 8.52242 1.74998 5.93744 1.74998C3.35246 1.74998 1.24999 3.85247 1.24999 6.43748Z" fill="#EAE7F4"/>
</svg>
