<svg width="16" height="16" viewBox="0 0 16 16" fill="none" xmlns="http://www.w3.org/2000/svg">
<path d="M15.7993 2.1915H6.67613C6.49756 1.49929 6.01991 0.92284 5.37319 0.618711C4.72645 0.314596 3.97789 0.314596 3.33114 0.618711C2.6844 0.922826 2.20676 1.49924 2.02819 2.1915H0.200418C0.145175 2.19122 0.0924447 2.2141 0.0544964 2.25427C0.0165481 2.29445 -0.00297906 2.3483 0.00036936 2.40354V3.12336C0.0026014 3.23302 0.0907651 3.32118 0.200417 3.32341H2.02848H2.0282C2.20481 4.01786 2.68247 4.59707 3.33057 4.90256C3.9787 5.20834 4.72951 5.20834 5.37762 4.90256C6.02575 4.59705 6.50343 4.01781 6.67999 3.32341H15.7996C15.9092 3.32118 15.9974 3.23302 15.9996 3.12336V2.40354C16.003 2.3483 15.9834 2.29445 15.9455 2.25427C15.9076 2.2141 15.8548 2.19122 15.7996 2.1915H15.7993Z" fill="#0DF6E3"/>
<path d="M15.7992 7.43942H13.9714C13.7948 6.74497 13.3172 6.16548 12.6691 5.85999C12.0209 5.55448 11.2701 5.55448 10.622 5.85999C9.97388 6.1655 9.4962 6.74502 9.31964 7.43942H0.200048C0.0903957 7.44137 0.00223561 7.52982 0 7.63919V8.37523C0.00223204 8.48432 0.0909528 8.57137 0.200048 8.57137H9.32321C9.50177 9.2633 9.97943 9.84003 10.6262 10.1439C11.2729 10.448 12.0214 10.448 12.6682 10.1439C13.3149 9.84003 13.7926 9.26334 13.9711 8.57137H15.7989C15.908 8.57137 15.9967 8.48432 15.999 8.37523V7.63919C15.9967 7.52982 15.9086 7.44138 15.7989 7.43942H15.7992Z" fill="#0DF6E3"/>
<path d="M15.7989 12.6798H6.67576C6.49719 11.9876 6.01954 11.4111 5.37282 11.107C4.72608 10.8029 3.97752 10.8029 3.33076 11.107C2.68403 11.4111 2.20639 11.9875 2.02782 12.6798H0.200048C0.09096 12.6798 0.00223561 12.7668 0 12.8756V13.6035C0.00223204 13.7132 0.0903957 13.8016 0.200048 13.8036H2.02811H2.02783C2.20444 14.498 2.6821 15.0772 3.3302 15.383C3.97833 15.6885 4.72914 15.6885 5.37725 15.383C6.02538 15.0772 6.50306 14.498 6.67962 13.8036H15.7992C15.9089 13.8016 15.997 13.7132 15.9993 13.6035V12.8756C15.997 12.7668 15.9083 12.6798 15.7992 12.6798H15.7989Z" fill="#0DF6E3"/>
</svg>
