<svg width="520" height="519" viewBox="0 0 520 519" fill="none" xmlns="http://www.w3.org/2000/svg">
<path d="M437.55 353.919C413.654 353.919 389.764 364.372 374.832 382.293L161.285 273.277C162.78 267.303 164.269 259.84 164.269 253.865C164.269 247.891 164.269 241.917 162.775 235.944L373.335 134.397C388.267 153.809 412.163 164.261 436.053 164.261C480.856 164.261 518.189 126.928 518.189 82.1253C518.189 37.3333 480.856 0 436.059 0C391.256 0 353.923 35.8387 353.923 82.136C353.923 88.11 353.923 94.0839 355.417 100.057L143.364 201.604C128.432 182.192 104.536 171.74 80.6453 171.74C37.3333 171.73 0 209.063 0 253.865C0 298.668 37.3333 336.001 82.136 336.001C106.032 336.001 128.428 325.548 144.855 307.627L358.401 416.637C356.907 422.611 355.417 430.075 355.417 436.049C355.417 480.852 392.75 518.185 437.553 518.185C482.356 518.185 519.689 480.852 519.689 436.049C519.684 391.252 482.35 353.919 437.549 353.919H437.55ZM437.55 38.8253C461.446 38.8253 482.353 58.2373 482.353 83.628C482.353 109.013 462.941 128.431 437.55 128.431C421.124 128.431 404.696 117.978 397.233 103.045C394.249 97.0713 392.754 91.0975 392.754 83.6333C392.754 59.732 412.166 38.8267 437.551 38.8267L437.55 38.8253ZM120.964 274.772C113.495 289.704 98.5623 298.668 82.1356 298.668C58.2396 298.668 37.3329 279.256 37.3329 253.865C37.3329 228.48 56.7449 209.063 82.1356 209.063C98.5623 209.063 114.99 219.516 122.453 234.448C125.437 240.422 126.932 246.396 126.932 253.86C126.937 261.334 125.443 267.303 120.964 274.772ZM437.55 480.852C413.654 480.852 392.748 461.44 392.748 436.049C392.748 428.581 394.242 422.612 397.227 415.143C404.696 400.211 419.628 391.247 436.055 391.247C459.951 391.247 480.858 410.659 480.858 436.049C480.858 461.44 461.445 480.852 437.55 480.852Z" fill="black"/>
</svg>
