<svg width="710" height="696" viewBox="0 0 710 696" fill="none" xmlns="http://www.w3.org/2000/svg">
<path d="M617.427 0.00520833H91.9067C67.532 0.00520833 44.1573 9.68747 26.9173 26.9225C9.68267 44.1572 0 67.5372 0 91.9119V409.219V409.213C0 433.588 9.68227 456.968 26.9173 474.203C44.1573 491.437 67.532 501.12 91.9067 501.12H192.667C192.943 501.552 193.187 501.99 193.479 502.417L307.13 670.51C317.802 686.297 335.614 695.756 354.666 695.756C373.718 695.756 391.53 686.297 402.202 670.51L515.853 502.417C516.144 501.99 516.389 501.552 516.665 501.12H617.425C641.8 501.12 665.18 491.438 682.414 474.203C699.649 456.968 709.332 433.588 709.332 409.213V91.9067C709.332 67.532 699.649 44.152 682.414 26.9173C665.174 9.68267 641.8 0 617.425 0L617.427 0.00520833ZM504.333 300.699H385.068V419.964H324.265V300.699H205V239.896H324.265V120.631H385.068V239.896H504.333V300.699Z" fill="black"/>
</svg>
