<svg width="336" height="374" viewBox="0 0 336 374" fill="none" xmlns="http://www.w3.org/2000/svg">
<path d="M106.427 342.894L63.1813 367.784V367.779C54.8116 372.816 44.916 374.696 35.28 373.092C25.6445 371.488 16.8946 366.503 10.608 359.029C4.31623 351.555 0.894363 342.081 0.956897 332.316L30.6702 242.404C33.0921 235.096 37.6754 228.701 43.8161 224.06C49.9568 219.424 57.3574 216.758 65.0508 216.424L172.54 212.377L172.535 212.383C180.931 211.45 188.322 206.424 192.275 198.956C196.223 191.492 196.223 182.555 192.275 175.092C188.322 167.628 180.931 162.602 172.535 161.671L65.0455 157.473H65.0508C57.3581 157.134 49.9574 154.473 43.8161 149.832C37.6754 145.191 33.0921 138.796 30.6702 131.493L1.1129 41.8947C1.03999 32.1135 4.44624 22.6293 10.7222 15.1293C16.9982 7.63453 25.7382 2.60853 35.3729 0.95733C45.0136 -0.693736 54.9196 1.13441 63.3369 6.1136L189.025 78.4469L314.713 151.092H314.718C327.395 158.478 335.191 172.04 335.191 186.718C335.191 201.39 327.395 214.952 314.718 222.338L189.03 294.671L168.342 306.65L106.427 342.894Z" fill="#EAE7F4"/>
</svg>
