<svg width="372" height="372" viewBox="0 0 372 372" fill="none" xmlns="http://www.w3.org/2000/svg">
<path d="M16.1307 169.492C7.24521 169.492 0 176.737 0 185.623C0 194.509 7.24481 201.754 16.1307 201.754H49.5053C58.3908 201.754 65.636 194.509 65.636 185.623C65.636 176.737 58.3912 169.492 49.5053 169.492H16.1307Z" fill="#EAE7F4"/>
<path d="M89.304 105.505C93.4081 105.505 97.5904 103.937 100.726 100.802C106.997 94.5312 106.997 84.302 100.726 77.9527L77.1325 54.3594C70.8617 48.0885 60.6325 48.0885 54.2832 54.3594C48.0124 60.6302 48.0124 70.8593 54.2832 77.2087L77.8765 100.802C81.0901 103.937 85.1947 105.505 89.304 105.505Z" fill="#EAE7F4"/>
<path d="M65.7048 321.599C69.8089 321.599 73.9912 320.031 77.1267 316.896L100.72 293.302C106.991 287.032 106.991 276.802 100.72 270.453C94.4492 264.182 84.22 264.182 77.8706 270.453L54.2773 294.046C48.0065 300.317 48.0065 310.546 54.2773 316.896C57.4909 320.031 61.5955 321.599 65.7048 321.599Z" fill="#EAE7F4"/>
<path d="M201.677 49.5053V16.1307C201.677 7.24519 194.433 0 185.547 0C176.661 0 169.416 7.24479 169.416 16.1307V49.5053C169.416 58.3908 176.661 65.636 185.547 65.636C194.433 65.636 201.677 58.4693 201.677 49.5053Z" fill="#EAE7F4"/>
<path d="M169.412 321.746V355.121C169.412 364.006 176.657 371.251 185.543 371.251C194.429 371.251 201.673 364.006 201.673 355.121V321.746C201.673 312.86 194.429 305.615 185.543 305.615C176.657 305.615 169.412 312.782 169.412 321.746Z" fill="#EAE7F4"/>
<path d="M275.372 185.625C275.372 136.12 235.055 95.8027 185.549 95.8027C136.044 95.8027 95.7266 136.12 95.7266 185.625C95.7266 235.131 136.044 275.448 185.549 275.448C235.055 275.448 275.372 235.131 275.372 185.625ZM185.549 243.193C153.815 243.193 127.981 217.36 127.981 185.625C127.981 153.891 153.815 128.057 185.549 128.057C217.284 128.057 243.117 153.891 243.117 185.625C243.117 217.36 217.284 243.193 185.549 243.193Z" fill="#EAE7F4"/>
<path d="M354.958 169.492H321.584C312.698 169.492 305.453 176.737 305.453 185.623C305.453 194.509 312.698 201.754 321.584 201.754H354.958C363.844 201.754 371.089 194.509 371.089 185.623C371.089 176.737 363.922 169.492 354.958 169.492Z" fill="#EAE7F4"/>
<path d="M316.732 54.4394C310.461 48.1686 300.232 48.1686 293.882 54.4394L270.289 78.0328C264.018 84.3036 264.018 94.5328 270.289 100.882C273.425 104.018 277.534 105.585 281.711 105.585C285.893 105.585 289.997 104.017 293.133 100.882L316.726 77.2888C323.08 70.9398 323.081 60.7101 316.732 54.4394Z" fill="#EAE7F4"/>
<path d="M293.958 316.812C297.094 319.947 301.276 321.515 305.38 321.515C309.484 321.515 313.667 319.947 316.802 316.812C323.073 310.541 323.073 300.312 316.802 293.962L293.209 270.369C286.938 264.098 276.709 264.098 270.359 270.369C264.089 276.64 264.089 286.869 270.359 293.218L293.958 316.812Z" fill="#EAE7F4"/>
</svg>
