<svg width="654" height="654" viewBox="0 0 654 654" fill="none" xmlns="http://www.w3.org/2000/svg">
<path d="M646.333 333.66L320.84 8.16667C316.173 3.5 310.34 1.16667 304.507 1.16667L23.3333 0C10.5 0 0 10.5 0 23.3333L1.16667 304.507C1.16667 310.34 3.5 316.173 8.16667 320.84L333.66 646.333C338.327 651 344.16 653.333 349.993 653.333C355.827 653.333 362.827 651 366.327 646.333L646.327 366.333C650.993 361.667 653.327 355.833 653.327 350C653.327 344.167 650.993 337.167 646.327 333.667L646.333 333.66ZM186.667 233.327C161 233.327 140 212.327 140 186.66C140 160.993 161 139.993 186.667 139.993C212.333 139.993 233.333 160.993 233.333 186.66C233.333 212.327 212.333 233.327 186.667 233.327Z" fill="black"/>
</svg>
