<svg width="276" height="714" viewBox="0 0 276 714" fill="none" xmlns="http://www.w3.org/2000/svg">
<path fill-rule="evenodd" clip-rule="evenodd" d="M233.776 4.79049C227.287 11.688 226.475 22.6391 220.792 34.8106C213.083 51.0362 208.218 57.5242 201.321 76.1849C186.719 115.532 181.037 122.021 174.145 171.105C169.28 205.179 159.947 236.01 146.157 263.595C139.26 276.982 133.174 287.933 124.249 302.54C90.175 359.736 36.2212 454.253 39.0655 519.158C41.0924 562.157 44.3394 586.493 29.3295 625.035C22.8405 640.856 -19.3514 699.269 10.6687 711.843C42.7159 725.632 44.3389 650.185 47.581 628.685C51.6397 598.665 61.3703 558.103 69.4888 529.706C89.3645 458.714 87.7404 404.362 121.412 339.044C142.508 298.073 152.244 294.02 173.335 269.677C247.568 182.869 204.57 134.601 230.531 84.2933C240.67 64.8217 260.953 36.4246 252.029 11.6839C248.379 1.13611 243.508 -4.94976 233.778 5.19488L233.776 4.79049Z" fill="#6B3BE7"/>
<path fill-rule="evenodd" clip-rule="evenodd" d="M273.937 169.486C277.996 157.315 277.587 136.224 258.523 150.015C249.196 156.504 239.46 221.812 221.611 249.805C204.977 275.766 182.667 259.541 138.045 348.375C116.546 391.374 108.837 444.515 105.998 497.653C101.536 582.031 75.9778 610.019 72.3278 646.524C70.7043 661.533 82.0638 670.457 92.2035 663.157C106.805 653.018 81.2524 615.696 125.874 560.528C160.356 517.529 147.372 466.822 155.894 408.814C168.468 323.221 208.627 322.819 234.59 305.373C250.411 294.825 266.637 270.488 269.475 247.365C273.533 210.045 259.739 212.48 274.34 169.481L273.937 169.486Z" fill="#6B3BE7"/>
<path fill-rule="evenodd" clip-rule="evenodd" d="M201.723 474.124C211.862 453.436 222.819 427.067 228.496 417.331C233.77 408.407 239.447 406.783 247.967 396.643C262.569 379.607 275.955 356.484 247.564 341.882C206.19 320.384 187.529 364.193 184.282 397.863C182.658 415.712 171.707 451.409 172.922 476.559C175.357 519.153 191.174 496.031 201.722 474.124L201.723 474.124Z" fill="#6B3BE7"/>
</svg>
