<svg width="20" height="91" viewBox="0 0 20 91" fill="none" xmlns="http://www.w3.org/2000/svg">
<path d="M5.14453 90.2098C5.15009 89.6014 5.08419 88.4314 4.95492 86.173C4.81165 83.6599 4.61647 80.2315 4.42101 76.4719C17.7109 53.8405 22.5263 26.4071 17.6257 1.10565C17.5913 0.928483 17.4572 0.788199 17.2825 0.745212C17.1031 0.700779 16.9236 0.764073 16.8116 0.904688C8.97065 10.713 5.46491 23.0593 3.07048 33.8412C0.298598 46.3203 -2.1793 62.4924 3.30373 76.8987C3.32602 76.9585 3.3684 77.0034 3.41239 77.0472C3.7552 81.4884 4.0045 84.7018 4.17598 86.8653C4.32826 88.7991 4.40812 89.8071 4.49041 90.3305C4.49318 90.4201 4.49553 90.4797 4.49401 90.5037L4.52152 90.5057C4.57835 90.7933 4.6427 90.8673 4.73823 90.8819C4.77309 90.8872 4.81331 90.8855 4.85883 90.8817C5.01813 90.871 5.10746 90.8653 5.13475 90.4657L5.17073 90.459C5.16553 90.4276 5.15681 90.3442 5.14448 90.2096L5.14453 90.2098ZM17.1309 6.63493C17.9536 26.2932 13.8342 48.9195 5.36969 71.1951C6.90038 64.5507 8.28486 57.5121 9.63047 50.654C10.5822 45.807 11.5649 40.7942 12.5901 35.9713C14.6484 26.2916 15.9514 16.3527 17.1311 6.63331L17.1309 6.63493ZM11.9121 35.8278C10.8854 40.6562 9.9017 45.6709 8.951 50.5203C7.47491 58.0434 5.9541 65.7901 4.24427 72.9787C3.78383 63.6013 3.40405 53.305 3.80944 50.0464C4.82604 41.8626 6.36449 34.2063 8.65173 25.952C10.8088 18.1638 12.9496 11.1012 16.7308 4.16395C15.474 14.6241 14.1338 25.3838 11.9123 35.8267L11.9121 35.8278ZM5.65433 72.358C14.0223 50.6504 18.2853 28.5664 17.8941 9.14364C20.318 30.5944 15.9998 53.0316 5.65433 72.358ZM3.97104 34.042C6.27681 23.6552 9.62004 11.8092 16.9077 2.27976C16.9129 2.31123 16.9173 2.34329 16.923 2.37626C12.5831 9.84872 10.3041 17.3923 7.98438 25.7667C5.68774 34.0546 4.14322 41.7414 3.12271 49.9604C2.69958 53.3732 3.1168 64.3002 3.59956 73.9438C3.57376 73.9399 3.54684 73.9387 3.52008 73.941C3.43853 73.9471 3.36776 73.9856 3.31191 74.0385C-0.917775 60.5138 1.39006 45.6655 3.97121 34.0408L3.97104 34.042Z" fill="white" fill-opacity="0.7"/>
</svg>
