<svg width="182" height="387" viewBox="0 0 182 387" fill="none" xmlns="http://www.w3.org/2000/svg">
<path d="M0.872087 0.828613H3.41467C3.87265 0.828613 4.24379 1.28659 4.24379 1.65773V4.20032C4.24379 4.6583 3.87267 5.02944 3.41467 5.02944H0.872087C0.414106 5.02944 0.0429688 4.57146 0.0429688 4.20032V1.65773C0.0429688 1.19975 0.414086 0.828613 0.872087 0.828613Z" fill="white"/>
<path d="M20.3487 0.828613H22.8912C23.3492 0.828613 23.7204 1.28659 23.7204 1.65773V4.20032C23.7204 4.6583 23.3492 5.02944 22.8912 5.02944H20.3487C19.8907 5.02944 19.5195 4.57146 19.5195 4.20032V1.65773C19.5195 1.19975 19.8907 0.828613 20.3487 0.828613Z" fill="white"/>
<path d="M39.8252 0.828613H42.3678C42.8258 0.828613 43.1969 1.28659 43.1969 1.65773V4.20032C43.1969 4.6583 42.8258 5.02944 42.3678 5.02944H39.8252C39.3672 5.02944 38.9961 4.57146 38.9961 4.20032V1.65773C38.9961 1.19975 39.3672 0.828613 39.8252 0.828613Z" fill="white"/>
<path d="M59.3018 0.828613H61.8444C62.3023 0.828613 62.6735 1.28659 62.6735 1.65773V4.20032C62.6735 4.6583 62.3024 5.02944 61.8444 5.02944H59.3018C58.8438 5.02944 58.4727 4.57146 58.4727 4.20032V1.65773C58.4727 1.19975 58.8438 0.828613 59.3018 0.828613Z" fill="white"/>
<path d="M78.7783 0.828613H81.3209C81.7789 0.828613 82.15 1.28659 82.15 1.65773V4.20032C82.15 4.6583 81.7789 5.02944 81.3209 5.02944H78.7783C78.3204 5.02944 77.9492 4.57146 77.9492 4.20032V1.65773C77.9492 1.19975 78.3203 0.828613 78.7783 0.828613Z" fill="white"/>
<path d="M98.2549 0.828613H100.797C101.255 0.828613 101.627 1.28659 101.627 1.65773V4.20032C101.627 4.6583 101.255 5.02944 100.797 5.02944H98.2549C97.7969 5.02944 97.4258 4.57146 97.4258 4.20032V1.65773C97.4258 1.19975 97.7969 0.828613 98.2549 0.828613Z" fill="white"/>
<path d="M0.872087 17.2498H3.41467C3.87265 17.2498 4.24379 17.7077 4.24379 18.0789V20.6215C4.24379 21.0794 3.87267 21.4506 3.41467 21.4506H0.872087C0.414106 21.4506 0.0429688 20.9926 0.0429688 20.6215V18.0789C0.0429688 17.6209 0.414086 17.2498 0.872087 17.2498Z" fill="white"/>
<path d="M20.3487 17.2498H22.8912C23.3492 17.2498 23.7204 17.7077 23.7204 18.0789V20.6215C23.7204 21.0794 23.3492 21.4506 22.8912 21.4506H20.3487C19.8907 21.4506 19.5195 20.9926 19.5195 20.6215V18.0789C19.5195 17.6209 19.8907 17.2498 20.3487 17.2498Z" fill="white"/>
<path d="M39.8252 17.2498H42.3678C42.8258 17.2498 43.1969 17.7077 43.1969 18.0789V20.6215C43.1969 21.0794 42.8258 21.4506 42.3678 21.4506H39.8252C39.3672 21.4506 38.9961 20.9926 38.9961 20.6215V18.0789C38.9961 17.6209 39.3672 17.2498 39.8252 17.2498Z" fill="white"/>
<path d="M59.3018 17.2498H61.8444C62.3023 17.2498 62.6735 17.7077 62.6735 18.0789V20.6215C62.6735 21.0794 62.3024 21.4506 61.8444 21.4506H59.3018C58.8438 21.4506 58.4727 20.9926 58.4727 20.6215V18.0789C58.4727 17.6209 58.8438 17.2498 59.3018 17.2498Z" fill="white"/>
<path d="M78.7783 17.2498H81.3209C81.7789 17.2498 82.15 17.7077 82.15 18.0789V20.6215C82.15 21.0794 81.7789 21.4506 81.3209 21.4506H78.7783C78.3204 21.4506 77.9492 20.9926 77.9492 20.6215V18.0789C77.9492 17.6209 78.3203 17.2498 78.7783 17.2498Z" fill="white"/>
<path d="M98.2549 17.2498H100.797C101.255 17.2498 101.627 17.7077 101.627 18.0789V20.6215C101.627 21.0794 101.255 21.4506 100.797 21.4506H98.2549C97.7969 21.4506 97.4258 20.9926 97.4258 20.6215V18.0789C97.4258 17.6209 97.7969 17.2498 98.2549 17.2498Z" fill="white"/>
<path d="M0.872087 33.6709H3.41467C3.87265 33.6709 4.24379 34.1289 4.24379 34.5V37.0426C4.24379 37.5006 3.87267 37.8717 3.41467 37.8717H0.872087C0.414106 37.8717 0.0429688 37.4137 0.0429688 37.0426V34.5C0.0429688 34.042 0.414086 33.6709 0.872087 33.6709Z" fill="white"/>
<path d="M20.3487 33.6709H22.8912C23.3492 33.6709 23.7204 34.1289 23.7204 34.5V37.0426C23.7204 37.5006 23.3492 37.8717 22.8912 37.8717H20.3487C19.8907 37.8717 19.5195 37.4137 19.5195 37.0426V34.5C19.5195 34.042 19.8907 33.6709 20.3487 33.6709Z" fill="white"/>
<path d="M39.8252 33.6709H42.3678C42.8258 33.6709 43.1969 34.1289 43.1969 34.5V37.0426C43.1969 37.5006 42.8258 37.8717 42.3678 37.8717H39.8252C39.3672 37.8717 38.9961 37.4137 38.9961 37.0426V34.5C38.9961 34.042 39.3672 33.6709 39.8252 33.6709Z" fill="white"/>
<path d="M59.3018 33.6709H61.8444C62.3023 33.6709 62.6735 34.1289 62.6735 34.5V37.0426C62.6735 37.5006 62.3024 37.8717 61.8444 37.8717H59.3018C58.8438 37.8717 58.4727 37.4137 58.4727 37.0426V34.5C58.4727 34.042 58.8438 33.6709 59.3018 33.6709Z" fill="white"/>
<path d="M78.7783 33.6709H81.3209C81.7789 33.6709 82.15 34.1289 82.15 34.5V37.0426C82.15 37.5006 81.7789 37.8717 81.3209 37.8717H78.7783C78.3204 37.8717 77.9492 37.4137 77.9492 37.0426V34.5C77.9492 34.042 78.3203 33.6709 78.7783 33.6709Z" fill="white"/>
<path d="M98.2549 33.6709H100.797C101.255 33.6709 101.627 34.1289 101.627 34.5V37.0426C101.627 37.5006 101.255 37.8717 100.797 37.8717H98.2549C97.7969 37.8717 97.4258 37.4137 97.4258 37.0426V34.5C97.4258 34.042 97.7969 33.6709 98.2549 33.6709Z" fill="white"/>
<path d="M0.872087 50.0923H3.41467C3.87265 50.0923 4.24379 50.5503 4.24379 50.9214V53.464C4.24379 53.922 3.87267 54.2931 3.41467 54.2931H0.872087C0.414106 54.2931 0.0429688 53.8351 0.0429688 53.464V50.9214C0.0429688 50.4634 0.414086 50.0923 0.872087 50.0923Z" fill="white"/>
<path d="M20.3487 50.0923H22.8912C23.3492 50.0923 23.7204 50.5503 23.7204 50.9214V53.464C23.7204 53.922 23.3492 54.2931 22.8912 54.2931H20.3487C19.8907 54.2931 19.5195 53.8351 19.5195 53.464V50.9214C19.5195 50.4634 19.8907 50.0923 20.3487 50.0923Z" fill="white"/>
<path d="M39.8252 50.0923H42.3678C42.8258 50.0923 43.1969 50.5503 43.1969 50.9214V53.464C43.1969 53.922 42.8258 54.2931 42.3678 54.2931H39.8252C39.3672 54.2931 38.9961 53.8351 38.9961 53.464V50.9214C38.9961 50.4634 39.3672 50.0923 39.8252 50.0923Z" fill="white"/>
<path d="M59.3018 50.0923H61.8444C62.3023 50.0923 62.6735 50.5503 62.6735 50.9214V53.464C62.6735 53.922 62.3024 54.2931 61.8444 54.2931H59.3018C58.8438 54.2931 58.4727 53.8351 58.4727 53.464V50.9214C58.4727 50.4634 58.8438 50.0923 59.3018 50.0923Z" fill="white"/>
<path d="M78.7783 50.0923H81.3209C81.7789 50.0923 82.15 50.5503 82.15 50.9214V53.464C82.15 53.922 81.7789 54.2931 81.3209 54.2931H78.7783C78.3204 54.2931 77.9492 53.8351 77.9492 53.464V50.9214C77.9492 50.4634 78.3203 50.0923 78.7783 50.0923Z" fill="white"/>
<path d="M98.2549 50.0923H100.797C101.255 50.0923 101.627 50.5503 101.627 50.9214V53.464C101.627 53.922 101.255 54.2931 100.797 54.2931H98.2549C97.7969 54.2931 97.4258 53.8351 97.4258 53.464V50.9214C97.4258 50.4634 97.7969 50.0923 98.2549 50.0923Z" fill="white"/>
<path d="M0.872087 66.5134H3.41467C3.87265 66.5134 4.24379 66.9714 4.24379 67.3426V69.8851C4.24379 70.3431 3.87267 70.7143 3.41467 70.7143H0.872087C0.414106 70.7143 0.0429688 70.2563 0.0429688 69.8851V67.3426C0.0429688 66.8846 0.414086 66.5134 0.872087 66.5134Z" fill="white"/>
<path d="M20.3487 66.5134H22.8912C23.3492 66.5134 23.7204 66.9714 23.7204 67.3426V69.8851C23.7204 70.3431 23.3492 70.7143 22.8912 70.7143H20.3487C19.8907 70.7143 19.5195 70.2563 19.5195 69.8851V67.3426C19.5195 66.8846 19.8907 66.5134 20.3487 66.5134Z" fill="white"/>
<path d="M39.8252 66.5134H42.3678C42.8258 66.5134 43.1969 66.9714 43.1969 67.3426V69.8851C43.1969 70.3431 42.8258 70.7143 42.3678 70.7143H39.8252C39.3672 70.7143 38.9961 70.2563 38.9961 69.8851V67.3426C38.9961 66.8846 39.3672 66.5134 39.8252 66.5134Z" fill="white"/>
<path d="M59.3018 66.5134H61.8444C62.3023 66.5134 62.6735 66.9714 62.6735 67.3426V69.8851C62.6735 70.3431 62.3024 70.7143 61.8444 70.7143H59.3018C58.8438 70.7143 58.4727 70.2563 58.4727 69.8851V67.3426C58.4727 66.8846 58.8438 66.5134 59.3018 66.5134Z" fill="white"/>
<path d="M78.7783 66.5134H81.3209C81.7789 66.5134 82.15 66.9714 82.15 67.3426V69.8851C82.15 70.3431 81.7789 70.7143 81.3209 70.7143H78.7783C78.3204 70.7143 77.9492 70.2563 77.9492 69.8851V67.3426C77.9492 66.8846 78.3203 66.5134 78.7783 66.5134Z" fill="white"/>
<path d="M98.2549 66.5134H100.797C101.255 66.5134 101.627 66.9714 101.627 67.3426V69.8851C101.627 70.3431 101.255 70.7143 100.797 70.7143H98.2549C97.7969 70.7143 97.4258 70.2563 97.4258 69.8851V67.3426C97.4258 66.8846 97.7969 66.5134 98.2549 66.5134Z" fill="white"/>
<path d="M0.872087 82.9346H3.41467C3.87265 82.9346 4.24379 83.3925 4.24379 83.7637V86.3063C4.24379 86.7643 3.87267 87.1354 3.41467 87.1354H0.872087C0.414106 87.1354 0.0429688 86.6774 0.0429688 86.3063V83.7637C0.0429688 83.3057 0.414086 82.9346 0.872087 82.9346Z" fill="white"/>
<path d="M20.3487 82.9346H22.8912C23.3492 82.9346 23.7204 83.3925 23.7204 83.7637V86.3063C23.7204 86.7643 23.3492 87.1354 22.8912 87.1354H20.3487C19.8907 87.1354 19.5195 86.6774 19.5195 86.3063V83.7637C19.5195 83.3057 19.8907 82.9346 20.3487 82.9346Z" fill="white"/>
<path d="M39.8252 82.9346H42.3678C42.8258 82.9346 43.1969 83.3925 43.1969 83.7637V86.3063C43.1969 86.7643 42.8258 87.1354 42.3678 87.1354H39.8252C39.3672 87.1354 38.9961 86.6774 38.9961 86.3063V83.7637C38.9961 83.3057 39.3672 82.9346 39.8252 82.9346Z" fill="white"/>
<path d="M59.3018 82.9346H61.8444C62.3023 82.9346 62.6735 83.3925 62.6735 83.7637V86.3063C62.6735 86.7643 62.3024 87.1354 61.8444 87.1354H59.3018C58.8438 87.1354 58.4727 86.6774 58.4727 86.3063V83.7637C58.4727 83.3057 58.8438 82.9346 59.3018 82.9346Z" fill="white"/>
<path d="M78.7783 82.9346H81.3209C81.7789 82.9346 82.15 83.3925 82.15 83.7637V86.3063C82.15 86.7643 81.7789 87.1354 81.3209 87.1354H78.7783C78.3204 87.1354 77.9492 86.6774 77.9492 86.3063V83.7637C77.9492 83.3057 78.3203 82.9346 78.7783 82.9346Z" fill="white"/>
<path d="M98.2549 82.9346H100.797C101.255 82.9346 101.627 83.3925 101.627 83.7637V86.3063C101.627 86.7643 101.255 87.1354 100.797 87.1354H98.2549C97.7969 87.1354 97.4258 86.6774 97.4258 86.3063V83.7637C97.4258 83.3057 97.7969 82.9346 98.2549 82.9346Z" fill="white"/>
<path d="M119.829 1H122.372C122.83 1 123.201 1.45798 123.201 1.82912V4.37171C123.201 4.82969 122.83 5.20083 122.372 5.20083H119.829C119.371 5.20083 119 4.74285 119 4.37171V1.82912C119 1.37114 119.371 1 119.829 1Z" fill="white"/>
<path d="M139.306 1H141.848C142.306 1 142.677 1.45798 142.677 1.82912V4.37171C142.677 4.82969 142.306 5.20083 141.848 5.20083H139.306C138.848 5.20083 138.477 4.74285 138.477 4.37171V1.82912C138.477 1.37114 138.848 1 139.306 1Z" fill="white"/>
<path d="M158.782 1H161.325C161.783 1 162.154 1.45798 162.154 1.82912V4.37171C162.154 4.82969 161.783 5.20083 161.325 5.20083H158.782C158.324 5.20083 157.953 4.74285 157.953 4.37171V1.82912C157.953 1.37114 158.324 1 158.782 1Z" fill="white"/>
<path d="M178.259 1H180.801C181.259 1 181.631 1.45798 181.631 1.82912V4.37171C181.631 4.82969 181.259 5.20083 180.801 5.20083H178.259C177.801 5.20083 177.43 4.74285 177.43 4.37171V1.82912C177.43 1.37114 177.801 1 178.259 1Z" fill="white"/>
<path d="M119.829 17.4211H122.372C122.83 17.4211 123.201 17.8791 123.201 18.2503V20.7928C123.201 21.2508 122.83 21.622 122.372 21.622H119.829C119.371 21.622 119 21.164 119 20.7928V18.2503C119 17.7923 119.371 17.4211 119.829 17.4211Z" fill="white"/>
<path d="M139.306 17.4211H141.848C142.306 17.4211 142.677 17.8791 142.677 18.2503V20.7928C142.677 21.2508 142.306 21.622 141.848 21.622H139.306C138.848 21.622 138.477 21.164 138.477 20.7928V18.2503C138.477 17.7923 138.848 17.4211 139.306 17.4211Z" fill="white"/>
<path d="M158.782 17.4211H161.325C161.783 17.4211 162.154 17.8791 162.154 18.2503V20.7928C162.154 21.2508 161.783 21.622 161.325 21.622H158.782C158.324 21.622 157.953 21.164 157.953 20.7928V18.2503C157.953 17.7923 158.324 17.4211 158.782 17.4211Z" fill="white"/>
<path d="M178.259 17.4211H180.801C181.259 17.4211 181.631 17.8791 181.631 18.2503V20.7928C181.631 21.2508 181.259 21.622 180.801 21.622H178.259C177.801 21.622 177.43 21.164 177.43 20.7928V18.2503C177.43 17.7923 177.801 17.4211 178.259 17.4211Z" fill="white"/>
<path d="M119.829 33.8423H122.372C122.83 33.8423 123.201 34.3003 123.201 34.6714V37.214C123.201 37.672 122.83 38.0431 122.372 38.0431H119.829C119.371 38.0431 119 37.5851 119 37.214V34.6714C119 34.2134 119.371 33.8423 119.829 33.8423Z" fill="white"/>
<path d="M139.306 33.8423H141.848C142.306 33.8423 142.677 34.3003 142.677 34.6714V37.214C142.677 37.672 142.306 38.0431 141.848 38.0431H139.306C138.848 38.0431 138.477 37.5851 138.477 37.214V34.6714C138.477 34.2134 138.848 33.8423 139.306 33.8423Z" fill="white"/>
<path d="M158.782 33.8423H161.325C161.783 33.8423 162.154 34.3003 162.154 34.6714V37.214C162.154 37.672 161.783 38.0431 161.325 38.0431H158.782C158.324 38.0431 157.953 37.5851 157.953 37.214V34.6714C157.953 34.2134 158.324 33.8423 158.782 33.8423Z" fill="white"/>
<path d="M178.259 33.8423H180.801C181.259 33.8423 181.631 34.3003 181.631 34.6714V37.214C181.631 37.672 181.259 38.0431 180.801 38.0431H178.259C177.801 38.0431 177.43 37.5851 177.43 37.214V34.6714C177.43 34.2134 177.801 33.8423 178.259 33.8423Z" fill="white"/>
<path d="M119.829 50.2637H122.372C122.83 50.2637 123.201 50.7217 123.201 51.0928V53.6354C123.201 54.0934 122.83 54.4645 122.372 54.4645H119.829C119.371 54.4645 119 54.0065 119 53.6354V51.0928C119 50.6348 119.371 50.2637 119.829 50.2637Z" fill="white"/>
<path d="M139.306 50.2637H141.848C142.306 50.2637 142.677 50.7217 142.677 51.0928V53.6354C142.677 54.0934 142.306 54.4645 141.848 54.4645H139.306C138.848 54.4645 138.477 54.0065 138.477 53.6354V51.0928C138.477 50.6348 138.848 50.2637 139.306 50.2637Z" fill="white"/>
<path d="M158.782 50.2637H161.325C161.783 50.2637 162.154 50.7217 162.154 51.0928V53.6354C162.154 54.0934 161.783 54.4645 161.325 54.4645H158.782C158.324 54.4645 157.953 54.0065 157.953 53.6354V51.0928C157.953 50.6348 158.324 50.2637 158.782 50.2637Z" fill="white"/>
<path d="M178.259 50.2637H180.801C181.259 50.2637 181.631 50.7217 181.631 51.0928V53.6354C181.631 54.0934 181.259 54.4645 180.801 54.4645H178.259C177.801 54.4645 177.43 54.0065 177.43 53.6354V51.0928C177.43 50.6348 177.801 50.2637 178.259 50.2637Z" fill="white"/>
<path d="M119.829 66.6848H122.372C122.83 66.6848 123.201 67.1428 123.201 67.5139V70.0565C123.201 70.5145 122.83 70.8856 122.372 70.8856H119.829C119.371 70.8856 119 70.4277 119 70.0565V67.5139C119 67.056 119.371 66.6848 119.829 66.6848Z" fill="white"/>
<path d="M139.306 66.6848H141.848C142.306 66.6848 142.677 67.1428 142.677 67.5139V70.0565C142.677 70.5145 142.306 70.8856 141.848 70.8856H139.306C138.848 70.8856 138.477 70.4277 138.477 70.0565V67.5139C138.477 67.056 138.848 66.6848 139.306 66.6848Z" fill="white"/>
<path d="M158.782 66.6848H161.325C161.783 66.6848 162.154 67.1428 162.154 67.5139V70.0565C162.154 70.5145 161.783 70.8856 161.325 70.8856H158.782C158.324 70.8856 157.953 70.4277 157.953 70.0565V67.5139C157.953 67.056 158.324 66.6848 158.782 66.6848Z" fill="white"/>
<path d="M178.259 66.6848H180.801C181.259 66.6848 181.631 67.1428 181.631 67.5139V70.0565C181.631 70.5145 181.259 70.8856 180.801 70.8856H178.259C177.801 70.8856 177.43 70.4277 177.43 70.0565V67.5139C177.43 67.056 177.801 66.6848 178.259 66.6848Z" fill="white"/>
<path d="M119.829 83.106H122.372C122.83 83.106 123.201 83.5639 123.201 83.9351V86.4777C123.201 86.9356 122.83 87.3068 122.372 87.3068H119.829C119.371 87.3068 119 86.8488 119 86.4777V83.9351C119 83.4771 119.371 83.106 119.829 83.106Z" fill="white"/>
<path d="M139.306 83.106H141.848C142.306 83.106 142.677 83.5639 142.677 83.9351V86.4777C142.677 86.9356 142.306 87.3068 141.848 87.3068H139.306C138.848 87.3068 138.477 86.8488 138.477 86.4777V83.9351C138.477 83.4771 138.848 83.106 139.306 83.106Z" fill="white"/>
<path d="M158.782 83.106H161.325C161.783 83.106 162.154 83.5639 162.154 83.9351V86.4777C162.154 86.9356 161.783 87.3068 161.325 87.3068H158.782C158.324 87.3068 157.953 86.8488 157.953 86.4777V83.9351C157.953 83.4771 158.324 83.106 158.782 83.106Z" fill="white"/>
<path d="M178.259 83.106H180.801C181.259 83.106 181.631 83.5639 181.631 83.9351V86.4777C181.631 86.9356 181.259 87.3068 180.801 87.3068H178.259C177.801 87.3068 177.43 86.8488 177.43 86.4777V83.9351C177.43 83.4771 177.801 83.106 178.259 83.106Z" fill="white"/>
<path d="M0.829118 102H3.3717C3.82969 102 4.20083 102.458 4.20083 102.829V105.372C4.20083 105.83 3.82971 106.201 3.3717 106.201H0.829118C0.371138 106.201 0 105.743 0 105.372V102.829C0 102.371 0.371117 102 0.829118 102Z" fill="white"/>
<path d="M20.3057 102H22.8483C23.3063 102 23.6774 102.458 23.6774 102.829V105.372C23.6774 105.83 23.3063 106.201 22.8483 106.201H20.3057C19.8477 106.201 19.4766 105.743 19.4766 105.372V102.829C19.4766 102.371 19.8477 102 20.3057 102Z" fill="white"/>
<path d="M39.7822 102H42.3248C42.7828 102 43.1539 102.458 43.1539 102.829V105.372C43.1539 105.83 42.7828 106.201 42.3248 106.201H39.7822C39.3243 106.201 38.9531 105.743 38.9531 105.372V102.829C38.9531 102.371 39.3242 102 39.7822 102Z" fill="white"/>
<path d="M59.2588 102H61.8014C62.2594 102 62.6305 102.458 62.6305 102.829V105.372C62.6305 105.83 62.2594 106.201 61.8014 106.201H59.2588C58.8008 106.201 58.4297 105.743 58.4297 105.372V102.829C58.4297 102.371 58.8008 102 59.2588 102Z" fill="white"/>
<path d="M78.7354 102H81.278C81.7359 102 82.1071 102.458 82.1071 102.829V105.372C82.1071 105.83 81.736 106.201 81.278 106.201H78.7354C78.2774 106.201 77.9062 105.743 77.9062 105.372V102.829C77.9062 102.371 78.2774 102 78.7354 102Z" fill="white"/>
<path d="M98.2119 102H100.755C101.212 102 101.584 102.458 101.584 102.829V105.372C101.584 105.83 101.213 106.201 100.755 106.201H98.2119C97.7539 106.201 97.3828 105.743 97.3828 105.372V102.829C97.3828 102.371 97.7539 102 98.2119 102Z" fill="white"/>
<path d="M0.829118 118.421H3.3717C3.82969 118.421 4.20083 118.879 4.20083 119.25V121.793C4.20083 122.251 3.82971 122.622 3.3717 122.622H0.829118C0.371138 122.622 0 122.164 0 121.793V119.25C0 118.792 0.371117 118.421 0.829118 118.421Z" fill="white"/>
<path d="M20.3057 118.421H22.8483C23.3063 118.421 23.6774 118.879 23.6774 119.25V121.793C23.6774 122.251 23.3063 122.622 22.8483 122.622H20.3057C19.8477 122.622 19.4766 122.164 19.4766 121.793V119.25C19.4766 118.792 19.8477 118.421 20.3057 118.421Z" fill="white"/>
<path d="M39.7822 118.421H42.3248C42.7828 118.421 43.1539 118.879 43.1539 119.25V121.793C43.1539 122.251 42.7828 122.622 42.3248 122.622H39.7822C39.3243 122.622 38.9531 122.164 38.9531 121.793V119.25C38.9531 118.792 39.3242 118.421 39.7822 118.421Z" fill="white"/>
<path d="M59.2588 118.421H61.8014C62.2594 118.421 62.6305 118.879 62.6305 119.25V121.793C62.6305 122.251 62.2594 122.622 61.8014 122.622H59.2588C58.8008 122.622 58.4297 122.164 58.4297 121.793V119.25C58.4297 118.792 58.8008 118.421 59.2588 118.421Z" fill="white"/>
<path d="M78.7354 118.421H81.278C81.7359 118.421 82.1071 118.879 82.1071 119.25V121.793C82.1071 122.251 81.736 122.622 81.278 122.622H78.7354C78.2774 122.622 77.9062 122.164 77.9062 121.793V119.25C77.9062 118.792 78.2774 118.421 78.7354 118.421Z" fill="white"/>
<path d="M98.2119 118.421H100.755C101.212 118.421 101.584 118.879 101.584 119.25V121.793C101.584 122.251 101.213 122.622 100.755 122.622H98.2119C97.7539 122.622 97.3828 122.164 97.3828 121.793V119.25C97.3828 118.792 97.7539 118.421 98.2119 118.421Z" fill="white"/>
<path d="M0.829118 134.842H3.3717C3.82969 134.842 4.20083 135.3 4.20083 135.671V138.214C4.20083 138.672 3.82971 139.043 3.3717 139.043H0.829118C0.371138 139.043 0 138.585 0 138.214V135.671C0 135.213 0.371117 134.842 0.829118 134.842Z" fill="white"/>
<path d="M20.3057 134.842H22.8483C23.3063 134.842 23.6774 135.3 23.6774 135.671V138.214C23.6774 138.672 23.3063 139.043 22.8483 139.043H20.3057C19.8477 139.043 19.4766 138.585 19.4766 138.214V135.671C19.4766 135.213 19.8477 134.842 20.3057 134.842Z" fill="white"/>
<path d="M39.7822 134.842H42.3248C42.7828 134.842 43.1539 135.3 43.1539 135.671V138.214C43.1539 138.672 42.7828 139.043 42.3248 139.043H39.7822C39.3243 139.043 38.9531 138.585 38.9531 138.214V135.671C38.9531 135.213 39.3242 134.842 39.7822 134.842Z" fill="white"/>
<path d="M59.2588 134.842H61.8014C62.2594 134.842 62.6305 135.3 62.6305 135.671V138.214C62.6305 138.672 62.2594 139.043 61.8014 139.043H59.2588C58.8008 139.043 58.4297 138.585 58.4297 138.214V135.671C58.4297 135.213 58.8008 134.842 59.2588 134.842Z" fill="white"/>
<path d="M78.7354 134.842H81.278C81.7359 134.842 82.1071 135.3 82.1071 135.671V138.214C82.1071 138.672 81.736 139.043 81.278 139.043H78.7354C78.2774 139.043 77.9062 138.585 77.9062 138.214V135.671C77.9062 135.213 78.2774 134.842 78.7354 134.842Z" fill="white"/>
<path d="M98.2119 134.842H100.755C101.212 134.842 101.584 135.3 101.584 135.671V138.214C101.584 138.672 101.213 139.043 100.755 139.043H98.2119C97.7539 139.043 97.3828 138.585 97.3828 138.214V135.671C97.3828 135.213 97.7539 134.842 98.2119 134.842Z" fill="white"/>
<path d="M0.829118 151.264H3.3717C3.82969 151.264 4.20083 151.722 4.20083 152.093V154.635C4.20083 155.093 3.82971 155.465 3.3717 155.465H0.829118C0.371138 155.465 0 155.007 0 154.635V152.093C0 151.635 0.371117 151.264 0.829118 151.264Z" fill="white"/>
<path d="M20.3057 151.264H22.8483C23.3063 151.264 23.6774 151.722 23.6774 152.093V154.635C23.6774 155.093 23.3063 155.465 22.8483 155.465H20.3057C19.8477 155.465 19.4766 155.007 19.4766 154.635V152.093C19.4766 151.635 19.8477 151.264 20.3057 151.264Z" fill="white"/>
<path d="M39.7822 151.264H42.3248C42.7828 151.264 43.1539 151.722 43.1539 152.093V154.635C43.1539 155.093 42.7828 155.465 42.3248 155.465H39.7822C39.3243 155.465 38.9531 155.007 38.9531 154.635V152.093C38.9531 151.635 39.3242 151.264 39.7822 151.264Z" fill="white"/>
<path d="M59.2588 151.264H61.8014C62.2594 151.264 62.6305 151.722 62.6305 152.093V154.635C62.6305 155.093 62.2594 155.465 61.8014 155.465H59.2588C58.8008 155.465 58.4297 155.007 58.4297 154.635V152.093C58.4297 151.635 58.8008 151.264 59.2588 151.264Z" fill="white"/>
<path d="M78.7354 151.264H81.278C81.7359 151.264 82.1071 151.722 82.1071 152.093V154.635C82.1071 155.093 81.736 155.465 81.278 155.465H78.7354C78.2774 155.465 77.9062 155.007 77.9062 154.635V152.093C77.9062 151.635 78.2774 151.264 78.7354 151.264Z" fill="white"/>
<path d="M98.2119 151.264H100.755C101.212 151.264 101.584 151.722 101.584 152.093V154.635C101.584 155.093 101.213 155.465 100.755 155.465H98.2119C97.7539 155.465 97.3828 155.007 97.3828 154.635V152.093C97.3828 151.635 97.7539 151.264 98.2119 151.264Z" fill="white"/>
<path d="M0.829118 167.685H3.3717C3.82969 167.685 4.20083 168.143 4.20083 168.514V171.057C4.20083 171.514 3.82971 171.886 3.3717 171.886H0.829118C0.371138 171.886 0 171.428 0 171.057V168.514C0 168.056 0.371117 167.685 0.829118 167.685Z" fill="white"/>
<path d="M20.3057 167.685H22.8483C23.3063 167.685 23.6774 168.143 23.6774 168.514V171.057C23.6774 171.514 23.3063 171.886 22.8483 171.886H20.3057C19.8477 171.886 19.4766 171.428 19.4766 171.057V168.514C19.4766 168.056 19.8477 167.685 20.3057 167.685Z" fill="white"/>
<path d="M39.7822 167.685H42.3248C42.7828 167.685 43.1539 168.143 43.1539 168.514V171.057C43.1539 171.514 42.7828 171.886 42.3248 171.886H39.7822C39.3243 171.886 38.9531 171.428 38.9531 171.057V168.514C38.9531 168.056 39.3242 167.685 39.7822 167.685Z" fill="white"/>
<path d="M59.2588 167.685H61.8014C62.2594 167.685 62.6305 168.143 62.6305 168.514V171.057C62.6305 171.514 62.2594 171.886 61.8014 171.886H59.2588C58.8008 171.886 58.4297 171.428 58.4297 171.057V168.514C58.4297 168.056 58.8008 167.685 59.2588 167.685Z" fill="white"/>
<path d="M78.7354 167.685H81.278C81.7359 167.685 82.1071 168.143 82.1071 168.514V171.057C82.1071 171.514 81.736 171.886 81.278 171.886H78.7354C78.2774 171.886 77.9062 171.428 77.9062 171.057V168.514C77.9062 168.056 78.2774 167.685 78.7354 167.685Z" fill="white"/>
<path d="M98.2119 167.685H100.755C101.212 167.685 101.584 168.143 101.584 168.514V171.057C101.584 171.514 101.213 171.886 100.755 171.886H98.2119C97.7539 171.886 97.3828 171.428 97.3828 171.057V168.514C97.3828 168.056 97.7539 167.685 98.2119 167.685Z" fill="white"/>
<path d="M0.829118 184.106H3.3717C3.82969 184.106 4.20083 184.564 4.20083 184.935V187.478C4.20083 187.936 3.82971 188.307 3.3717 188.307H0.829118C0.371138 188.307 0 187.849 0 187.478V184.935C0 184.477 0.371117 184.106 0.829118 184.106Z" fill="white"/>
<path d="M20.3057 184.106H22.8483C23.3063 184.106 23.6774 184.564 23.6774 184.935V187.478C23.6774 187.936 23.3063 188.307 22.8483 188.307H20.3057C19.8477 188.307 19.4766 187.849 19.4766 187.478V184.935C19.4766 184.477 19.8477 184.106 20.3057 184.106Z" fill="white"/>
<path d="M39.7822 184.106H42.3248C42.7828 184.106 43.1539 184.564 43.1539 184.935V187.478C43.1539 187.936 42.7828 188.307 42.3248 188.307H39.7822C39.3243 188.307 38.9531 187.849 38.9531 187.478V184.935C38.9531 184.477 39.3242 184.106 39.7822 184.106Z" fill="white"/>
<path d="M59.2588 184.106H61.8014C62.2594 184.106 62.6305 184.564 62.6305 184.935V187.478C62.6305 187.936 62.2594 188.307 61.8014 188.307H59.2588C58.8008 188.307 58.4297 187.849 58.4297 187.478V184.935C58.4297 184.477 58.8008 184.106 59.2588 184.106Z" fill="white"/>
<path d="M78.7354 184.106H81.278C81.7359 184.106 82.1071 184.564 82.1071 184.935V187.478C82.1071 187.936 81.736 188.307 81.278 188.307H78.7354C78.2774 188.307 77.9062 187.849 77.9062 187.478V184.935C77.9062 184.477 78.2774 184.106 78.7354 184.106Z" fill="white"/>
<path d="M98.2119 184.106H100.755C101.212 184.106 101.584 184.564 101.584 184.935V187.478C101.584 187.936 101.213 188.307 100.755 188.307H98.2119C97.7539 188.307 97.3828 187.849 97.3828 187.478V184.935C97.3828 184.477 97.7539 184.106 98.2119 184.106Z" fill="white"/>
<path d="M119.786 102.171H122.329C122.787 102.171 123.158 102.629 123.158 103.001V105.543C123.158 106.001 122.787 106.372 122.329 106.372H119.786C119.328 106.372 118.957 105.914 118.957 105.543V103.001C118.957 102.543 119.328 102.171 119.786 102.171Z" fill="white"/>
<path d="M139.263 102.171H141.805C142.263 102.171 142.634 102.629 142.634 103.001V105.543C142.634 106.001 142.263 106.372 141.805 106.372H139.263C138.805 106.372 138.434 105.914 138.434 105.543V103.001C138.434 102.543 138.805 102.171 139.263 102.171Z" fill="white"/>
<path d="M158.739 102.171H161.282C161.74 102.171 162.111 102.629 162.111 103.001V105.543C162.111 106.001 161.74 106.372 161.282 106.372H158.739C158.281 106.372 157.91 105.914 157.91 105.543V103.001C157.91 102.543 158.281 102.171 158.739 102.171Z" fill="white"/>
<path d="M178.216 102.171H180.758C181.216 102.171 181.588 102.629 181.588 103.001V105.543C181.588 106.001 181.216 106.372 180.758 106.372H178.216C177.758 106.372 177.387 105.914 177.387 105.543V103.001C177.387 102.543 177.758 102.171 178.216 102.171Z" fill="white"/>
<path d="M119.786 118.593H122.329C122.787 118.593 123.158 119.051 123.158 119.422V121.964C123.158 122.422 122.787 122.793 122.329 122.793H119.786C119.328 122.793 118.957 122.335 118.957 121.964V119.422C118.957 118.964 119.328 118.593 119.786 118.593Z" fill="white"/>
<path d="M139.263 118.593H141.805C142.263 118.593 142.634 119.051 142.634 119.422V121.964C142.634 122.422 142.263 122.793 141.805 122.793H139.263C138.805 122.793 138.434 122.335 138.434 121.964V119.422C138.434 118.964 138.805 118.593 139.263 118.593Z" fill="white"/>
<path d="M158.739 118.593H161.282C161.74 118.593 162.111 119.051 162.111 119.422V121.964C162.111 122.422 161.74 122.793 161.282 122.793H158.739C158.281 122.793 157.91 122.335 157.91 121.964V119.422C157.91 118.964 158.281 118.593 158.739 118.593Z" fill="white"/>
<path d="M178.216 118.593H180.758C181.216 118.593 181.588 119.051 181.588 119.422V121.964C181.588 122.422 181.216 122.793 180.758 122.793H178.216C177.758 122.793 177.387 122.335 177.387 121.964V119.422C177.387 118.964 177.758 118.593 178.216 118.593Z" fill="white"/>
<path d="M119.786 135.014H122.329C122.787 135.014 123.158 135.472 123.158 135.843V138.385C123.158 138.843 122.787 139.214 122.329 139.214H119.786C119.328 139.214 118.957 138.757 118.957 138.385V135.843C118.957 135.385 119.328 135.014 119.786 135.014Z" fill="white"/>
<path d="M139.263 135.014H141.805C142.263 135.014 142.634 135.472 142.634 135.843V138.385C142.634 138.843 142.263 139.214 141.805 139.214H139.263C138.805 139.214 138.434 138.757 138.434 138.385V135.843C138.434 135.385 138.805 135.014 139.263 135.014Z" fill="white"/>
<path d="M158.739 135.014H161.282C161.74 135.014 162.111 135.472 162.111 135.843V138.385C162.111 138.843 161.74 139.214 161.282 139.214H158.739C158.281 139.214 157.91 138.757 157.91 138.385V135.843C157.91 135.385 158.281 135.014 158.739 135.014Z" fill="white"/>
<path d="M178.216 135.014H180.758C181.216 135.014 181.588 135.472 181.588 135.843V138.385C181.588 138.843 181.216 139.214 180.758 139.214H178.216C177.758 139.214 177.387 138.757 177.387 138.385V135.843C177.387 135.385 177.758 135.014 178.216 135.014Z" fill="white"/>
<path d="M119.786 151.435H122.329C122.787 151.435 123.158 151.893 123.158 152.264V154.807C123.158 155.265 122.787 155.636 122.329 155.636H119.786C119.328 155.636 118.957 155.178 118.957 154.807V152.264C118.957 151.806 119.328 151.435 119.786 151.435Z" fill="white"/>
<path d="M139.263 151.435H141.805C142.263 151.435 142.634 151.893 142.634 152.264V154.807C142.634 155.265 142.263 155.636 141.805 155.636H139.263C138.805 155.636 138.434 155.178 138.434 154.807V152.264C138.434 151.806 138.805 151.435 139.263 151.435Z" fill="white"/>
<path d="M158.739 151.435H161.282C161.74 151.435 162.111 151.893 162.111 152.264V154.807C162.111 155.265 161.74 155.636 161.282 155.636H158.739C158.281 155.636 157.91 155.178 157.91 154.807V152.264C157.91 151.806 158.281 151.435 158.739 151.435Z" fill="white"/>
<path d="M178.216 151.435H180.758C181.216 151.435 181.588 151.893 181.588 152.264V154.807C181.588 155.265 181.216 155.636 180.758 155.636H178.216C177.758 155.636 177.387 155.178 177.387 154.807V152.264C177.387 151.806 177.758 151.435 178.216 151.435Z" fill="white"/>
<path d="M119.786 167.856H122.329C122.787 167.856 123.158 168.314 123.158 168.685V171.228C123.158 171.686 122.787 172.057 122.329 172.057H119.786C119.328 172.057 118.957 171.599 118.957 171.228V168.685C118.957 168.227 119.328 167.856 119.786 167.856Z" fill="white"/>
<path d="M139.263 167.856H141.805C142.263 167.856 142.634 168.314 142.634 168.685V171.228C142.634 171.686 142.263 172.057 141.805 172.057H139.263C138.805 172.057 138.434 171.599 138.434 171.228V168.685C138.434 168.227 138.805 167.856 139.263 167.856Z" fill="white"/>
<path d="M158.739 167.856H161.282C161.74 167.856 162.111 168.314 162.111 168.685V171.228C162.111 171.686 161.74 172.057 161.282 172.057H158.739C158.281 172.057 157.91 171.599 157.91 171.228V168.685C157.91 168.227 158.281 167.856 158.739 167.856Z" fill="white"/>
<path d="M178.216 167.856H180.758C181.216 167.856 181.588 168.314 181.588 168.685V171.228C181.588 171.686 181.216 172.057 180.758 172.057H178.216C177.758 172.057 177.387 171.599 177.387 171.228V168.685C177.387 168.227 177.758 167.856 178.216 167.856Z" fill="white"/>
<path d="M119.786 184.277H122.329C122.787 184.277 123.158 184.735 123.158 185.106V187.649C123.158 188.107 122.787 188.478 122.329 188.478H119.786C119.328 188.478 118.957 188.02 118.957 187.649V185.106C118.957 184.648 119.328 184.277 119.786 184.277Z" fill="white"/>
<path d="M139.263 184.277H141.805C142.263 184.277 142.634 184.735 142.634 185.106V187.649C142.634 188.107 142.263 188.478 141.805 188.478H139.263C138.805 188.478 138.434 188.02 138.434 187.649V185.106C138.434 184.648 138.805 184.277 139.263 184.277Z" fill="white"/>
<path d="M158.739 184.277H161.282C161.74 184.277 162.111 184.735 162.111 185.106V187.649C162.111 188.107 161.74 188.478 161.282 188.478H158.739C158.281 188.478 157.91 188.02 157.91 187.649V185.106C157.91 184.648 158.281 184.277 158.739 184.277Z" fill="white"/>
<path d="M178.216 184.277H180.758C181.216 184.277 181.588 184.735 181.588 185.106V187.649C181.588 188.107 181.216 188.478 180.758 188.478H178.216C177.758 188.478 177.387 188.02 177.387 187.649V185.106C177.387 184.648 177.758 184.277 178.216 184.277Z" fill="white"/>
<path d="M0.829118 202H3.3717C3.82969 202 4.20083 202.458 4.20083 202.829V205.372C4.20083 205.83 3.82971 206.201 3.3717 206.201H0.829118C0.371138 206.201 0 205.743 0 205.372V202.829C0 202.371 0.371117 202 0.829118 202Z" fill="white"/>
<path d="M20.3057 202H22.8483C23.3063 202 23.6774 202.458 23.6774 202.829V205.372C23.6774 205.83 23.3063 206.201 22.8483 206.201H20.3057C19.8477 206.201 19.4766 205.743 19.4766 205.372V202.829C19.4766 202.371 19.8477 202 20.3057 202Z" fill="white"/>
<path d="M39.7822 202H42.3248C42.7828 202 43.1539 202.458 43.1539 202.829V205.372C43.1539 205.83 42.7828 206.201 42.3248 206.201H39.7822C39.3243 206.201 38.9531 205.743 38.9531 205.372V202.829C38.9531 202.371 39.3242 202 39.7822 202Z" fill="white"/>
<path d="M59.2588 202H61.8014C62.2594 202 62.6305 202.458 62.6305 202.829V205.372C62.6305 205.83 62.2594 206.201 61.8014 206.201H59.2588C58.8008 206.201 58.4297 205.743 58.4297 205.372V202.829C58.4297 202.371 58.8008 202 59.2588 202Z" fill="white"/>
<path d="M78.7354 202H81.278C81.7359 202 82.1071 202.458 82.1071 202.829V205.372C82.1071 205.83 81.736 206.201 81.278 206.201H78.7354C78.2774 206.201 77.9062 205.743 77.9062 205.372V202.829C77.9062 202.371 78.2774 202 78.7354 202Z" fill="white"/>
<path d="M98.2119 202H100.755C101.212 202 101.584 202.458 101.584 202.829V205.372C101.584 205.83 101.213 206.201 100.755 206.201H98.2119C97.7539 206.201 97.3828 205.743 97.3828 205.372V202.829C97.3828 202.371 97.7539 202 98.2119 202Z" fill="white"/>
<path d="M0.829118 218.421H3.3717C3.82969 218.421 4.20083 218.879 4.20083 219.25V221.793C4.20083 222.251 3.82971 222.622 3.3717 222.622H0.829118C0.371138 222.622 0 222.164 0 221.793V219.25C0 218.792 0.371117 218.421 0.829118 218.421Z" fill="white"/>
<path d="M20.3057 218.421H22.8483C23.3063 218.421 23.6774 218.879 23.6774 219.25V221.793C23.6774 222.251 23.3063 222.622 22.8483 222.622H20.3057C19.8477 222.622 19.4766 222.164 19.4766 221.793V219.25C19.4766 218.792 19.8477 218.421 20.3057 218.421Z" fill="white"/>
<path d="M39.7822 218.421H42.3248C42.7828 218.421 43.1539 218.879 43.1539 219.25V221.793C43.1539 222.251 42.7828 222.622 42.3248 222.622H39.7822C39.3243 222.622 38.9531 222.164 38.9531 221.793V219.25C38.9531 218.792 39.3242 218.421 39.7822 218.421Z" fill="white"/>
<path d="M59.2588 218.421H61.8014C62.2594 218.421 62.6305 218.879 62.6305 219.25V221.793C62.6305 222.251 62.2594 222.622 61.8014 222.622H59.2588C58.8008 222.622 58.4297 222.164 58.4297 221.793V219.25C58.4297 218.792 58.8008 218.421 59.2588 218.421Z" fill="white"/>
<path d="M78.7354 218.421H81.278C81.7359 218.421 82.1071 218.879 82.1071 219.25V221.793C82.1071 222.251 81.736 222.622 81.278 222.622H78.7354C78.2774 222.622 77.9062 222.164 77.9062 221.793V219.25C77.9062 218.792 78.2774 218.421 78.7354 218.421Z" fill="white"/>
<path d="M98.2119 218.421H100.755C101.212 218.421 101.584 218.879 101.584 219.25V221.793C101.584 222.251 101.213 222.622 100.755 222.622H98.2119C97.7539 222.622 97.3828 222.164 97.3828 221.793V219.25C97.3828 218.792 97.7539 218.421 98.2119 218.421Z" fill="white"/>
<path d="M0.829118 234.842H3.3717C3.82969 234.842 4.20083 235.3 4.20083 235.671V238.214C4.20083 238.672 3.82971 239.043 3.3717 239.043H0.829118C0.371138 239.043 0 238.585 0 238.214V235.671C0 235.213 0.371117 234.842 0.829118 234.842Z" fill="white"/>
<path d="M20.3057 234.842H22.8483C23.3063 234.842 23.6774 235.3 23.6774 235.671V238.214C23.6774 238.672 23.3063 239.043 22.8483 239.043H20.3057C19.8477 239.043 19.4766 238.585 19.4766 238.214V235.671C19.4766 235.213 19.8477 234.842 20.3057 234.842Z" fill="white"/>
<path d="M39.7822 234.842H42.3248C42.7828 234.842 43.1539 235.3 43.1539 235.671V238.214C43.1539 238.672 42.7828 239.043 42.3248 239.043H39.7822C39.3243 239.043 38.9531 238.585 38.9531 238.214V235.671C38.9531 235.213 39.3242 234.842 39.7822 234.842Z" fill="white"/>
<path d="M59.2588 234.842H61.8014C62.2594 234.842 62.6305 235.3 62.6305 235.671V238.214C62.6305 238.672 62.2594 239.043 61.8014 239.043H59.2588C58.8008 239.043 58.4297 238.585 58.4297 238.214V235.671C58.4297 235.213 58.8008 234.842 59.2588 234.842Z" fill="white"/>
<path d="M78.7354 234.842H81.278C81.7359 234.842 82.1071 235.3 82.1071 235.671V238.214C82.1071 238.672 81.736 239.043 81.278 239.043H78.7354C78.2774 239.043 77.9062 238.585 77.9062 238.214V235.671C77.9062 235.213 78.2774 234.842 78.7354 234.842Z" fill="white"/>
<path d="M98.2119 234.842H100.755C101.212 234.842 101.584 235.3 101.584 235.671V238.214C101.584 238.672 101.213 239.043 100.755 239.043H98.2119C97.7539 239.043 97.3828 238.585 97.3828 238.214V235.671C97.3828 235.213 97.7539 234.842 98.2119 234.842Z" fill="white"/>
<path d="M0.829118 251.264H3.3717C3.82969 251.264 4.20083 251.722 4.20083 252.093V254.635C4.20083 255.093 3.82971 255.465 3.3717 255.465H0.829118C0.371138 255.465 0 255.007 0 254.635V252.093C0 251.635 0.371117 251.264 0.829118 251.264Z" fill="white"/>
<path d="M20.3057 251.264H22.8483C23.3063 251.264 23.6774 251.722 23.6774 252.093V254.635C23.6774 255.093 23.3063 255.465 22.8483 255.465H20.3057C19.8477 255.465 19.4766 255.007 19.4766 254.635V252.093C19.4766 251.635 19.8477 251.264 20.3057 251.264Z" fill="white"/>
<path d="M39.7822 251.264H42.3248C42.7828 251.264 43.1539 251.722 43.1539 252.093V254.635C43.1539 255.093 42.7828 255.465 42.3248 255.465H39.7822C39.3243 255.465 38.9531 255.007 38.9531 254.635V252.093C38.9531 251.635 39.3242 251.264 39.7822 251.264Z" fill="white"/>
<path d="M59.2588 251.264H61.8014C62.2594 251.264 62.6305 251.722 62.6305 252.093V254.635C62.6305 255.093 62.2594 255.465 61.8014 255.465H59.2588C58.8008 255.465 58.4297 255.007 58.4297 254.635V252.093C58.4297 251.635 58.8008 251.264 59.2588 251.264Z" fill="white"/>
<path d="M78.7354 251.264H81.278C81.7359 251.264 82.1071 251.722 82.1071 252.093V254.635C82.1071 255.093 81.736 255.465 81.278 255.465H78.7354C78.2774 255.465 77.9062 255.007 77.9062 254.635V252.093C77.9062 251.635 78.2774 251.264 78.7354 251.264Z" fill="white"/>
<path d="M98.2119 251.264H100.755C101.212 251.264 101.584 251.722 101.584 252.093V254.635C101.584 255.093 101.213 255.465 100.755 255.465H98.2119C97.7539 255.465 97.3828 255.007 97.3828 254.635V252.093C97.3828 251.635 97.7539 251.264 98.2119 251.264Z" fill="white"/>
<path d="M0.829118 267.685H3.3717C3.82969 267.685 4.20083 268.143 4.20083 268.514V271.057C4.20083 271.514 3.82971 271.886 3.3717 271.886H0.829118C0.371138 271.886 0 271.428 0 271.057V268.514C0 268.056 0.371117 267.685 0.829118 267.685Z" fill="white"/>
<path d="M20.3057 267.685H22.8483C23.3063 267.685 23.6774 268.143 23.6774 268.514V271.057C23.6774 271.514 23.3063 271.886 22.8483 271.886H20.3057C19.8477 271.886 19.4766 271.428 19.4766 271.057V268.514C19.4766 268.056 19.8477 267.685 20.3057 267.685Z" fill="white"/>
<path d="M39.7822 267.685H42.3248C42.7828 267.685 43.1539 268.143 43.1539 268.514V271.057C43.1539 271.514 42.7828 271.886 42.3248 271.886H39.7822C39.3243 271.886 38.9531 271.428 38.9531 271.057V268.514C38.9531 268.056 39.3242 267.685 39.7822 267.685Z" fill="white"/>
<path d="M59.2588 267.685H61.8014C62.2594 267.685 62.6305 268.143 62.6305 268.514V271.057C62.6305 271.514 62.2594 271.886 61.8014 271.886H59.2588C58.8008 271.886 58.4297 271.428 58.4297 271.057V268.514C58.4297 268.056 58.8008 267.685 59.2588 267.685Z" fill="white"/>
<path d="M78.7354 267.685H81.278C81.7359 267.685 82.1071 268.143 82.1071 268.514V271.057C82.1071 271.514 81.736 271.886 81.278 271.886H78.7354C78.2774 271.886 77.9062 271.428 77.9062 271.057V268.514C77.9062 268.056 78.2774 267.685 78.7354 267.685Z" fill="white"/>
<path d="M98.2119 267.685H100.755C101.212 267.685 101.584 268.143 101.584 268.514V271.057C101.584 271.514 101.213 271.886 100.755 271.886H98.2119C97.7539 271.886 97.3828 271.428 97.3828 271.057V268.514C97.3828 268.056 97.7539 267.685 98.2119 267.685Z" fill="white"/>
<path d="M0.829118 284.106H3.3717C3.82969 284.106 4.20083 284.564 4.20083 284.935V287.478C4.20083 287.936 3.82971 288.307 3.3717 288.307H0.829118C0.371138 288.307 0 287.849 0 287.478V284.935C0 284.477 0.371117 284.106 0.829118 284.106Z" fill="white"/>
<path d="M20.3057 284.106H22.8483C23.3063 284.106 23.6774 284.564 23.6774 284.935V287.478C23.6774 287.936 23.3063 288.307 22.8483 288.307H20.3057C19.8477 288.307 19.4766 287.849 19.4766 287.478V284.935C19.4766 284.477 19.8477 284.106 20.3057 284.106Z" fill="white"/>
<path d="M39.7822 284.106H42.3248C42.7828 284.106 43.1539 284.564 43.1539 284.935V287.478C43.1539 287.936 42.7828 288.307 42.3248 288.307H39.7822C39.3243 288.307 38.9531 287.849 38.9531 287.478V284.935C38.9531 284.477 39.3242 284.106 39.7822 284.106Z" fill="white"/>
<path d="M59.2588 284.106H61.8014C62.2594 284.106 62.6305 284.564 62.6305 284.935V287.478C62.6305 287.936 62.2594 288.307 61.8014 288.307H59.2588C58.8008 288.307 58.4297 287.849 58.4297 287.478V284.935C58.4297 284.477 58.8008 284.106 59.2588 284.106Z" fill="white"/>
<path d="M78.7354 284.106H81.278C81.7359 284.106 82.1071 284.564 82.1071 284.935V287.478C82.1071 287.936 81.736 288.307 81.278 288.307H78.7354C78.2774 288.307 77.9062 287.849 77.9062 287.478V284.935C77.9062 284.477 78.2774 284.106 78.7354 284.106Z" fill="white"/>
<path d="M98.2119 284.106H100.755C101.212 284.106 101.584 284.564 101.584 284.935V287.478C101.584 287.936 101.213 288.307 100.755 288.307H98.2119C97.7539 288.307 97.3828 287.849 97.3828 287.478V284.935C97.3828 284.477 97.7539 284.106 98.2119 284.106Z" fill="white"/>
<path d="M119.786 202.171H122.329C122.787 202.171 123.158 202.629 123.158 203.001V205.543C123.158 206.001 122.787 206.372 122.329 206.372H119.786C119.328 206.372 118.957 205.914 118.957 205.543V203.001C118.957 202.543 119.328 202.171 119.786 202.171Z" fill="white"/>
<path d="M139.263 202.171H141.805C142.263 202.171 142.634 202.629 142.634 203.001V205.543C142.634 206.001 142.263 206.372 141.805 206.372H139.263C138.805 206.372 138.434 205.914 138.434 205.543V203.001C138.434 202.543 138.805 202.171 139.263 202.171Z" fill="white"/>
<path d="M158.739 202.171H161.282C161.74 202.171 162.111 202.629 162.111 203.001V205.543C162.111 206.001 161.74 206.372 161.282 206.372H158.739C158.281 206.372 157.91 205.914 157.91 205.543V203.001C157.91 202.543 158.281 202.171 158.739 202.171Z" fill="white"/>
<path d="M178.216 202.171H180.758C181.216 202.171 181.588 202.629 181.588 203.001V205.543C181.588 206.001 181.216 206.372 180.758 206.372H178.216C177.758 206.372 177.387 205.914 177.387 205.543V203.001C177.387 202.543 177.758 202.171 178.216 202.171Z" fill="white"/>
<path d="M119.786 218.593H122.329C122.787 218.593 123.158 219.051 123.158 219.422V221.964C123.158 222.422 122.787 222.793 122.329 222.793H119.786C119.328 222.793 118.957 222.335 118.957 221.964V219.422C118.957 218.964 119.328 218.593 119.786 218.593Z" fill="white"/>
<path d="M139.263 218.593H141.805C142.263 218.593 142.634 219.051 142.634 219.422V221.964C142.634 222.422 142.263 222.793 141.805 222.793H139.263C138.805 222.793 138.434 222.335 138.434 221.964V219.422C138.434 218.964 138.805 218.593 139.263 218.593Z" fill="white"/>
<path d="M158.739 218.593H161.282C161.74 218.593 162.111 219.051 162.111 219.422V221.964C162.111 222.422 161.74 222.793 161.282 222.793H158.739C158.281 222.793 157.91 222.335 157.91 221.964V219.422C157.91 218.964 158.281 218.593 158.739 218.593Z" fill="white"/>
<path d="M178.216 218.593H180.758C181.216 218.593 181.588 219.051 181.588 219.422V221.964C181.588 222.422 181.216 222.793 180.758 222.793H178.216C177.758 222.793 177.387 222.335 177.387 221.964V219.422C177.387 218.964 177.758 218.593 178.216 218.593Z" fill="white"/>
<path d="M119.786 235.014H122.329C122.787 235.014 123.158 235.472 123.158 235.843V238.385C123.158 238.843 122.787 239.214 122.329 239.214H119.786C119.328 239.214 118.957 238.757 118.957 238.385V235.843C118.957 235.385 119.328 235.014 119.786 235.014Z" fill="white"/>
<path d="M139.263 235.014H141.805C142.263 235.014 142.634 235.472 142.634 235.843V238.385C142.634 238.843 142.263 239.214 141.805 239.214H139.263C138.805 239.214 138.434 238.757 138.434 238.385V235.843C138.434 235.385 138.805 235.014 139.263 235.014Z" fill="white"/>
<path d="M158.739 235.014H161.282C161.74 235.014 162.111 235.472 162.111 235.843V238.385C162.111 238.843 161.74 239.214 161.282 239.214H158.739C158.281 239.214 157.91 238.757 157.91 238.385V235.843C157.91 235.385 158.281 235.014 158.739 235.014Z" fill="white"/>
<path d="M178.216 235.014H180.758C181.216 235.014 181.588 235.472 181.588 235.843V238.385C181.588 238.843 181.216 239.214 180.758 239.214H178.216C177.758 239.214 177.387 238.757 177.387 238.385V235.843C177.387 235.385 177.758 235.014 178.216 235.014Z" fill="white"/>
<path d="M119.786 251.435H122.329C122.787 251.435 123.158 251.893 123.158 252.264V254.807C123.158 255.265 122.787 255.636 122.329 255.636H119.786C119.328 255.636 118.957 255.178 118.957 254.807V252.264C118.957 251.806 119.328 251.435 119.786 251.435Z" fill="white"/>
<path d="M139.263 251.435H141.805C142.263 251.435 142.634 251.893 142.634 252.264V254.807C142.634 255.265 142.263 255.636 141.805 255.636H139.263C138.805 255.636 138.434 255.178 138.434 254.807V252.264C138.434 251.806 138.805 251.435 139.263 251.435Z" fill="white"/>
<path d="M158.739 251.435H161.282C161.74 251.435 162.111 251.893 162.111 252.264V254.807C162.111 255.265 161.74 255.636 161.282 255.636H158.739C158.281 255.636 157.91 255.178 157.91 254.807V252.264C157.91 251.806 158.281 251.435 158.739 251.435Z" fill="white"/>
<path d="M178.216 251.435H180.758C181.216 251.435 181.588 251.893 181.588 252.264V254.807C181.588 255.265 181.216 255.636 180.758 255.636H178.216C177.758 255.636 177.387 255.178 177.387 254.807V252.264C177.387 251.806 177.758 251.435 178.216 251.435Z" fill="white"/>
<path d="M119.786 267.856H122.329C122.787 267.856 123.158 268.314 123.158 268.685V271.228C123.158 271.686 122.787 272.057 122.329 272.057H119.786C119.328 272.057 118.957 271.599 118.957 271.228V268.685C118.957 268.227 119.328 267.856 119.786 267.856Z" fill="white"/>
<path d="M139.263 267.856H141.805C142.263 267.856 142.634 268.314 142.634 268.685V271.228C142.634 271.686 142.263 272.057 141.805 272.057H139.263C138.805 272.057 138.434 271.599 138.434 271.228V268.685C138.434 268.227 138.805 267.856 139.263 267.856Z" fill="white"/>
<path d="M158.739 267.856H161.282C161.74 267.856 162.111 268.314 162.111 268.685V271.228C162.111 271.686 161.74 272.057 161.282 272.057H158.739C158.281 272.057 157.91 271.599 157.91 271.228V268.685C157.91 268.227 158.281 267.856 158.739 267.856Z" fill="white"/>
<path d="M178.216 267.856H180.758C181.216 267.856 181.588 268.314 181.588 268.685V271.228C181.588 271.686 181.216 272.057 180.758 272.057H178.216C177.758 272.057 177.387 271.599 177.387 271.228V268.685C177.387 268.227 177.758 267.856 178.216 267.856Z" fill="white"/>
<path d="M119.786 284.277H122.329C122.787 284.277 123.158 284.735 123.158 285.106V287.649C123.158 288.107 122.787 288.478 122.329 288.478H119.786C119.328 288.478 118.957 288.02 118.957 287.649V285.106C118.957 284.648 119.328 284.277 119.786 284.277Z" fill="white"/>
<path d="M139.263 284.277H141.805C142.263 284.277 142.634 284.735 142.634 285.106V287.649C142.634 288.107 142.263 288.478 141.805 288.478H139.263C138.805 288.478 138.434 288.02 138.434 287.649V285.106C138.434 284.648 138.805 284.277 139.263 284.277Z" fill="white"/>
<path d="M158.739 284.277H161.282C161.74 284.277 162.111 284.735 162.111 285.106V287.649C162.111 288.107 161.74 288.478 161.282 288.478H158.739C158.281 288.478 157.91 288.02 157.91 287.649V285.106C157.91 284.648 158.281 284.277 158.739 284.277Z" fill="white"/>
<path d="M178.216 284.277H180.758C181.216 284.277 181.588 284.735 181.588 285.106V287.649C181.588 288.107 181.216 288.478 180.758 288.478H178.216C177.758 288.478 177.387 288.02 177.387 287.649V285.106C177.387 284.648 177.758 284.277 178.216 284.277Z" fill="white"/>
<path d="M0.829118 300H3.3717C3.82969 300 4.20083 300.458 4.20083 300.829V303.372C4.20083 303.83 3.82971 304.201 3.3717 304.201H0.829118C0.371138 304.201 0 303.743 0 303.372V300.829C0 300.371 0.371117 300 0.829118 300Z" fill="white"/>
<path d="M20.3057 300H22.8483C23.3063 300 23.6774 300.458 23.6774 300.829V303.372C23.6774 303.83 23.3063 304.201 22.8483 304.201H20.3057C19.8477 304.201 19.4766 303.743 19.4766 303.372V300.829C19.4766 300.371 19.8477 300 20.3057 300Z" fill="white"/>
<path d="M39.7822 300H42.3248C42.7828 300 43.1539 300.458 43.1539 300.829V303.372C43.1539 303.83 42.7828 304.201 42.3248 304.201H39.7822C39.3243 304.201 38.9531 303.743 38.9531 303.372V300.829C38.9531 300.371 39.3242 300 39.7822 300Z" fill="white"/>
<path d="M59.2588 300H61.8014C62.2594 300 62.6305 300.458 62.6305 300.829V303.372C62.6305 303.83 62.2594 304.201 61.8014 304.201H59.2588C58.8008 304.201 58.4297 303.743 58.4297 303.372V300.829C58.4297 300.371 58.8008 300 59.2588 300Z" fill="white"/>
<path d="M78.7354 300H81.278C81.7359 300 82.1071 300.458 82.1071 300.829V303.372C82.1071 303.83 81.736 304.201 81.278 304.201H78.7354C78.2774 304.201 77.9062 303.743 77.9062 303.372V300.829C77.9062 300.371 78.2774 300 78.7354 300Z" fill="white"/>
<path d="M98.2119 300H100.755C101.212 300 101.584 300.458 101.584 300.829V303.372C101.584 303.83 101.213 304.201 100.755 304.201H98.2119C97.7539 304.201 97.3828 303.743 97.3828 303.372V300.829C97.3828 300.371 97.7539 300 98.2119 300Z" fill="white"/>
<path d="M0.829118 316.421H3.3717C3.82969 316.421 4.20083 316.879 4.20083 317.25V319.793C4.20083 320.251 3.82971 320.622 3.3717 320.622H0.829118C0.371138 320.622 0 320.164 0 319.793V317.25C0 316.792 0.371117 316.421 0.829118 316.421Z" fill="white"/>
<path d="M20.3057 316.421H22.8483C23.3063 316.421 23.6774 316.879 23.6774 317.25V319.793C23.6774 320.251 23.3063 320.622 22.8483 320.622H20.3057C19.8477 320.622 19.4766 320.164 19.4766 319.793V317.25C19.4766 316.792 19.8477 316.421 20.3057 316.421Z" fill="white"/>
<path d="M39.7822 316.421H42.3248C42.7828 316.421 43.1539 316.879 43.1539 317.25V319.793C43.1539 320.251 42.7828 320.622 42.3248 320.622H39.7822C39.3243 320.622 38.9531 320.164 38.9531 319.793V317.25C38.9531 316.792 39.3242 316.421 39.7822 316.421Z" fill="white"/>
<path d="M59.2588 316.421H61.8014C62.2594 316.421 62.6305 316.879 62.6305 317.25V319.793C62.6305 320.251 62.2594 320.622 61.8014 320.622H59.2588C58.8008 320.622 58.4297 320.164 58.4297 319.793V317.25C58.4297 316.792 58.8008 316.421 59.2588 316.421Z" fill="white"/>
<path d="M78.7354 316.421H81.278C81.7359 316.421 82.1071 316.879 82.1071 317.25V319.793C82.1071 320.251 81.736 320.622 81.278 320.622H78.7354C78.2774 320.622 77.9062 320.164 77.9062 319.793V317.25C77.9062 316.792 78.2774 316.421 78.7354 316.421Z" fill="white"/>
<path d="M98.2119 316.421H100.755C101.212 316.421 101.584 316.879 101.584 317.25V319.793C101.584 320.251 101.213 320.622 100.755 320.622H98.2119C97.7539 320.622 97.3828 320.164 97.3828 319.793V317.25C97.3828 316.792 97.7539 316.421 98.2119 316.421Z" fill="white"/>
<path d="M0.829118 332.842H3.3717C3.82969 332.842 4.20083 333.3 4.20083 333.671V336.214C4.20083 336.672 3.82971 337.043 3.3717 337.043H0.829118C0.371138 337.043 0 336.585 0 336.214V333.671C0 333.213 0.371117 332.842 0.829118 332.842Z" fill="white"/>
<path d="M20.3057 332.842H22.8483C23.3063 332.842 23.6774 333.3 23.6774 333.671V336.214C23.6774 336.672 23.3063 337.043 22.8483 337.043H20.3057C19.8477 337.043 19.4766 336.585 19.4766 336.214V333.671C19.4766 333.213 19.8477 332.842 20.3057 332.842Z" fill="white"/>
<path d="M39.7822 332.842H42.3248C42.7828 332.842 43.1539 333.3 43.1539 333.671V336.214C43.1539 336.672 42.7828 337.043 42.3248 337.043H39.7822C39.3243 337.043 38.9531 336.585 38.9531 336.214V333.671C38.9531 333.213 39.3242 332.842 39.7822 332.842Z" fill="white"/>
<path d="M59.2588 332.842H61.8014C62.2594 332.842 62.6305 333.3 62.6305 333.671V336.214C62.6305 336.672 62.2594 337.043 61.8014 337.043H59.2588C58.8008 337.043 58.4297 336.585 58.4297 336.214V333.671C58.4297 333.213 58.8008 332.842 59.2588 332.842Z" fill="white"/>
<path d="M78.7354 332.842H81.278C81.7359 332.842 82.1071 333.3 82.1071 333.671V336.214C82.1071 336.672 81.736 337.043 81.278 337.043H78.7354C78.2774 337.043 77.9062 336.585 77.9062 336.214V333.671C77.9062 333.213 78.2774 332.842 78.7354 332.842Z" fill="white"/>
<path d="M98.2119 332.842H100.755C101.212 332.842 101.584 333.3 101.584 333.671V336.214C101.584 336.672 101.213 337.043 100.755 337.043H98.2119C97.7539 337.043 97.3828 336.585 97.3828 336.214V333.671C97.3828 333.213 97.7539 332.842 98.2119 332.842Z" fill="white"/>
<path d="M0.829118 349.264H3.3717C3.82969 349.264 4.20083 349.722 4.20083 350.093V352.635C4.20083 353.093 3.82971 353.465 3.3717 353.465H0.829118C0.371138 353.465 0 353.007 0 352.635V350.093C0 349.635 0.371117 349.264 0.829118 349.264Z" fill="white"/>
<path d="M20.3057 349.264H22.8483C23.3063 349.264 23.6774 349.722 23.6774 350.093V352.635C23.6774 353.093 23.3063 353.465 22.8483 353.465H20.3057C19.8477 353.465 19.4766 353.007 19.4766 352.635V350.093C19.4766 349.635 19.8477 349.264 20.3057 349.264Z" fill="white"/>
<path d="M39.7822 349.264H42.3248C42.7828 349.264 43.1539 349.722 43.1539 350.093V352.635C43.1539 353.093 42.7828 353.465 42.3248 353.465H39.7822C39.3243 353.465 38.9531 353.007 38.9531 352.635V350.093C38.9531 349.635 39.3242 349.264 39.7822 349.264Z" fill="white"/>
<path d="M59.2588 349.264H61.8014C62.2594 349.264 62.6305 349.722 62.6305 350.093V352.635C62.6305 353.093 62.2594 353.465 61.8014 353.465H59.2588C58.8008 353.465 58.4297 353.007 58.4297 352.635V350.093C58.4297 349.635 58.8008 349.264 59.2588 349.264Z" fill="white"/>
<path d="M78.7354 349.264H81.278C81.7359 349.264 82.1071 349.722 82.1071 350.093V352.635C82.1071 353.093 81.736 353.465 81.278 353.465H78.7354C78.2774 353.465 77.9062 353.007 77.9062 352.635V350.093C77.9062 349.635 78.2774 349.264 78.7354 349.264Z" fill="white"/>
<path d="M98.2119 349.264H100.755C101.212 349.264 101.584 349.722 101.584 350.093V352.635C101.584 353.093 101.213 353.465 100.755 353.465H98.2119C97.7539 353.465 97.3828 353.007 97.3828 352.635V350.093C97.3828 349.635 97.7539 349.264 98.2119 349.264Z" fill="white"/>
<path d="M0.829118 365.685H3.3717C3.82969 365.685 4.20083 366.143 4.20083 366.514V369.057C4.20083 369.514 3.82971 369.886 3.3717 369.886H0.829118C0.371138 369.886 0 369.428 0 369.057V366.514C0 366.056 0.371117 365.685 0.829118 365.685Z" fill="white"/>
<path d="M20.3057 365.685H22.8483C23.3063 365.685 23.6774 366.143 23.6774 366.514V369.057C23.6774 369.514 23.3063 369.886 22.8483 369.886H20.3057C19.8477 369.886 19.4766 369.428 19.4766 369.057V366.514C19.4766 366.056 19.8477 365.685 20.3057 365.685Z" fill="white"/>
<path d="M39.7822 365.685H42.3248C42.7828 365.685 43.1539 366.143 43.1539 366.514V369.057C43.1539 369.514 42.7828 369.886 42.3248 369.886H39.7822C39.3243 369.886 38.9531 369.428 38.9531 369.057V366.514C38.9531 366.056 39.3242 365.685 39.7822 365.685Z" fill="white"/>
<path d="M59.2588 365.685H61.8014C62.2594 365.685 62.6305 366.143 62.6305 366.514V369.057C62.6305 369.514 62.2594 369.886 61.8014 369.886H59.2588C58.8008 369.886 58.4297 369.428 58.4297 369.057V366.514C58.4297 366.056 58.8008 365.685 59.2588 365.685Z" fill="white"/>
<path d="M78.7354 365.685H81.278C81.7359 365.685 82.1071 366.143 82.1071 366.514V369.057C82.1071 369.514 81.736 369.886 81.278 369.886H78.7354C78.2774 369.886 77.9062 369.428 77.9062 369.057V366.514C77.9062 366.056 78.2774 365.685 78.7354 365.685Z" fill="white"/>
<path d="M98.2119 365.685H100.755C101.212 365.685 101.584 366.143 101.584 366.514V369.057C101.584 369.514 101.213 369.886 100.755 369.886H98.2119C97.7539 369.886 97.3828 369.428 97.3828 369.057V366.514C97.3828 366.056 97.7539 365.685 98.2119 365.685Z" fill="white"/>
<path d="M0.829118 382.106H3.3717C3.82969 382.106 4.20083 382.564 4.20083 382.935V385.478C4.20083 385.936 3.82971 386.307 3.3717 386.307H0.829118C0.371138 386.307 0 385.849 0 385.478V382.935C0 382.477 0.371117 382.106 0.829118 382.106Z" fill="white"/>
<path d="M20.3057 382.106H22.8483C23.3063 382.106 23.6774 382.564 23.6774 382.935V385.478C23.6774 385.936 23.3063 386.307 22.8483 386.307H20.3057C19.8477 386.307 19.4766 385.849 19.4766 385.478V382.935C19.4766 382.477 19.8477 382.106 20.3057 382.106Z" fill="white"/>
<path d="M39.7822 382.106H42.3248C42.7828 382.106 43.1539 382.564 43.1539 382.935V385.478C43.1539 385.936 42.7828 386.307 42.3248 386.307H39.7822C39.3243 386.307 38.9531 385.849 38.9531 385.478V382.935C38.9531 382.477 39.3242 382.106 39.7822 382.106Z" fill="white"/>
<path d="M59.2588 382.106H61.8014C62.2594 382.106 62.6305 382.564 62.6305 382.935V385.478C62.6305 385.936 62.2594 386.307 61.8014 386.307H59.2588C58.8008 386.307 58.4297 385.849 58.4297 385.478V382.935C58.4297 382.477 58.8008 382.106 59.2588 382.106Z" fill="white"/>
<path d="M78.7354 382.106H81.278C81.7359 382.106 82.1071 382.564 82.1071 382.935V385.478C82.1071 385.936 81.736 386.307 81.278 386.307H78.7354C78.2774 386.307 77.9062 385.849 77.9062 385.478V382.935C77.9062 382.477 78.2774 382.106 78.7354 382.106Z" fill="white"/>
<path d="M98.2119 382.106H100.755C101.212 382.106 101.584 382.564 101.584 382.935V385.478C101.584 385.936 101.213 386.307 100.755 386.307H98.2119C97.7539 386.307 97.3828 385.849 97.3828 385.478V382.935C97.3828 382.477 97.7539 382.106 98.2119 382.106Z" fill="white"/>
<path d="M119.786 300.171H122.329C122.787 300.171 123.158 300.629 123.158 301.001V303.543C123.158 304.001 122.787 304.372 122.329 304.372H119.786C119.328 304.372 118.957 303.914 118.957 303.543V301.001C118.957 300.543 119.328 300.171 119.786 300.171Z" fill="white"/>
<path d="M139.263 300.171H141.805C142.263 300.171 142.634 300.629 142.634 301.001V303.543C142.634 304.001 142.263 304.372 141.805 304.372H139.263C138.805 304.372 138.434 303.914 138.434 303.543V301.001C138.434 300.543 138.805 300.171 139.263 300.171Z" fill="white"/>
<path d="M158.739 300.171H161.282C161.74 300.171 162.111 300.629 162.111 301.001V303.543C162.111 304.001 161.74 304.372 161.282 304.372H158.739C158.281 304.372 157.91 303.914 157.91 303.543V301.001C157.91 300.543 158.281 300.171 158.739 300.171Z" fill="white"/>
<path d="M178.216 300.171H180.758C181.216 300.171 181.588 300.629 181.588 301.001V303.543C181.588 304.001 181.216 304.372 180.758 304.372H178.216C177.758 304.372 177.387 303.914 177.387 303.543V301.001C177.387 300.543 177.758 300.171 178.216 300.171Z" fill="white"/>
<path d="M119.786 316.593H122.329C122.787 316.593 123.158 317.051 123.158 317.422V319.964C123.158 320.422 122.787 320.793 122.329 320.793H119.786C119.328 320.793 118.957 320.335 118.957 319.964V317.422C118.957 316.964 119.328 316.593 119.786 316.593Z" fill="white"/>
<path d="M139.263 316.593H141.805C142.263 316.593 142.634 317.051 142.634 317.422V319.964C142.634 320.422 142.263 320.793 141.805 320.793H139.263C138.805 320.793 138.434 320.335 138.434 319.964V317.422C138.434 316.964 138.805 316.593 139.263 316.593Z" fill="white"/>
<path d="M158.739 316.593H161.282C161.74 316.593 162.111 317.051 162.111 317.422V319.964C162.111 320.422 161.74 320.793 161.282 320.793H158.739C158.281 320.793 157.91 320.335 157.91 319.964V317.422C157.91 316.964 158.281 316.593 158.739 316.593Z" fill="white"/>
<path d="M178.216 316.593H180.758C181.216 316.593 181.588 317.051 181.588 317.422V319.964C181.588 320.422 181.216 320.793 180.758 320.793H178.216C177.758 320.793 177.387 320.335 177.387 319.964V317.422C177.387 316.964 177.758 316.593 178.216 316.593Z" fill="white"/>
<path d="M119.786 333.014H122.329C122.787 333.014 123.158 333.472 123.158 333.843V336.385C123.158 336.843 122.787 337.214 122.329 337.214H119.786C119.328 337.214 118.957 336.757 118.957 336.385V333.843C118.957 333.385 119.328 333.014 119.786 333.014Z" fill="white"/>
<path d="M139.263 333.014H141.805C142.263 333.014 142.634 333.472 142.634 333.843V336.385C142.634 336.843 142.263 337.214 141.805 337.214H139.263C138.805 337.214 138.434 336.757 138.434 336.385V333.843C138.434 333.385 138.805 333.014 139.263 333.014Z" fill="white"/>
<path d="M158.739 333.014H161.282C161.74 333.014 162.111 333.472 162.111 333.843V336.385C162.111 336.843 161.74 337.214 161.282 337.214H158.739C158.281 337.214 157.91 336.757 157.91 336.385V333.843C157.91 333.385 158.281 333.014 158.739 333.014Z" fill="white"/>
<path d="M178.216 333.014H180.758C181.216 333.014 181.588 333.472 181.588 333.843V336.385C181.588 336.843 181.216 337.214 180.758 337.214H178.216C177.758 337.214 177.387 336.757 177.387 336.385V333.843C177.387 333.385 177.758 333.014 178.216 333.014Z" fill="white"/>
<path d="M119.786 349.435H122.329C122.787 349.435 123.158 349.893 123.158 350.264V352.807C123.158 353.265 122.787 353.636 122.329 353.636H119.786C119.328 353.636 118.957 353.178 118.957 352.807V350.264C118.957 349.806 119.328 349.435 119.786 349.435Z" fill="white"/>
<path d="M139.263 349.435H141.805C142.263 349.435 142.634 349.893 142.634 350.264V352.807C142.634 353.265 142.263 353.636 141.805 353.636H139.263C138.805 353.636 138.434 353.178 138.434 352.807V350.264C138.434 349.806 138.805 349.435 139.263 349.435Z" fill="white"/>
<path d="M158.739 349.435H161.282C161.74 349.435 162.111 349.893 162.111 350.264V352.807C162.111 353.265 161.74 353.636 161.282 353.636H158.739C158.281 353.636 157.91 353.178 157.91 352.807V350.264C157.91 349.806 158.281 349.435 158.739 349.435Z" fill="white"/>
<path d="M178.216 349.435H180.758C181.216 349.435 181.588 349.893 181.588 350.264V352.807C181.588 353.265 181.216 353.636 180.758 353.636H178.216C177.758 353.636 177.387 353.178 177.387 352.807V350.264C177.387 349.806 177.758 349.435 178.216 349.435Z" fill="white"/>
<path d="M119.786 365.856H122.329C122.787 365.856 123.158 366.314 123.158 366.685V369.228C123.158 369.686 122.787 370.057 122.329 370.057H119.786C119.328 370.057 118.957 369.599 118.957 369.228V366.685C118.957 366.227 119.328 365.856 119.786 365.856Z" fill="white"/>
<path d="M139.263 365.856H141.805C142.263 365.856 142.634 366.314 142.634 366.685V369.228C142.634 369.686 142.263 370.057 141.805 370.057H139.263C138.805 370.057 138.434 369.599 138.434 369.228V366.685C138.434 366.227 138.805 365.856 139.263 365.856Z" fill="white"/>
<path d="M158.739 365.856H161.282C161.74 365.856 162.111 366.314 162.111 366.685V369.228C162.111 369.686 161.74 370.057 161.282 370.057H158.739C158.281 370.057 157.91 369.599 157.91 369.228V366.685C157.91 366.227 158.281 365.856 158.739 365.856Z" fill="white"/>
<path d="M178.216 365.856H180.758C181.216 365.856 181.588 366.314 181.588 366.685V369.228C181.588 369.686 181.216 370.057 180.758 370.057H178.216C177.758 370.057 177.387 369.599 177.387 369.228V366.685C177.387 366.227 177.758 365.856 178.216 365.856Z" fill="white"/>
<path d="M119.786 382.277H122.329C122.787 382.277 123.158 382.735 123.158 383.106V385.649C123.158 386.107 122.787 386.478 122.329 386.478H119.786C119.328 386.478 118.957 386.02 118.957 385.649V383.106C118.957 382.648 119.328 382.277 119.786 382.277Z" fill="white"/>
<path d="M139.263 382.277H141.805C142.263 382.277 142.634 382.735 142.634 383.106V385.649C142.634 386.107 142.263 386.478 141.805 386.478H139.263C138.805 386.478 138.434 386.02 138.434 385.649V383.106C138.434 382.648 138.805 382.277 139.263 382.277Z" fill="white"/>
<path d="M158.739 382.277H161.282C161.74 382.277 162.111 382.735 162.111 383.106V385.649C162.111 386.107 161.74 386.478 161.282 386.478H158.739C158.281 386.478 157.91 386.02 157.91 385.649V383.106C157.91 382.648 158.281 382.277 158.739 382.277Z" fill="white"/>
<path d="M178.216 382.277H180.758C181.216 382.277 181.588 382.735 181.588 383.106V385.649C181.588 386.107 181.216 386.478 180.758 386.478H178.216C177.758 386.478 177.387 386.02 177.387 385.649V383.106C177.387 382.648 177.758 382.277 178.216 382.277Z" fill="white"/>
</svg>
