<svg width="672" height="443" viewBox="0 0 672 443" fill="none" xmlns="http://www.w3.org/2000/svg">
<path d="M84.7715 103.547C84.7715 160.645 131.219 207.093 188.318 207.093C245.417 207.093 291.865 160.645 291.865 103.547C291.865 46.448 245.417 0 188.318 0C131.23 0 84.7715 46.4533 84.7715 103.547V103.547Z" fill="black"/>
<path d="M334.797 295.947C311.261 273.926 279.756 260.332 245.057 260.332L131.593 260.327C59.0307 260.327 0 319.358 0 391.92H261.2C273.471 351.78 300.007 317.91 334.799 295.947L334.797 295.947Z" fill="black"/>
<path d="M380.117 154.08C380.117 211.179 426.565 257.627 483.664 257.627C540.763 257.627 587.21 211.179 587.21 154.08C587.21 96.9812 540.763 50.5332 483.664 50.5332C426.571 50.5332 380.117 96.9812 380.117 154.08V154.08Z" fill="black"/>
<path d="M540.399 310.854H426.929C354.367 310.854 295.336 369.884 295.336 442.447H671.989C671.989 369.884 612.959 310.854 540.396 310.854H540.399Z" fill="black"/>
</svg>
