<svg width="16" height="18" viewBox="0 0 16 18" fill="none" xmlns="http://www.w3.org/2000/svg">
<path d="M12.602 5.55295C12.602 8.09546 10.5409 10.1567 7.99826 10.1567C5.4556 10.1567 3.39453 8.09543 3.39453 5.55295C3.39453 3.01048 5.45564 0.949219 7.99826 0.949219C10.5408 0.949219 12.602 3.01048 12.602 5.55295Z" fill="#0DF6E3"/>
<path d="M15.9322 15.6043C15.0244 13.0755 12.9711 11.1086 10.3774 10.3522C10.291 10.3306 10.2045 10.3306 10.1397 10.3737C9.49123 10.7196 8.77797 10.9141 7.99988 10.9141C7.22178 10.9141 6.50849 10.7196 5.86007 10.3737C5.79524 10.3305 5.7087 10.3305 5.62231 10.3522C3.0287 11.1087 0.975354 13.0755 0.0675761 15.6043C-0.191743 16.3176 0.326895 17.0524 1.08342 17.0524H14.9378C15.673 17.0524 16.1916 16.296 15.9323 15.6043H15.9322Z" fill="#0DF6E3"/>
</svg>
