<svg width="20" height="23" viewBox="0 0 20 23" fill="none" xmlns="http://www.w3.org/2000/svg">
<path d="M10.0001 13.4214C7.96995 13.4219 6.05518 12.452 4.81901 10.7969C3.58289 9.14209 3.16588 6.99047 3.69088 4.97534C4.21592 2.96001 5.62302 1.3103 7.49852 0.511457C9.37379 -0.287385 11.504 -0.144488 13.2625 0.898335C15.021 1.94096 16.2074 3.76491 16.4728 5.83339C16.7383 7.90183 16.0527 9.97932 14.6176 11.4548C13.3958 12.7178 11.7332 13.4261 10.0002 13.4217L10.0001 13.4214ZM10.0001 2.06472C8.80037 2.06472 7.64983 2.55468 6.80181 3.42656C5.95362 4.29862 5.4774 5.48102 5.47777 6.71393C5.47831 7.94685 5.95541 9.12906 6.80416 10.0004C7.65291 10.8717 8.80377 11.3605 10.0035 11.3596C11.2032 11.3587 12.3533 10.868 13.2008 9.99541C14.0483 9.12283 14.5236 7.93986 14.5224 6.70695C14.5197 5.47568 14.042 4.29569 13.1946 3.42566C12.3469 2.55544 11.1982 2.06623 10.0001 2.06477V2.06472ZM18.9956 22.6665C18.7291 22.6665 18.4736 22.5579 18.2852 22.3642C18.097 22.1706 17.9911 21.908 17.9911 21.6342C17.9911 19.4562 17.1492 17.3672 15.6506 15.8272C14.1519 14.2872 12.1193 13.4218 10.0001 13.4218C7.88082 13.4218 5.84809 14.2871 4.34954 15.8272C2.85098 17.3673 2.00899 19.4563 2.00899 21.6342C2.00899 22.003 1.81753 22.3437 1.50673 22.5282C1.19595 22.7126 0.813012 22.7126 0.502258 22.5282C0.191505 22.3438 0 22.003 0 21.6342C0.00125606 19.2631 0.79992 16.9655 2.2609 15.1304C3.72187 13.2952 5.75502 12.0356 8.01615 11.5646C10.2774 11.0938 12.6276 11.4407 14.6681 12.5468C16.709 13.6526 18.3149 15.4496 19.2142 17.6334C19.7358 18.8989 20.003 20.2598 20 21.6344C20.0003 21.9084 19.8946 22.1712 19.7062 22.3648C19.5176 22.5584 19.262 22.667 18.9955 22.6667L18.9956 22.6665Z" fill="#EAE7F4"/>
</svg>
