<svg width="607" height="607" viewBox="0 0 607 607" fill="none" xmlns="http://www.w3.org/2000/svg">
<path d="M303.334 1.79427e-05C233.454 1.79427e-05 180.714 -0.0468566 139.094 4.65109C97.4682 9.34895 65.0255 19.1298 42.0202 42.1564C19.0149 65.1831 9.27486 97.6204 4.60419 139.23C-0.0676769 180.834 5.37783e-05 233.542 5.37783e-05 303.336C5.37783e-05 373.148 -0.0207758 425.867 4.73966 467.496C9.50006 509.116 19.417 541.57 42.4743 564.57C65.5317 587.564 97.9276 597.33 139.501 602.034C181.074 606.732 233.725 606.685 303.341 606.685C372.956 606.685 425.596 606.726 467.181 601.992C508.76 597.258 541.208 587.372 564.254 564.347C587.301 541.325 597.181 508.92 601.942 467.32C606.703 425.721 606.682 373.044 606.682 303.347C606.682 233.664 606.75 181.003 602.078 139.413C597.406 97.8295 587.651 65.3975 564.662 42.3401C541.673 19.2881 509.266 9.43348 467.635 4.69482C426.004 -0.0395835 373.228 0.00214909 303.342 0.00214909L303.334 1.79427e-05ZM303.334 46.6667C373.183 46.6667 425.271 46.8698 462.334 51.0886C499.402 55.3074 519.527 63.1771 531.604 75.2859C543.682 87.3952 551.552 107.557 555.714 144.603C559.875 181.645 559.995 233.671 559.995 303.337C559.995 372.987 559.771 424.993 555.526 462.03C551.286 499.057 543.39 519.202 531.234 531.347C519.078 543.488 498.89 551.374 461.87 555.593C424.85 559.811 372.901 560.014 303.323 560.014C233.739 560.014 181.755 559.869 144.723 555.686C107.697 551.504 87.5459 543.639 75.4059 531.53C63.2659 519.421 55.3539 499.265 51.1139 462.213C46.8743 425.166 46.6451 373.114 46.6451 303.346C46.6451 233.565 46.7649 181.497 50.9263 144.44C55.0877 107.382 62.9679 87.2463 75.0357 75.169C87.0982 63.0908 107.186 55.1996 144.26 51.013C181.333 46.8307 233.457 46.6848 303.313 46.6848L303.334 46.6667Z" fill="black"/>
<path d="M302.96 116.347C296.783 116.44 290.892 118.987 286.586 123.42C282.278 127.857 279.909 133.816 279.992 139.998V349.998C279.903 356.243 282.325 362.264 286.711 366.712C291.096 371.16 297.08 373.665 303.325 373.665C309.575 373.665 315.56 371.16 319.945 366.712C324.331 362.264 326.747 356.243 326.659 349.998V139.998C326.747 133.691 324.279 127.618 319.81 123.16C315.346 118.707 309.268 116.248 302.96 116.347Z" fill="black"/>
<path fill-rule="evenodd" clip-rule="evenodd" d="M326.667 466.667C326.667 479.552 316.219 490 303.334 490C290.448 490 280 479.552 280 466.667C280 453.781 290.448 443.333 303.334 443.333C316.219 443.333 326.667 453.781 326.667 466.667Z" fill="black"/>
</svg>
